<svg width="227" height="12" viewBox="0 0 227 12" fill="none" xmlns="http://www.w3.org/2000/svg">
<mask id="mask0_43_88" style="mask-type:alpha" maskUnits="userSpaceOnUse" x="0" y="0" width="227" height="12">
<rect width="227" height="12" fill="#C4C4C4"/>
</mask>
<g mask="url(#mask0_43_88)">
<path d="M34.096 -2.53772L34.6508 -2.69589L33.5712 -2.92267L34.0887 -3.08867C34.6077 -3.08715 35.2801 -2.83842 35.6459 -2.97058C35.6907 -3.09855 35.1256 -3.13961 34.9814 -3.24157C34.8538 -3.34607 34.7496 -3.44988 34.6702 -3.55178C34.9528 -3.55068 35.2635 -3.52603 35.5839 -3.47929C36.0148 -3.40294 36.4374 -3.36583 36.8052 -3.37204C37.5572 -3.35142 38.2838 -3.372 39.1014 -3.36746L38.8294 -3.67543L39.8831 -3.60338C39.9948 -3.57992 40.1279 -3.61765 40.2376 -3.58862C41.1508 -3.34305 41.5372 -3.47687 41.9756 -3.58783C42.0655 -3.61654 42.1738 -3.63798 42.2976 -3.65158C43.5158 -3.59275 44.6143 -3.24853 45.7115 -3.07182C45.9179 -3.0267 46.116 -2.96879 46.2916 -2.90219C46.6732 -2.77271 47.0976 -2.667 47.5261 -2.59472C47.9546 -2.52244 48.3735 -2.48592 48.7444 -2.48847C49.5647 -2.49133 50.4914 -2.40569 51.4348 -2.23983C51.7154 -2.1852 51.9962 -2.14917 52.2592 -2.13402C52.5222 -2.11886 52.7618 -2.12492 52.9626 -2.15183L53.6005 -1.97603C53.877 -2.04736 54.2276 -2.0865 54.631 -2.09107C55.0345 -2.09563 55.4823 -2.06553 55.9474 -2.00259C56.443 -1.93431 56.9465 -1.88828 57.4607 -1.81609C58.5229 -1.67808 59.5568 -1.59368 60.53 -1.5655C61.9794 -1.48201 63.3955 -1.41746 64.8576 -1.31336C65.7723 -1.26312 66.6636 -1.23548 67.526 -1.2306C68.5591 -1.21095 69.6766 -1.11581 70.8246 -0.949775C70.7701 -0.793996 70.2667 -0.840018 69.9289 -0.845289C68.839 -0.871181 67.7236 -0.938275 66.6023 -0.988677C66.0972 -1.00835 65.606 -1.0158 65.1315 -1.01098C64.3383 -1.01744 63.5021 -1.05894 62.6373 -1.13479C61.2711 -1.21825 59.9485 -1.25837 58.6831 -1.25474C58.584 -1.24857 58.4931 -1.23763 58.412 -1.22212C58.3951 -1.20868 58.3917 -1.19173 58.4023 -1.17291C58.4128 -1.15408 58.437 -1.134 58.4723 -1.11459C58.5076 -1.09519 58.553 -1.0771 58.604 -1.06207C58.6551 -1.04704 58.7102 -1.03555 58.764 -1.02873C59.2666 -0.923157 59.8064 -0.809769 60.2804 -0.793817C60.2987 -0.792627 60.3182 -0.789905 60.3375 -0.785848C60.3568 -0.78179 60.3755 -0.7765 60.392 -0.770358C61.453 -0.547486 62.3254 -0.585201 63.1519 -0.548942C64.5241 -0.45094 65.8469 -0.405164 67.1002 -0.412304C67.2897 -0.411819 67.4942 -0.399079 67.7064 -0.374545C69.0191 -0.275096 70.2466 -0.263974 71.3313 -0.341679C71.7778 -0.361367 72.1928 -0.405561 72.6726 -0.4063C72.9681 -0.409343 73.2254 -0.437545 73.4289 -0.489219C73.6323 -0.540894 73.7778 -0.614974 73.8567 -0.707003C74.0591 -0.658551 74.2646 -0.61537 74.4709 -0.577976C74.5941 -0.556596 74.7123 -0.550916 74.8015 -0.562105C74.8907 -0.573293 74.9443 -0.600513 74.9515 -0.638256C74.9885 -0.743964 74.7073 -0.797051 74.4634 -0.842317C74.6105 -0.864987 74.7762 -0.878324 74.9568 -0.882007C75.9733 -0.90616 77.0635 -0.877653 78.2039 -0.797108C79.0893 -0.700698 79.7961 -0.779169 80.7276 -0.643213C80.8393 -0.619753 80.9313 -0.654187 81.034 -0.662454C81.3021 -0.705993 81.636 -0.715779 82.0068 -0.690956C82.3776 -0.666133 82.7742 -0.607453 83.1621 -0.52C83.6452 -0.758922 84.6887 -0.485975 85.4594 -0.461445C85.6967 -0.339941 85.4244 -0.361302 85.4127 -0.327921C85.4011 -0.29454 85.4127 -0.327927 85.3196 -0.347479C84.5502 -0.175408 83.4961 -0.137887 82.3051 -0.24019C82.0848 -0.239766 81.875 -0.231927 81.6775 -0.216749C81.3784 -0.195266 81.0412 -0.197412 80.6807 -0.223092C80.2867 -0.24195 79.9249 -0.232992 79.6125 -0.196653C79.4328 -0.197244 79.2808 -0.179039 79.1707 -0.143713C79.0605 -0.108387 78.9958 -0.0570845 78.9824 0.00542353C79.1024 0.0536135 79.2355 0.0977084 79.3764 0.135955C80.1121 0.286974 80.8458 0.349483 81.4331 0.311187C82.4552 0.245203 83.6715 0.309594 84.7583 0.287067C85.4929 0.277941 86.2748 0.303935 87.0889 0.364563C87.0889 0.364563 87.0675 0.425761 87.0655 0.431325C87.1618 0.457822 87.263 0.479082 87.3634 0.493887C87.3634 0.493887 87.3634 0.493887 87.3731 0.466069C87.3285 0.439356 87.268 0.414225 87.1986 0.393588L86.9566 0.342754C87.1211 0.329526 87.2747 0.290142 87.4462 0.314205C87.8073 0.358912 88.1525 0.377786 88.4609 0.369705C88.7693 0.361625 89.0346 0.326752 89.2408 0.267182C89.6063 0.190835 90.0608 0.156115 90.5751 0.165265C90.9693 0.15693 91.3491 0.139015 91.7128 0.111611C91.7128 0.111611 91.7361 0.0448551 91.9084 0.00937307C91.7453 -0.0343905 91.5751 -0.0701263 91.4058 -0.0961938C90.6693 -0.161323 89.9309 -0.220889 89.2072 -0.265417C88.9406 -0.270227 88.69 -0.262766 88.4601 -0.243181C87.8234 -0.220262 87.108 -0.25279 86.3556 -0.338871C86.3556 -0.338871 86.2067 -0.37015 86.1323 -0.38579C86.3434 -0.532544 87.0713 -0.385627 87.3657 -0.48501C87.5449 -0.483202 87.8603 -0.470704 87.8495 -0.496868C87.8249 -0.531783 87.822 -0.564219 87.8409 -0.591848C87.8598 -0.619476 87.9 -0.641617 87.9588 -0.656678C88.0175 -0.671739 88.0932 -0.679353 88.1806 -0.678966C88.2679 -0.678579 88.3647 -0.670198 88.464 -0.654439C89.2925 -0.569174 90.0729 -0.545464 90.7573 -0.584757C91.0168 -0.583999 91.3077 -0.558729 91.5652 -0.552406C91.7229 -0.544791 91.8668 -0.549026 91.9892 -0.564878C92.6114 -0.681621 93.4487 -0.690146 94.3753 -0.589173C94.8231 -0.552872 95.2416 -0.548019 95.6091 -0.574859C95.8705 -0.579663 95.9814 -0.496662 96.1675 -0.457562L96.9579 -0.375139L95.9428 -0.271859C96.1598 -0.0351741 96.3323 0.0428685 96.6868 0.0576138C97.204 0.0798804 97.7076 0.0899413 98.1948 0.0877318C98.5551 0.085786 98.8526 0.0348136 99.3405 0.125348C99.4267 0.140115 99.5097 0.144894 99.5755 0.138884C100.147 0.058511 100.835 0.0400642 101.592 0.0848044C101.985 -0.0657024 102.653 0.0806302 103.271 0.198535C103.471 0.0851625 103.109 0.0331212 102.893 -0.0360531C103.41 -0.0289737 103.931 -0.0330167 104.465 -0.0164619C104.626 -0.0224894 104.809 -0.0121787 105.001 0.0136533C105.193 0.0394868 105.389 0.0801375 105.572 0.132427C105.661 0.166212 105.769 0.191641 105.873 0.20343C105.977 0.215221 106.068 0.21247 106.129 0.19575C106.406 0.146436 106.85 0.191856 107.079 0.108558C107.16 0.0893996 107.276 0.0867266 107.407 0.101002C107.537 0.115278 107.674 0.145581 107.791 0.186475C107.662 0.199236 107.548 0.219329 107.45 0.246313C107.1 0.333969 107.229 0.48043 107.674 0.693363C108.357 0.681652 109.055 0.684977 109.689 0.644846C110.042 0.608822 110.474 0.620084 110.938 0.677367C111.401 0.734651 111.878 0.835684 112.313 0.969106C112.47 1.02041 112.65 1.05595 112.815 1.06865C112.981 1.08136 113.121 1.07031 113.208 1.03769C113.262 0.99997 113.278 0.952228 113.256 0.898606L112.81 0.804767C112.81 0.804767 112.827 0.754695 112.831 0.743568L113.473 0.735157C113.813 0.734864 114.168 0.749613 114.489 0.745412C114.961 0.717468 115.499 0.733043 116.071 0.791172C116.599 0.850777 117.118 0.895831 117.623 0.925937C118.111 0.956926 118.465 0.858137 118.93 0.842361C119.282 0.83047 119.669 0.843178 120.076 0.879989C120.78 0.945278 121.425 0.9454 121.954 0.880341C122.571 1.23086 122.871 1.28786 123.443 1.19314L123.713 1.16608L123.786 1.24126L123.992 1.22473C124.377 1.21 124.761 1.19529 125.163 1.19003C125.721 1.22256 126.324 1.31008 126.912 1.44404C127.024 1.4675 127.176 1.54721 127.274 1.60962C127.372 1.67202 127.586 1.86028 127.743 1.98284C127.572 2.0723 127.382 2.15785 127.246 2.2607C127.233 2.27827 127.234 2.29922 127.25 2.32187C127.266 2.34452 127.297 2.36824 127.339 2.39111C127.382 2.41399 127.435 2.43538 127.495 2.45358C127.555 2.47177 127.619 2.48627 127.684 2.49589C127.809 2.51663 127.932 2.53046 128.049 2.5368C128.624 2.54774 129.175 2.53961 129.696 2.51249C129.886 2.47422 130.146 2.47059 130.436 2.50216C130.725 2.53374 131.027 2.59872 131.293 2.6868C131.975 2.63392 132.767 2.64954 133.615 2.73258C134.512 2.68208 135.595 2.7842 136.433 2.67355C136.413 2.72919 136.5 2.82498 136.62 2.88017C136.811 2.96399 137.027 3.04168 137.259 3.10994L139.031 3.24321C139.097 3.31174 139.18 3.38111 139.278 3.45043C139.346 3.50518 139.463 3.55875 139.605 3.59979C139.747 3.64084 139.904 3.66613 140.041 3.67029C140.393 3.6906 140.689 3.64519 141.109 3.75738C140.462 3.86342 139.589 3.84933 138.645 3.71762C137.759 3.61744 136.907 3.56738 136.12 3.56929C135.86 3.56853 135.519 3.57438 135.437 3.63497C135.258 3.80624 134.788 3.77916 134.239 3.74757C133.808 3.71299 133.415 3.71687 133.091 3.7589C132.767 3.80092 132.522 3.87989 132.377 3.98931C132.34 4.09502 132.428 4.18524 132.806 4.24675L134.378 4.49341C134.61 4.46169 134.83 4.42415 135.037 4.38094C135.386 4.32356 135.817 4.3078 136.296 4.33491C136.775 4.36202 137.29 4.43127 137.8 4.53725C138.06 4.59199 138.321 4.64673 138.51 4.62072C138.676 4.59085 138.828 4.55508 138.967 4.51367C138.995 4.48592 139.006 4.45399 139 4.41909C139.1 4.43532 139.2 4.45641 139.298 4.48165C140.074 4.77609 140.675 4.771 141.221 4.69462C141.369 4.67192 141.482 4.63584 141.631 4.60757C141.781 4.57931 141.834 4.54262 141.97 4.5533C143.055 4.64986 143.368 4.32733 144.282 4.34029C144.327 4.32769 144.354 4.30885 144.363 4.28552C144.371 4.26218 144.359 4.2351 144.329 4.20676C144.264 4.18118 144.189 4.15917 144.111 4.14277C144.033 4.12637 143.954 4.11611 143.882 4.11292C143.461 4.07153 143.089 4.08422 142.831 4.14883C142.647 4.17523 142.453 4.19626 142.249 4.21181L141.333 3.74474C142.221 3.78756 143.06 3.78728 143.831 3.74391C143.999 3.71955 144.285 3.76152 144.522 3.76949L146.265 3.81315C146.623 3.81677 146.928 3.74355 147.428 3.91423C147.428 3.91423 147.758 3.94175 147.846 3.91844C147.934 3.89514 148.325 3.7502 148.557 3.65577C148.828 3.68269 149.202 3.75534 149.37 3.73098C149.664 3.67116 149.919 3.59447 150.129 3.50229L151.182 3.63388C151.181 3.75079 151.143 3.86076 151.068 3.96213C150.986 4.0599 150.988 4.17726 151.076 4.30462C151.163 4.43197 151.333 4.5657 151.571 4.69489L152.611 5.3791C152.78 5.42492 152.961 5.45576 153.129 5.46743C153.296 5.47911 153.442 5.47106 153.547 5.44437C153.994 5.36514 154.495 5.3032 154.943 5.22397C155.52 5.34518 155.371 5.54096 155.791 5.71269L157.15 5.99812C157.357 6.26262 157.568 6.516 156.938 6.60455C156.812 6.62003 156.897 6.72139 156.782 6.76303C157.273 6.96153 157.811 7.02095 158.308 7.14321C158.504 7.23114 158.668 7.32421 158.791 7.41794C158.927 7.55906 159.203 7.70322 159.559 7.81928C159.914 7.93534 160.322 8.01399 160.693 8.03825C161.315 8.11256 161.952 8.22416 162.575 8.36806C162.788 8.4181 163.007 8.45456 163.217 8.47498C163.427 8.49539 163.623 8.4993 163.793 8.48643C164.396 8.46378 164.907 8.38586 165.291 8.25776C165.672 8.14905 166.184 8.09666 166.783 8.10533C167.807 8.32038 168.013 8.64443 168.633 8.92985L167.563 8.96184C167.524 9.07311 167.595 9.21341 167.156 9.21084C166.717 9.20827 166.94 9.31474 167.082 9.42226C167.132 9.47634 167.23 9.53198 167.359 9.57974C167.488 9.6275 167.64 9.66446 167.79 9.68436L168.701 9.82198C169.024 9.87435 169.336 9.89672 169.604 9.88662C169.872 9.87651 170.085 9.83434 170.219 9.76473C170.373 9.69863 170.586 9.65391 170.845 9.63333C171.174 9.5794 171.445 9.4992 171.647 9.39576L172.933 9.54647C172.988 9.44252 173.164 9.36964 173.433 9.34014C173.702 9.31064 174.046 9.32632 174.408 9.38456L175.275 9.47706C176.239 9.57798 176.45 9.54476 176.732 9.2517L175.577 8.72823C175.745 8.59035 175.907 8.46916 176.069 8.34797C175.781 8.17551 175.397 8.01239 174.956 7.87519C174.544 7.72775 174.12 7.58496 173.686 7.44736C173.216 7.30675 172.719 7.18449 172.135 7.02598C172.033 6.97471 171.885 6.88388 171.696 6.79636C171.507 6.71131 171.309 6.62794 171.104 6.54658C171.143 6.43531 171.178 6.33517 171.103 6.206C171.463 6.24722 171.834 6.3193 172.184 6.41576C172.534 6.51221 172.852 6.63 173.108 6.75851C173.151 6.7813 173.204 6.8027 173.263 6.82128C173.322 6.83985 173.386 6.85517 173.45 6.86618C174.082 6.94514 174.384 7.11009 174.693 7.31235C174.901 7.41573 175.169 7.50756 175.46 7.57506C176.018 7.69236 176.565 7.84305 177.099 7.97313C177.263 8.01648 177.432 8.05216 177.602 8.0787C178.16 8.16309 178.722 8.28109 179.258 8.4267C179.434 8.4637 179.602 8.51268 179.749 8.56953C179.896 8.62637 180.017 8.68944 180.103 8.75346C179.97 8.8236 179.899 8.91215 179.892 9.01374C179.869 9.0805 180.261 9.2166 180.446 9.31525C180.632 9.4139 180.268 9.36742 180.145 9.37734C179.639 9.39642 179.545 9.43641 179.848 9.65536C179.949 9.7242 180.017 9.79309 180.046 9.85773C180.075 9.92237 180.065 9.9814 180.017 10.0311C179.945 10.237 179.726 10.406 179.575 10.6073C179.809 10.74 180.199 10.8816 180.241 11.0458C180.262 11.0822 180.305 11.1208 180.368 11.1588C180.43 11.1968 180.511 11.2332 180.604 11.2654C180.849 11.3349 181.072 11.418 181.255 11.5082C181.439 11.5985 181.577 11.6936 181.661 11.786C181.688 11.8242 181.755 11.8647 181.846 11.8995C181.938 11.9343 182.048 11.9606 182.155 11.9733C182.283 11.989 182.397 11.9869 182.475 11.9676C182.552 11.9483 182.586 11.9132 182.571 11.8696C182.574 11.7877 182.557 11.7023 182.52 11.6141C182.542 11.5529 182.563 11.4917 182.479 11.3904C182.86 11.4274 183.261 11.5015 183.637 11.6047C184.013 11.7079 184.35 11.8363 184.612 11.9758C184.901 12.1202 185.168 12.2718 185.488 12.4406C185.422 12.6298 185.422 12.6298 186.105 12.9642L189.724 13.1273L190.466 13.3488C191.158 13.5419 191.322 13.5287 191.757 13.4289L192.049 13.335C192.663 13.4641 193.371 13.6126 193.755 13.3709C193.88 13.5285 193.961 13.5814 193.933 13.6053C193.749 13.8379 193.431 14.0352 192.989 14.1895C192.877 14.2255 192.798 14.2806 192.666 14.3127C192.244 14.4943 192.146 14.775 192.392 15.0972C192.515 15.2398 192.693 15.3858 192.92 15.5306C192.587 15.7314 192.146 15.8979 191.608 16.0254C191.152 16.1241 190.777 16.2562 190.492 16.418C190.237 16.5811 189.855 16.7037 189.367 16.7788C189.12 16.8108 188.939 16.8737 188.844 16.9615C188.815 17.1991 188.881 17.4536 189.039 17.7191C189.068 17.7999 189.153 17.8872 189.285 17.9741C189.418 18.061 189.595 18.1451 189.803 18.22C189.803 18.22 189.903 18.2768 189.951 18.3108C189.991 18.5985 189.841 18.8521 189.511 19.0545C189.457 19.1119 189.346 19.1534 189.191 19.1745C189.036 19.1955 188.842 19.1954 188.63 19.174C188.183 19.1397 187.764 19.1355 187.332 19.1163C186.865 19.089 186.454 19.1105 186.142 19.1784C185.83 19.2463 185.628 19.3582 185.558 19.5022C185.554 19.543 185.54 19.582 185.517 19.619C185.504 19.6381 185.497 19.6586 185.496 19.6802L186.49 20.1518L185.366 20.3396C185.299 20.5287 185.839 20.6421 186.11 20.7826L185.943 20.8609C185.727 20.9053 185.437 20.8205 185.175 20.7713L184.914 20.7165L184.883 20.8056C184.721 20.9268 184.129 20.7905 183.898 20.8794C183.667 20.9682 183.832 21.0685 184.178 21.1651C184.418 21.2368 184.677 21.2941 184.933 21.3324C185.19 21.3708 185.438 21.3893 185.659 21.3866C185.791 21.3771 185.901 21.3554 185.981 21.3229C186.448 21.1842 186.964 21.0651 187.524 20.9662C187.954 20.8775 188.492 20.8397 189.101 20.8556C189.28 20.8489 189.496 20.8699 189.71 20.915C189.925 20.96 190.124 21.0262 190.274 21.1019L190.589 21.1144C190.589 21.1144 190.762 21.1925 190.737 21.2052C190.617 21.4365 190.757 21.7191 191.135 22.0114L190.806 22.0378C190.336 22.0108 190.634 22.1868 190.564 22.2736C190.23 22.2572 189.796 22.184 189.638 22.294L189.401 22.2861L189.494 22.3056L189.606 22.2695L190.048 22.434C189.839 22.4617 189.687 22.4955 189.502 22.5104C189.4 22.5233 189.319 22.5462 189.263 22.5776C189.207 22.6091 189.179 22.6484 189.179 22.6932C189.179 22.7623 189.124 22.8204 189.019 22.862C188.913 22.9036 188.761 22.9273 188.576 22.931C188.356 22.9325 188.23 23.0075 188.1 23.0341L188.662 23.4864C188.662 23.4864 188.382 23.4278 188.534 23.5075L188.554 23.4518L188.894 23.5651C189.139 23.6643 189.31 23.6884 189.455 23.6173C189.6 23.5461 189.567 23.6407 189.636 23.6135C189.611 23.6858 189.453 23.7364 189.318 23.7797C189.162 23.8137 188.986 23.8387 188.793 23.8544C189.141 24.1724 189.158 24.1819 188.649 24.2661C188.14 24.3503 188.316 24.4767 187.89 24.4948C187.464 24.5128 187.948 24.728 188.233 24.77C188.444 24.7975 188.66 24.8405 188.865 24.8959C189.07 24.9513 189.259 25.0178 189.42 25.0909L189.334 25.3357C189.209 25.3154 189.083 25.289 188.962 25.2575C188.549 25.123 188.174 24.9964 187.807 25.0746L187.982 25.2606L186.701 25.1527C186.734 25.2921 186.929 25.4509 187.245 25.5956C187.198 25.6751 187.168 25.7587 187.158 25.846C187.136 25.9072 187.01 25.8687 186.928 25.8753C186.634 25.8855 186.394 25.927 186.227 25.996C186.06 26.0651 185.972 26.1596 185.97 26.2713C185.937 26.3659 186.388 26.5621 186.67 26.5557C187.374 26.5745 188.135 26.6473 188.913 26.77C189.387 26.786 189.454 26.5373 190.234 26.707C190.249 26.8219 190.149 26.9149 189.949 26.9719C189.749 27.029 189.459 27.0471 189.124 27.0234C189.315 27.2784 190.37 27.3449 190.417 27.6115C190.154 27.5927 189.873 27.5484 189.602 27.483C189.33 27.4175 189.078 27.3333 188.869 27.2386C188.824 27.2152 188.768 27.1937 188.705 27.176C188.642 27.1583 188.575 27.1449 188.51 27.1372C188.445 27.1295 188.384 27.1277 188.333 27.1319C188.281 27.1361 188.241 27.1462 188.217 27.1612C188.363 27.2576 188.524 27.3691 188.707 27.4733C188.89 27.5775 188.935 27.6226 189.067 27.6444C190.053 27.8516 190.522 28.2249 191.376 28.4698C191.599 28.5168 191.627 28.6659 191.433 28.6491C191.249 28.6322 191.082 28.6344 190.951 28.6554C190.82 28.6765 190.73 28.7155 190.692 28.7681C190.549 28.8296 190.371 28.8784 190.162 28.9135C191.037 29.2965 192.081 29.635 193.195 29.897C193.406 29.9488 193.626 29.9804 193.823 29.9871C194.445 29.9875 195.105 30.0179 195.789 30.0777C196.032 30.094 196.256 30.0925 196.45 30.0732C197.085 30.0275 197.59 30.1275 198.051 30.4095L198.814 30.8564C198.789 30.9287 198.661 31.0093 198.562 31.12L199.158 31.3586L203.706 30.809L204.619 31.3411L205.928 31.3116C206.028 31.3269 206.129 31.3481 206.225 31.3741C206.49 31.5313 206.697 31.6822 206.985 31.8322C207.272 31.9821 207.785 32.0003 208.143 32.177C208.501 32.3537 208.859 32.3573 209.302 32.4623C209.343 32.599 209.3 32.7221 209.175 32.8239C209.135 32.9407 208.91 33.0129 208.871 33.1242C208.875 33.2366 208.791 33.3321 208.627 33.4019C208.463 33.4718 208.224 33.5138 207.932 33.5241C207.112 33.7636 206.124 33.9341 204.998 34.0305C204.899 34.0375 204.816 34.0537 204.756 34.078C204.696 34.1024 204.66 34.1344 204.648 34.1721C204.65 34.2813 204.575 34.3756 204.428 34.4482C204.282 34.5208 204.068 34.5698 203.802 34.5916C203.732 34.596 203.678 34.6097 203.649 34.631C203.548 34.6448 203.475 34.6711 203.436 34.7074C203.397 34.7437 203.394 34.7888 203.426 34.8384C203.459 34.8879 203.527 34.9402 203.623 34.9902C203.72 35.0402 203.841 35.0862 203.976 35.1238C204.172 35.1843 204.372 35.2422 204.575 35.2973C204.563 35.3307 204.362 35.3361 204.391 35.3662C204.471 35.4622 204.489 35.5521 204.445 35.6289C204.401 35.7056 204.295 35.7671 204.136 35.8084L205.223 36.5861C205.883 36.6939 206.53 36.8766 207.042 37.0995C207.043 37.1361 207.013 37.1667 206.957 37.1883C206.9 37.21 206.818 37.2219 206.719 37.2228C206.454 37.2388 206.203 37.2697 205.917 37.2873C205.743 37.3005 205.597 37.3294 205.49 37.3724C205.382 37.4154 205.314 37.4716 205.29 37.5378L205.929 37.8271C205.724 37.8977 205.572 37.9315 205.437 37.9748C205.514 38.0657 205.646 38.1598 205.822 38.2496C205.998 38.3395 206.215 38.4228 206.455 38.4931C206.52 38.5076 206.585 38.5182 206.648 38.5243C206.711 38.5304 206.771 38.5318 206.822 38.5285C207.317 38.4293 207.895 38.6044 208.456 38.7702C209.018 38.9359 209.323 39.0357 209.737 39.1646L210.53 39.1819C210.731 39.2429 210.91 39.3147 211.053 39.3914C211.197 39.4682 211.3 39.5478 211.355 39.6239C211.312 39.7463 210.936 39.6792 210.712 39.6918C210.18 39.768 209.481 39.7518 208.73 39.6458C208.544 39.6067 208.353 39.6382 208.172 39.642C207.781 39.6572 207.405 39.682 207.047 39.7162C206.811 39.7481 206.59 39.7875 206.386 39.8343C206.332 39.9901 207.189 40.1104 206.702 40.1873C206.87 40.2225 206.933 40.2715 207.019 40.2538C207.571 40.355 208.114 40.405 208.587 40.398C209.494 40.3766 210.523 40.4475 211.591 40.6052C212.744 40.7685 213.85 40.8371 214.818 40.8053C215.187 40.8034 215.599 40.8368 216.023 40.903C216.524 40.9947 217.021 41.0524 217.482 41.0722C217.635 41.0729 217.805 41.0885 217.979 41.1178C218.153 41.147 218.325 41.1891 218.482 41.2405C218.469 41.2795 218.319 41.3077 218.352 41.3267C218.83 41.6181 219.024 41.9216 219.759 42.2193C220.261 42.3249 220.838 42.4461 221.167 42.3061C221.496 42.1661 221.378 42.0458 220.724 41.6875C220.866 41.6823 221.037 41.6991 221.207 41.7348C221.377 41.7705 221.535 41.823 221.655 41.883L222.22 42.1511L222.73 42.4075C222.685 42.5354 222.65 42.6356 222.613 42.7413C222.555 42.8536 222.619 42.9902 222.796 43.1321C222.904 43.2096 222.997 43.287 223.075 43.3638C223.394 43.671 223.486 43.9612 223.342 44.2021C223.065 44.5485 222.679 44.8672 222.19 45.1545C221.672 45.4341 221.389 45.7867 220.963 46.0913C220.746 46.23 220.482 46.3544 220.174 46.463C219.59 46.7046 218.95 46.9345 218.364 47.1817C217.779 47.4289 217.117 47.6064 216.466 47.8102C215.498 48.052 214.45 48.2608 213.331 48.4355C212.638 48.5885 211.926 48.7377 211.286 48.9136C210.529 49.1119 209.639 49.2543 208.64 49.3373C207.757 49.4366 206.969 49.5834 206.289 49.7751C206.218 49.7958 206.162 49.8222 206.122 49.8534C206 50.0488 205.657 50.1865 205.146 50.2455C205.177 50.3028 205.216 50.3609 205.265 50.4198C205.336 50.49 205.35 50.5557 205.307 50.6083C205.264 50.661 205.164 50.6982 205.022 50.7151C204.613 50.7635 204.273 50.8457 204.018 50.9581C203.924 50.9863 203.866 51.0273 203.848 51.0777C203.83 51.1281 203.854 51.1863 203.916 51.2474C203.972 51.3103 203.976 51.3681 203.928 51.4134C203.88 51.4587 203.783 51.4894 203.648 51.5015C203.302 51.561 202.931 51.6089 202.539 51.6448C201.703 51.724 200.732 51.7231 199.683 51.642C199.571 51.6186 199.458 51.6546 199.328 51.6273C198.586 51.5364 197.897 51.5224 197.344 51.5868C196.696 51.6119 196.019 51.6069 195.335 51.6186C194.348 51.6107 193.437 51.6585 192.628 51.7606C191.703 51.662 191.184 51.8335 190.404 51.8368C189.683 51.8544 189 51.8967 188.361 51.9632C187.332 52.0514 186.306 52.1286 185.29 52.2318C184.338 52.2811 183.461 52.3752 182.675 52.5125C182.373 52.5746 181.828 52.4779 181.622 52.608C181.417 52.738 181.003 52.7227 180.668 52.7658L179.612 52.8724C179.43 52.8977 179.231 52.9138 179.016 52.9204C178.034 52.9291 177.354 53.1027 176.442 53.1382L176.349 53.1186C174.731 53.3768 172.878 53.5185 170.847 53.5395C169.661 53.6187 168.363 53.6149 167.104 53.6729C166.804 53.789 166.095 53.646 165.718 53.752C165.341 53.858 164.726 53.7885 164.24 53.8059C163.755 53.8234 163.28 53.867 162.761 53.8654C162.31 53.8659 161.93 53.9133 161.654 54.0032C161.025 54.1517 160.257 54.2391 159.386 54.2613C158.234 54.2999 157.144 54.3875 155.972 54.3682C155.989 54.4765 155.917 54.5686 155.764 54.6351C155.61 54.7016 155.382 54.7401 155.1 54.7465C153.847 54.7879 152.711 54.8955 151.441 54.9273L151.101 54.9276L147.303 54.9898C146.28 55.0018 145.294 55.0216 144.25 55.0353C143.859 54.9532 143.85 55.0945 143.579 55.0676C143.504 54.9979 143.415 54.9673 143.282 55.005L143.252 55.0885L138.918 55.1992C137.221 55.2801 135.436 55.3044 133.578 55.2718C133.137 55.28 132.726 55.3076 132.35 55.3543C132.002 55.3714 131.639 55.3789 131.263 55.3769C130.755 55.3558 130.259 55.3452 129.776 55.3451C128.506 55.3769 127.173 55.3598 125.783 55.3364C124.392 55.3131 123.339 55.3546 122.101 55.3514C121.263 55.3485 120.429 55.3345 119.561 55.3015C119.147 55.2862 118.637 55.2028 118.208 55.1725C117.779 55.1421 117.639 55.1425 117.582 55.1903C117.395 55.3243 116.926 55.2377 116.551 55.2246C115.82 55.2023 115.716 55.1566 115.517 54.8103L116.415 54.7003C116.635 54.6647 116.911 54.6585 117.218 54.6821C117.525 54.7058 117.851 54.7585 118.166 54.8352C118.29 54.8681 118.419 54.8941 118.547 54.9116C118.674 54.9292 118.797 54.938 118.909 54.9376C119.815 54.9188 120.708 54.8795 121.578 54.8473L121.705 54.8263L121.713 54.5174C121.598 54.4871 121.479 54.462 121.36 54.4431L116.994 54.2427C115.992 54.1935 114.952 54.0825 113.969 54.0372C112.986 53.9919 112.456 53.9643 111.693 53.9175C111.371 53.8908 111.043 53.8558 110.711 53.8126C110.73 53.7829 110.741 53.7513 110.744 53.7181C110.761 53.668 110.785 53.6012 110.643 53.5477C110.489 53.4721 110.284 53.4076 110.067 53.3669C109.864 53.3401 109.667 53.3249 109.484 53.322C108.598 53.2961 107.587 53.1329 106.665 52.8673L106.344 53.0446C104.96 52.945 103.555 52.8471 102.11 52.7525C101.821 52.7267 101.517 52.6772 101.221 52.6076C100.905 52.5412 100.614 52.4024 100.281 52.3264C99.9516 52.2718 99.6247 52.2292 99.3062 52.1993C99.3924 52.1537 99.5062 52.1173 99.6437 52.0911C99.7791 52.0819 99.8777 52.0534 99.9253 52.0097C99.9729 51.9661 99.9671 51.9094 99.9085 51.8481C99.8054 51.7429 99.7601 51.6438 99.9843 51.6311C100.191 51.6071 100.34 51.5552 100.411 51.4814C100.483 51.4076 100.476 51.315 100.39 51.2146C100.352 51.1559 100.325 51.0985 100.31 51.0426L100.217 51.023C99.9097 50.8152 99.2966 50.7402 98.8565 50.5701C98.6488 50.5208 98.4338 50.4924 98.2453 50.4895C97.7586 50.4529 97.2846 50.437 96.7812 50.391C96.5408 50.3698 96.2893 50.3312 96.0416 50.2774C95.6879 50.2031 95.6507 50.1953 95.4454 49.9252C95.7643 49.93 96.0171 49.8896 96.1611 49.811C96.305 49.7324 96.3313 49.6205 96.2355 49.494C95.9724 49.2178 95.6945 48.9265 94.5043 48.7302C94.8924 48.7206 95.266 48.7013 95.6233 48.6727C95.7273 48.6665 95.8052 48.6462 95.8465 48.6145C95.8878 48.5828 95.8906 48.5412 95.8545 48.4953C95.8184 48.4494 95.745 48.4014 95.6444 48.3577C95.5438 48.3139 95.4206 48.2766 95.2913 48.2506C94.6632 48.0943 94.0078 47.9897 93.3988 47.9486C92.8857 47.9304 92.4226 47.9406 91.8233 47.9401L91.116 47.7916C91.1276 47.7582 91.0237 47.7125 91.0501 47.6941C91.2299 47.5229 91.4282 47.3555 91.6323 47.1714C91.3062 47.0721 91.0237 46.9521 90.8172 46.8253C90.6106 46.6984 90.4883 46.5699 90.4643 46.4543C90.4467 46.4195 90.4513 46.3877 90.4778 46.3613C90.5043 46.3348 90.5521 46.3144 90.6177 46.3014C90.8039 46.279 90.9476 46.2364 91.0378 46.1766C91.1279 46.1169 91.1621 46.0416 91.1377 45.9568L90.5876 45.6441C88.9315 45.4211 87.305 45.2617 85.7386 45.169L84.3245 45.0989C84.1539 45.0153 84.2067 44.9786 84.3672 44.9765C84.5278 44.9744 84.9793 44.9976 85.2946 45.0101C85.5669 45.0265 85.8088 45.0157 85.9967 44.9788C86.1846 44.9419 86.3122 44.8801 86.3672 44.7994L85.8924 44.4429C85.9157 44.3761 85.9488 44.2815 86.2063 44.2879C86.3823 44.2801 86.5119 44.2465 86.5743 44.1925C86.6367 44.1384 86.6282 44.067 86.5502 43.9898C86.5384 43.934 86.5561 43.8832 86.6027 43.8396C86.9836 43.836 87.3625 43.838 87.7081 43.821C87.8691 43.8154 88.005 43.7947 88.1066 43.7604C88.2083 43.7261 88.2732 43.679 88.2971 43.6222C88.3096 43.5669 88.2792 43.5038 88.2084 43.4381C88.1376 43.3724 88.0285 43.3059 87.8897 43.244C87.3481 43.1675 86.8527 43.1665 86.512 43.2413C86.3906 43.2999 86.1956 43.3319 85.9526 43.3331C85.7097 43.3343 85.4302 43.3047 85.151 43.248C84.8314 43.1828 84.5125 43.1541 84.2515 43.1671C83.9906 43.1802 83.8048 43.2341 83.7276 43.3193C83.3995 43.2862 83.1086 43.2609 82.8216 43.2245C82.4831 43.1786 82.1631 43.1651 81.8962 43.1854C81.4692 43.1998 81.0091 43.1914 80.5263 43.1604C79.1347 43.0831 77.7411 43.0113 76.3937 42.9791C76.0373 42.9699 75.7289 42.9947 75.3763 42.9744C75.0238 42.9541 74.7449 43.009 74.304 42.8985C74.22 42.8813 74.1355 42.8702 74.0571 42.8662C73.9788 42.8622 73.9087 42.8653 73.8525 42.8753C73.0783 42.9627 72.1705 42.975 71.1825 42.9116C69.8292 42.8961 68.4259 42.8521 67.0708 42.8422C66.6733 42.8507 66.2977 42.8737 65.9479 42.9109C65.6816 42.9333 65.4028 42.9485 65.1127 42.9564C64.8905 42.9635 64.6779 42.9427 64.7154 43.064C64.753 43.1854 64.4199 43.1095 64.2279 43.087C63.5683 43.0282 62.8943 42.9486 62.2132 42.849C61.542 42.7407 60.8845 42.6778 60.2798 42.6638C59.8431 42.6557 59.3928 42.6865 58.8313 42.5208C58.8527 42.4596 58.874 42.3984 58.9963 42.3345C58.5384 42.1586 58.0159 42.0074 57.4721 41.8931C56.9283 41.7789 56.3789 41.705 55.8691 41.6776L55.1662 41.3448C54.9931 41.3057 54.8164 41.2773 54.6469 41.2612C54.4773 41.245 54.3185 41.2416 54.1799 41.2511C54.0729 41.2559 53.9424 41.2435 53.8125 41.2163C53.6825 41.189 53.5618 41.1486 53.4726 41.1025C53.3391 41.0439 53.1761 40.9934 53.0039 40.9572C52.8317 40.921 52.658 40.9008 52.5047 40.8992C52.0217 40.863 51.5061 40.7794 51.0108 40.6571C50.8823 40.5853 50.8017 40.5112 50.7791 40.4438C50.7565 40.3765 50.7928 40.3188 50.8836 40.278C51.0299 40.2059 51.1121 40.114 51.1251 40.0079C51.1381 39.9018 51.0817 39.7838 50.9593 39.6609C50.8967 39.5854 50.8757 39.514 50.8978 39.4509C50.9198 39.3878 50.9844 39.3343 51.0876 39.2937C51.473 39.1059 51.3699 39.0006 50.7395 38.689C50.6371 38.6371 50.5136 38.5885 50.377 38.5465C50.2403 38.5044 50.0935 38.4697 49.9457 38.4447C49.599 38.3939 49.2571 38.3561 48.9261 38.332C48.74 38.2929 48.5491 38.3245 48.3346 38.3093C47.2623 38.2333 47.1053 38.1108 46.758 37.8467L46.5049 37.6562C46.0355 37.5019 45.5221 37.3737 45.0017 37.2809C44.4813 37.1881 43.9669 37.133 43.4956 37.1196C43.3082 37.1186 43.0928 37.0922 42.8824 37.0446C42.1976 36.8988 41.5041 36.7979 40.8479 36.7486C40.4389 36.7208 39.9981 36.649 39.5784 36.5418C39.1587 36.4345 38.7778 36.2964 38.4817 36.144C38.2156 36.0068 37.8676 35.8835 37.4859 35.7916C37.0392 35.6977 36.9978 35.5875 37.2473 35.5025C37.4968 35.4176 37.9146 35.3083 38.2855 35.219C38.4145 35.1886 38.4945 35.1393 38.5164 35.0764C38.5384 35.0135 38.5015 34.9396 38.4099 34.8629C38.3511 34.7316 38.3408 34.6071 38.3795 34.4922C38.4002 34.4445 38.3859 34.3898 38.3377 34.3318C38.2894 34.2738 38.2083 34.2138 38.0998 34.1559C37.9912 34.098 37.8578 34.0436 37.7085 33.9962C37.5592 33.9489 37.3975 33.9097 37.2343 33.8814C36.5456 33.7368 35.8755 33.596 35.1732 33.4903C34.8788 33.4404 34.5848 33.3787 34.2983 33.3065C33.7118 33.128 33.0844 32.9799 32.4524 32.871C32.1525 32.8223 31.8593 32.7371 31.6362 32.6338C30.9326 32.3557 30.2843 32.0633 29.703 31.7619C29.5629 31.6685 29.3796 31.5773 29.1646 31.4941C28.9495 31.4109 28.7074 31.3375 28.4534 31.2785C28.2486 31.2355 28.082 31.1407 27.9241 31.0777C27.8095 30.9318 27.7972 30.7968 27.8885 30.6854C27.9799 30.5741 28.1718 30.4899 28.4464 30.4409C28.7067 30.3821 28.9503 30.3139 29.1753 30.2417C29.4466 30.1834 29.769 30.1483 30.1307 30.1378C30.5591 30.1065 30.8759 30.017 31.0397 29.8809C29.867 29.6346 28.7519 29.2809 27.7239 29.3635L26.9429 29.1398C26.974 29.0507 27.0013 28.9729 27.0265 28.9005C27.2123 28.7689 27.2703 28.6028 27.1957 28.4165C27.1341 28.3263 27.1397 28.2443 27.2117 28.1787C27.2838 28.1131 27.4198 28.0662 27.606 28.0428C28.7089 27.8027 29.9843 27.6407 31.0186 27.3682C31.3429 27.3171 31.7225 27.2939 32.1415 27.2995C32.5468 27.2832 32.5299 27.1602 32.0634 27.0084C31.8016 26.9291 31.5347 26.8532 31.2638 26.7807C30.0692 26.7687 29.5826 27.1323 28.2193 27.031L27.5875 26.5519C27.4166 26.5445 27.2507 26.5416 27.091 26.5432L24.8052 26.7379C24.6148 26.7476 24.4666 26.7809 24.3774 26.834C24.2882 26.887 24.2616 26.9577 24.3007 27.038C24.3162 27.1362 24.2847 27.2263 24.2074 27.305C24.1575 27.3602 24.1894 27.4334 24.296 27.5088C24.5364 27.6787 24.228 27.7035 24.0333 27.7462C23.9835 27.7504 23.9261 27.75 23.8644 27.7449C23.8027 27.7399 23.7379 27.7304 23.6739 27.7169C23.6098 27.7035 23.5477 27.6863 23.4912 27.6665C23.4346 27.6467 23.3848 27.6246 23.3445 27.6016C23.0014 27.4399 22.7013 27.2694 22.364 27.091C22.6035 26.9204 22.3218 26.6402 22.6954 26.4858C22.7372 26.455 22.7539 26.4174 22.7445 26.3754C22.7352 26.3333 22.6999 26.2878 22.6409 26.2415C22.4888 26.1219 22.4163 26.0053 22.4308 25.9035C22.4453 25.8017 22.5463 25.7183 22.7236 25.6616L22.745 25.6004C22.2774 25.3947 22.4013 25.2117 22.2177 24.994L21.7679 24.8517C20.6488 24.5092 20.6468 24.5147 19.6834 24.5273C19.4892 24.397 19.7359 24.3771 19.9209 24.3623L21.4706 24.216C22.4838 24.1183 23.5264 24.0506 24.6582 24.0137C25.79 23.9767 27.0518 23.8536 28.2217 23.7649C28.2809 23.758 28.3261 23.7444 28.3537 23.7253C28.3812 23.7062 28.3902 23.682 28.3801 23.6548C28.3336 23.6255 28.2727 23.5971 28.2019 23.5719C28.1312 23.5468 28.0524 23.5253 27.9713 23.5093C27.5991 23.4311 27.2171 23.3807 26.8204 23.3153L26.0808 23.2017L25.8533 23.0524C25.7052 22.9616 25.604 22.8507 25.407 22.7855C25.2447 22.7368 25.0685 22.6999 24.8967 22.6785C24.725 22.6571 24.564 22.6521 24.4305 22.664C24.0605 22.6937 23.7257 22.7369 23.3723 22.7761C23.0189 22.8153 22.8242 22.858 22.5178 22.8773C21.8952 22.886 21.2935 22.9092 20.7153 22.9466C20.2283 23.035 19.7779 23.1399 19.3669 23.2605C19.1104 23.3082 18.8706 23.3653 18.4328 23.3032C18.2251 23.2468 18.0459 23.1729 17.9271 23.0943C17.8082 23.0158 17.7573 22.9378 17.7835 22.8742C17.807 22.8243 17.8735 22.7848 17.9768 22.7595C18.08 22.7341 18.2166 22.7238 18.3736 22.7294C18.8131 22.7202 19.2195 22.6893 19.5846 22.6374C20.0928 22.5433 20.7115 22.5027 21.4045 22.518C21.6396 22.5316 21.7971 22.481 22.0027 22.4645C22.2083 22.448 22.3824 22.4069 22.6116 22.4372C23.3237 22.5151 23.6651 22.3957 24.0918 22.3181C24.2363 22.2837 24.3258 22.2281 24.3505 22.1574C24.3751 22.0868 24.3341 22.0037 24.2318 21.9175C24.0348 21.7458 23.7939 21.5731 23.5128 21.4022C23.3681 21.3182 23.1827 21.2384 22.9712 21.1691C22.7597 21.0998 22.5277 21.0429 22.2936 21.0028C22.1535 20.8976 22.0788 20.7942 22.0762 20.7019C22.0735 20.6096 22.1431 20.5313 22.2786 20.4741C22.6239 20.3436 22.9301 20.2108 23.7038 20.2838C24.0676 20.3116 24.4099 20.317 24.7172 20.2996C25.3989 20.2758 26.1852 20.3279 27.002 20.4511C27.2134 20.4826 27.4211 20.5041 27.6191 20.515C29.0312 20.5907 30.3767 20.6284 31.726 20.6551C32.4408 20.6679 33.1615 20.664 33.9077 20.7013C35.6577 20.7822 37.2507 20.7406 38.9398 20.767C39.8244 20.7806 40.6163 20.7261 41.2737 20.6063C41.4018 20.5662 41.5117 20.5193 41.6023 20.4663C41.1666 20.3272 40.6881 20.2171 40.2125 20.1465C39.7369 20.0758 39.2802 20.0471 38.8861 20.063C38.6695 20.1019 38.3895 20.109 38.0773 20.0835C37.7652 20.058 37.4332 20.0009 37.1183 19.9186L38.0338 19.872C38.6408 19.8502 39.2625 19.8435 39.8529 19.8122C40.7908 19.7584 41.66 19.6722 42.6313 19.6374C43.4154 19.6053 44.1171 19.5234 44.7143 19.3941C45.1457 19.2999 45.6385 19.233 46.1826 19.1949C46.5693 19.1747 46.5693 19.1747 46.8165 18.9817C46.6204 18.8569 46.3667 18.8395 46.1278 18.8371C44.6954 18.7585 43.3323 18.7448 42.0661 18.7961C41.4273 18.8006 40.8606 18.8535 40.3931 18.9523C40.2787 18.9939 39.9858 18.9742 39.7508 18.9607C39.014 18.9401 38.3098 18.946 37.6467 18.9785C36.7298 19.0326 35.7086 19.0198 34.6229 18.9405C34.417 18.8435 34.654 18.8515 34.6656 18.8181C35.5066 18.7559 36.3309 18.6842 37.1885 18.6314C37.4229 18.6126 37.6735 18.6033 37.9375 18.6036C38.9228 18.6363 39.744 18.5457 40.2858 18.3445C40.313 18.2666 40.6695 18.2758 40.827 18.2252C40.9045 18.1815 40.9561 18.13 40.9803 18.0723C40.7508 17.9285 40.4913 17.9278 40.2916 17.9276C39.712 17.9437 39.1543 17.9741 38.6214 18.0187C38.126 18.0612 37.5776 18.0726 36.9911 18.0525C36.5583 18.0332 36.1883 18.063 35.7515 18.0549C35.5146 18.0378 35.2694 18.0103 35.0209 17.9731C35.2976 17.8729 35.6738 17.8112 36.123 17.7925C36.4636 17.7327 36.8895 17.7146 36.9439 17.5589C36.783 17.4474 36.6038 17.4456 36.4599 17.4572C36.1604 17.4568 35.871 17.4638 35.5934 17.4782C35.0048 17.5099 34.3674 17.5103 33.6948 17.4795C33.3406 17.468 33.0045 17.4715 32.6922 17.4899C31.9843 17.5144 31.3059 17.5689 30.6577 17.594C29.3301 17.6197 28.1191 17.7117 26.8434 17.7602C26.5595 17.7723 26.3049 17.8143 25.9307 17.7417C25.5565 17.6691 25.5398 17.6596 25.4957 17.6145C25.3909 17.5392 25.3592 17.4663 25.407 17.4107C25.4813 17.3589 25.6259 17.33 25.8151 17.3292C26.9555 17.2467 28.0372 17.1309 29.0533 16.9823C29.5005 16.9525 29.8923 16.8918 30.2151 16.8023C30.4711 16.7407 30.7748 16.6999 31.1166 16.6811C31.6137 16.6366 32.132 16.6039 32.6693 16.5833C32.9193 16.5722 33.1319 16.5392 33.2945 16.4862C33.4572 16.4332 33.5666 16.3612 33.6163 16.2746L32.9576 15.987C32.8542 15.9736 32.7515 15.962 32.6501 15.9522L27.183 16.1594L26.6415 16.1651C26.0481 16.148 25.9031 16.1056 25.3402 15.7723C26.6248 15.6939 27.6347 15.4654 28.2691 15.1096C28.1167 15.0713 27.9603 15.0385 27.8038 15.0118C26.7772 14.9277 25.8067 14.9053 24.9297 14.9456C24.4088 14.9496 23.8732 14.9387 23.3357 14.9332C23.4929 14.7692 24.0952 14.8181 24.4877 14.7811C25.4257 14.7232 26.2551 14.6037 26.9494 14.4263C27.1888 14.3571 27.4883 14.3129 27.8342 14.2956C28.1804 14.2897 28.4695 14.2478 28.6765 14.1737C28.8835 14.0996 29.0021 13.9954 29.0218 13.8703C29.0544 13.757 29.1247 13.6517 29.2316 13.556C29.0425 13.4202 28.7423 13.2902 28.3872 13.1904C28.0322 13.0905 27.6467 13.0276 27.3032 13.0136C26.5699 12.9577 25.8092 12.8662 25.0407 12.7414C24.6578 12.6784 24.2824 12.6423 23.9388 12.6353C23.6358 12.63 23.2914 12.5845 22.9581 12.5059C22.6249 12.4272 22.321 12.3198 22.093 12.1998C21.7851 12.0515 21.4978 11.9016 21.2105 11.7517C20.9233 11.6018 20.5899 11.4123 20.2546 11.2284C19.9589 11.1996 19.6709 11.1811 19.3947 11.1732C19.1798 11.1799 18.929 11.1599 18.6719 11.1154C18.4148 11.0709 18.1622 11.0039 17.9439 10.9222C18.0719 10.8416 18.2167 10.7705 18.3692 10.6771C18.1599 10.5538 18.0081 10.428 17.9231 10.3075C17.8381 10.187 17.8217 10.0742 17.8749 9.97606C17.906 9.88704 17.6785 9.73772 17.5998 9.61968C17.4986 9.51792 17.4796 9.42295 17.5453 9.34723C17.6109 9.27151 17.7583 9.21858 17.9679 9.19536C18.2279 9.1525 18.4395 9.08797 18.5941 9.00441C18.6452 8.98271 18.6712 8.953 18.6698 8.91799C18.6683 8.88298 18.6394 8.8438 18.5858 8.80401C18.5321 8.76422 18.4553 8.7251 18.3625 8.69023C18.2697 8.65536 18.1638 8.62586 18.0545 8.60441C17.7197 8.54361 17.3872 8.5042 17.076 8.48845C16.54 8.45946 16.0269 8.44126 15.5366 8.43383C14.9945 8.42265 14.3913 8.35363 13.7883 8.23379C13.2485 8.1204 12.7645 8.01874 12.5006 7.80205C12.2366 7.58536 11.8146 7.59227 11.4901 7.43452C11.6724 7.29233 11.9964 7.19353 12.4294 7.1481C12.7128 7.13188 12.9493 7.08932 13.1238 7.02314C13.2983 6.95695 13.407 6.86861 13.4429 6.76379L12.4577 6.32394C11.6709 6.11686 11.2355 6.27624 10.3854 6.19321L11.2614 6.03084C11.279 6.01479 11.2855 5.99594 11.2808 5.9752C11.1958 5.6468 11.0604 5.57657 10.165 5.39445L9.66246 5.28889L8.86704 5.1636C8.73965 5.0963 8.65155 5.02612 8.61152 4.96007C8.57148 4.89401 8.58092 4.83442 8.63892 4.78723C8.75546 4.70788 8.79089 4.60647 8.74196 4.49236C8.66481 4.41676 8.65845 4.34708 8.72396 4.29539C8.78947 4.2437 8.92272 4.21326 9.1006 4.20938C9.24256 4.20337 9.2531 4.116 9.33033 4.06653C9.40707 3.99835 9.5384 3.94603 9.71539 3.91313C9.89238 3.88024 10.1108 3.86753 10.356 3.87589C11.0787 3.88271 11.7576 3.85712 12.3807 3.79956L12.269 3.7761C12.9184 3.82663 13.5256 3.83276 14.0609 3.79419C14.5974 3.74563 15.2858 3.77678 15.8556 3.74717C16.3195 3.75396 16.6726 3.68676 16.8402 3.55984C17.0024 3.43864 17.5919 3.46693 18.0434 3.4901C18.3108 3.50508 18.5693 3.51143 18.816 3.50907C19.1472 3.48164 19.5613 3.5075 19.9892 3.58233C20.1176 3.60533 20.2441 3.6175 20.3565 3.61768C21.4444 3.64913 22.5304 3.68615 23.6036 3.70256C23.8513 3.69311 24.1418 3.71476 24.4409 3.76498C24.5667 3.78679 24.689 3.79582 24.7916 3.79087C26.4874 3.74099 28.4009 3.86824 30.0634 3.79942C30.2649 3.78317 30.488 3.77979 30.7263 3.78937C31.2618 3.8298 31.7269 3.80378 32.0509 3.71527C32.2257 3.66819 32.4498 3.64225 32.7089 3.6391C32.968 3.63595 33.2565 3.65565 33.5558 3.69696C34.054 3.75166 34.5144 3.75759 34.8885 3.71413C35.6178 3.67398 36.3849 3.65747 37.1835 3.66473C37.4282 3.67176 37.6433 3.65615 37.8122 3.61913C37.9811 3.58211 38.0991 3.52465 38.1572 3.45123C37.9611 3.32642 37.7466 3.31123 37.543 3.3222C36.7537 3.29376 35.9664 3.25976 35.1918 3.24635C34.4985 3.20807 33.8333 3.19636 33.206 3.21142C32.8945 3.22839 32.5058 3.18968 32.1247 3.10372C31.6577 2.99486 31.1767 2.94078 30.7789 2.95241C30.4841 2.9553 30.1728 2.94593 29.8496 2.92442C29.6428 2.89849 29.4308 2.85395 29.2354 2.79539C29.1578 2.76996 29.0734 2.74857 28.9876 2.7326C28.9017 2.71664 28.8164 2.70645 28.7368 2.70267C28.6573 2.69889 28.5853 2.7016 28.5257 2.71065C28.466 2.7197 28.4199 2.73489 28.3903 2.75523C28.0911 2.92529 27.4221 2.8385 26.8492 2.81969C25.9908 2.53186 25.3518 2.70222 24.5495 2.53965C24.486 2.52888 24.4235 2.52235 24.3658 2.52048C24.308 2.51862 24.2562 2.52146 24.2136 2.52881C22.6609 2.62666 20.8512 2.54512 19.221 2.57891C19.0412 2.58385 18.8325 2.56691 18.6187 2.53002C17.2211 2.28588 15.8774 2.21657 14.8503 2.33565C14.7253 2.34637 14.5832 2.34683 14.4303 2.33699C13.728 2.23996 13.0565 2.20127 12.4717 2.22416C11.5552 2.21677 10.6739 2.22276 9.74269 2.20034C9.10076 2.16842 8.53761 2.20252 8.10967 2.29923C8.09606 2.33817 7.811 2.29621 7.59263 2.29214C7.46705 2.1941 7.35817 2.10554 7.2287 2.01862C7.11296 1.91109 6.93958 1.80228 6.72038 1.69956C6.50117 1.59685 6.24128 1.50263 5.9582 1.42329C5.47424 1.32162 5.42584 1.1741 5.76449 1.11983C6.63736 0.940263 7.73496 0.86677 8.97658 0.90474C10.0145 0.907775 11.0711 0.914726 12.1237 0.932799C12.7377 0.948303 13.385 0.982739 13.9823 0.98877C14.1838 1.00202 14.3909 1.02154 14.6012 1.04713C14.8594 1.08424 15.11 1.10445 15.3397 1.1067C16.0771 1.07545 16.9 1.10267 17.7692 1.18706C18.0876 1.20547 18.3933 1.21167 18.6818 1.20558C19.3644 1.18267 20.1043 1.19953 20.8821 1.25571C21.3655 1.28738 21.8343 1.30395 22.2835 1.30522C22.4421 1.30868 22.5713 1.28207 22.7241 1.30222C24.069 1.51308 25.0213 1.36078 26.2318 1.44186C26.8201 1.46446 27.3822 1.46453 27.9101 1.44205C28.9403 1.44314 29.9993 1.46626 31.0828 1.51131C32.5155 1.58532 33.8431 1.55964 35.2111 1.5902C35.4811 1.59662 35.7419 1.59553 35.9915 1.58692C37.2055 1.53004 38.5241 1.5421 39.9151 1.62281C40.2309 1.63447 40.5146 1.62021 40.7484 1.58094C40.9821 1.54167 41.1609 1.47823 41.2736 1.39458C41.3212 1.33718 41.2903 1.26261 41.1869 1.18527C41.0152 1.08651 40.8213 0.989735 40.6084 0.896554L32.8654 0.583879C32.5402 0.56755 32.223 0.558761 31.9155 0.557545C31.0112 0.554828 30.0791 0.530503 29.1238 0.484692C28.1797 0.441663 27.2779 0.449302 26.3633 0.436346C26.094 0.432007 25.8174 0.421767 25.5349 0.405657C23.6253 0.278155 21.7633 0.200278 19.9619 0.172586C19.204 0.168655 18.3853 0.110139 17.6127 0.091173C16.8401 0.072205 15.7835 0.0652602 14.867 0.0578685L12.0294 0.0590032C11.4713 0.0552305 10.9279 0.0664908 10.3864 0.0721901C9.72932 -0.334572 9.50289 -0.429913 8.62609 -0.608122C8.32613 -0.673859 8.02101 -0.713089 7.74653 -0.721217C6.87613 -0.689061 5.78402 -0.822916 4.95863 -0.805196C4.46058 -0.813936 4.03796 -0.76875 3.73404 -0.674258C3.47021 -0.600101 3.16853 -0.541422 2.83363 -0.49911C1.91625 -0.847084 1.8354 -1.07308 2.52548 -1.16103C2.71245 -1.18148 2.96998 -1.17515 3.105 -1.21845C3.18247 -1.24483 3.2883 -1.25991 3.41405 -1.26251C3.53981 -1.26512 3.68201 -1.25519 3.82951 -1.23348C4.29504 -1.17653 4.73136 -1.16314 5.09472 -1.19465C5.43668 -1.23634 5.85584 -1.23468 6.3118 -1.18981C6.64686 -1.11943 6.94135 -1.21881 7.23111 -1.24752C7.52087 -1.27623 7.75866 -1.32781 8.21123 -1.25066C8.2941 -1.2353 8.37638 -1.22607 8.45174 -1.2237C8.52711 -1.22133 8.59357 -1.22586 8.64601 -1.23696C9.13209 -1.28665 9.71213 -1.28143 10.339 -1.22173C11.3005 -1.16298 12.2027 -1.16077 13.0141 -1.21519C13.4999 -1.26281 13.914 -1.34725 14.2404 -1.46522C14.3293 -1.50467 14.4614 -1.52833 14.624 -1.53393C15.4405 -1.50931 16.327 -1.41668 17.2264 -1.26199C17.5652 -1.20001 17.9036 -1.15099 18.2343 -1.11596C18.914 -1.03815 19.5714 -0.994544 20.1871 -0.986443C21.0817 -0.985158 22.0131 -0.955219 22.973 -0.896899C23.5655 -0.864424 24.1363 -0.85244 24.6788 -0.861073C25.2364 -0.865142 25.8317 -0.84037 26.4513 -0.787337C27.0675 -0.744118 27.6105 -0.769019 28.0148 -0.859025C28.148 -0.907527 28.2552 -0.965122 28.3346 -1.03073C27.4324 -1.24424 26.4994 -1.35274 25.7233 -1.3344C25.4286 -1.34854 25.1838 -1.33427 24.8732 -1.41743L24.8635 -1.38961C24.8017 -1.37156 24.7084 -1.3673 24.6015 -1.37765C24.4946 -1.38799 24.3815 -1.41222 24.2837 -1.44571C24.3206 -1.55142 24.3556 -1.65156 24.3809 -1.72389C24.9722 -1.71113 25.5463 -1.71216 26.1003 -1.72699C26.5673 -1.74833 27.2013 -1.56141 27.6055 -1.63177C28.394 -1.54379 28.896 -1.66527 29.603 -1.63022C30.3101 -1.59516 31.0888 -1.47936 31.7959 -1.4443C32.4128 -1.42507 33.0119 -1.42089 33.5897 -1.43178C33.7891 -1.44707 34.0191 -1.44348 34.2653 -1.42124C34.6116 -1.37938 34.9336 -1.37237 35.1945 -1.40101C35.4554 -1.42964 35.6446 -1.49277 35.7405 -1.58315C35.6502 -1.66781 35.5286 -1.77697 35.3882 -1.89005C35.6464 -1.98297 36.0384 -2.02209 36.5061 -2.0016L37.1671 -2.00609C37.3422 -2.00364 37.4761 -2.02876 37.541 -2.07625C37.606 -2.12374 37.597 -2.18997 37.516 -2.26125C36.2627 -2.62006 36.2166 -2.65962 35.2968 -2.42882L34.0755 -2.53607L34.096 -2.53772ZM50.6151 -1.55208L50.522 -1.57162L50.6151 -1.55208ZM202.813 36.6232L202.791 36.6844L202.815 36.6177L203.019 36.6607L203.033 36.6217L202.813 36.6232ZM173.084 9.79924C172.795 9.73247 172.503 9.67109 172.21 9.61547C172.133 9.60684 172.061 9.60489 172 9.60979C171.939 9.61468 171.891 9.62627 171.86 9.64357C171.837 9.71033 172 9.75665 172.149 9.78793C172.337 9.83004 172.529 9.85679 172.705 9.86544C172.881 9.87409 173.035 9.86432 173.151 9.83714L173.319 9.81278L173.084 9.79924ZM24.0191 26.0711C24.2097 26.0824 24.3904 26.0842 24.5568 26.0766C25.2949 26.0226 26.0016 25.9441 26.7584 25.8941C27.7132 25.767 28.8104 25.7153 30.0088 25.7408C30.477 25.7532 30.8726 25.7121 31.1493 25.622C31.3149 25.5737 31.5288 25.5455 31.7777 25.539L34.9459 25.3924C35.1417 25.3619 35.311 25.3192 35.4498 25.2653C35.1706 25.2067 34.9845 25.1676 34.8728 25.1441C34.6411 25.1375 34.4419 25.1554 34.2952 25.196C34.1377 25.2647 33.8714 25.2919 33.5493 25.2722C33.2241 25.2558 32.9069 25.2471 32.5994 25.2458C32.0188 25.2493 31.4342 25.2638 30.8517 25.2729C30.625 25.4641 29.956 25.3773 29.3831 25.3585L28.9406 25.3671C27.4939 25.4662 26.1121 25.6026 24.8017 25.7757C24.5485 25.8049 24.3303 25.8516 24.1539 25.9143C24.0874 25.9632 24.0661 26.0241 24.0917 26.0923L23.9986 26.0728L24.0191 26.0711ZM88.6191 44.3587C88.9701 44.3718 89.3356 44.3985 89.7101 44.4386C89.9987 44.4796 90.2803 44.5044 90.5436 44.5122C92.0191 44.5551 93.5567 44.6541 95.1356 44.8079C95.342 44.8312 95.5405 44.8426 95.7232 44.8418L97.0156 44.8027C97.4229 44.7808 97.4306 44.7585 97.1342 44.4633C96.8881 44.406 96.6393 44.3538 96.3896 44.3069C96.2407 44.2756 95.9988 44.2248 95.9421 44.2726C95.5968 44.4031 94.967 44.3186 94.4372 44.2909C92.9036 44.2196 91.322 44.1143 89.7737 44.028C89.4464 44.0069 89.1293 43.9962 88.8258 43.9961C88.6374 43.9916 88.4657 44 88.3177 44.0207C88.2744 44.0228 88.2382 44.029 88.2115 44.0388C88.1847 44.0487 88.168 44.0619 88.1625 44.0777C88.1569 44.0935 88.1628 44.1114 88.1795 44.1304C88.1962 44.1494 88.2234 44.1689 88.2594 44.1876C88.3861 44.2533 88.5324 44.3163 88.6936 44.3744L88.6191 44.3587ZM99.8532 1.51702L101.364 1.48202C101.545 1.47826 101.699 1.43887 101.893 1.45572C102.927 1.50911 103.885 1.49424 104.725 1.41174C105.011 1.37807 105.346 1.37134 105.711 1.39191C106.829 1.45288 107.883 1.45539 108.846 1.39937C109.468 1.38812 110.05 1.35036 110.583 1.28664C110.624 1.27185 110.65 1.25177 110.658 1.22776C110.667 1.20376 110.658 1.1764 110.632 1.14755C110.625 1.12932 110.607 1.10972 110.578 1.09008C110.55 1.07045 110.512 1.05125 110.466 1.03381C110.421 1.01637 110.37 1.00111 110.317 0.989076C110.263 0.977039 110.208 0.968507 110.157 0.964081C109.482 0.877828 108.843 0.84778 108.289 0.876375C107.776 0.91059 107.223 0.920601 106.64 0.906253C106.082 0.902479 105.703 1.01404 105.014 0.928915C104.722 0.900885 104.465 0.910112 104.285 0.955056C103.924 1.02955 103.42 1.03369 102.863 0.966748C102.529 0.932868 102.211 0.918339 101.919 0.923716C101.211 0.948208 100.534 0.997209 99.8784 1.04456C99.6718 1.05551 99.4503 1.05702 99.2175 1.04906L95.9332 0.956342C95.1439 0.927903 94.3566 0.893898 93.582 0.880495C92.9486 0.85139 92.3591 0.860506 91.8343 0.907516C91.2748 0.956927 90.6646 0.976986 90.0152 0.967316C89.0067 0.994355 88.004 1.0047 86.9064 1.00106C86.2063 1.0033 85.4896 0.996068 84.7581 0.973793C84.388 0.945127 84.0738 0.968473 83.876 1.03933C83.7557 1.09767 83.4726 1.05014 83.2376 1.03661C81.9839 0.906113 80.8083 0.875193 79.7927 0.945999C79.663 0.957537 79.5206 0.961714 79.3687 0.95846C78.3905 0.956027 77.377 0.940213 76.438 0.940037C76.1908 0.945538 75.9581 0.960633 75.7429 0.985132C75.766 1.0251 75.8317 1.06842 75.9264 1.10611C76.0211 1.14379 76.1376 1.17296 76.2516 1.18754C77.1397 1.29921 77.9973 1.35819 78.7881 1.36203C80.1046 1.34781 81.4835 1.37979 82.9106 1.45763C84.018 1.53611 85.0277 1.51959 85.8647 1.40929C86.5189 1.32699 87.3699 1.35796 88.2717 1.49687C88.6575 1.56321 89.0321 1.58974 89.344 1.57282C89.6443 1.55064 89.9888 1.55602 90.3575 1.58864C91.1348 1.65068 91.8822 1.67946 92.5853 1.67442C93.2726 1.65158 93.9138 1.58919 94.6198 1.57026C95.3257 1.55133 96.4008 1.56218 97.2712 1.53002C98.1416 1.49787 99.0023 1.49354 99.8532 1.51702ZM37.2529 -1.73723C37.3327 -1.56521 37.615 -1.45813 37.9187 -1.41226C38.9656 -1.20859 40.0006 -1.12191 40.8499 -1.16679C41.3087 -1.22939 41.9203 -1.2053 42.5646 -1.09924C43.3148 -0.988985 44.0159 -0.970701 44.5445 -1.04761C44.6741 -1.06105 44.7732 -1.08945 44.8332 -1.1303C44.8449 -1.16368 44.8662 -1.22488 44.8701 -1.23601C44.8146 -1.26422 44.7465 -1.29037 44.671 -1.31243C44.5956 -1.33449 44.5149 -1.35187 44.4351 -1.36323L40.9674 -1.56014L40.3631 -1.60348C39.2593 -1.717 38.2076 -1.76223 37.2529 -1.73723ZM44.0739 0.985513C44.6151 1.26641 44.617 1.26084 44.8943 1.32505C46.2319 1.59178 47.5687 1.73576 48.7454 1.73987C49.007 1.73905 49.2289 1.71194 49.3925 1.6608C49.4767 1.65387 49.5302 1.63185 49.5415 1.59954C49.5528 1.56723 49.5209 1.52726 49.4528 1.48833L49.0224 1.29044C48.2408 1.20476 47.4705 1.13669 46.716 1.08663C45.8375 1.02751 45.059 1.02523 44.1483 1.00115L44.0739 0.985513ZM88.5543 43.1149C89.0585 43.5015 89.0605 43.4959 89.9048 43.5957C90.4932 43.6663 91.0638 43.7078 91.6 43.7189C92.2551 43.7311 92.9269 43.7527 93.58 43.7705C93.7395 43.7828 93.8747 43.7726 93.9593 43.7418C94.0439 43.711 94.0719 43.6619 94.0379 43.6039C93.9522 43.541 93.8181 43.4801 93.6574 43.4312C93.4968 43.3823 93.319 43.3482 93.153 43.3344L92.7965 43.3252C92.3637 43.306 91.9142 43.2772 91.4961 43.273C91.2248 43.289 90.9105 43.2766 90.5777 43.2368C90.245 43.1969 89.9029 43.1307 89.5783 43.0433L88.5543 43.1149ZM46.7668 -1.23174C46.9015 -1.16479 47.0537 -1.10066 47.2196 -1.04107C47.8619 -0.875898 48.5417 -0.782087 49.1258 -0.778026C49.4019 -0.767795 49.6544 -0.804328 49.9356 -0.751241C50.4399 -0.680302 50.9285 -0.642512 51.3753 -0.639922C51.3753 -0.639922 51.5006 -0.655411 51.5417 -0.658719L51.6272 -0.903515C51.4157 -0.960225 51.1952 -1.00655 50.9757 -1.04037C50.2392 -1.1055 49.5155 -1.15002 48.7937 -1.20011C48.072 -1.25021 47.8203 -1.27322 47.3483 -1.29473C47.1377 -1.2829 46.943 -1.2618 46.7668 -1.23174ZM30.8177 29.2012L31.7815 29.7023C32.0934 29.7458 32.3847 29.7537 32.6112 29.7247C32.8378 29.6958 32.987 29.6316 33.0363 29.5418C33.1157 29.4999 33.1236 29.4377 33.0585 29.3683C32.9933 29.299 32.8601 29.2278 32.6868 29.1698C32.52 29.1011 32.3296 29.0394 32.1273 28.9887C31.9251 28.938 31.7153 28.8994 31.5111 28.8751L30.8177 29.2012ZM38.8423 26.7065C38.212 26.6216 37.609 26.5868 37.0796 26.605C36.7461 26.6547 36.2941 26.6388 35.8164 26.5606C34.9477 26.4047 34.1102 26.3616 33.4808 26.4402C33.4808 26.4402 33.4574 26.507 33.3507 26.5264C33.2441 26.5458 33.6672 26.5929 33.7603 26.6124C34.4429 26.6602 35.1293 26.6969 35.7228 26.7141C36.0912 26.7134 36.4809 26.7291 36.8851 26.7612C37.4414 26.8106 37.9689 26.8266 38.447 26.8086C38.447 26.8086 38.6321 26.7937 38.8404 26.7121L38.8423 26.7065ZM106.165 0.60926C105.863 0.514898 105.537 0.438205 105.21 0.38494C104.882 0.331676 104.562 0.303224 104.274 0.30171C104.053 0.296785 103.875 0.3217 103.766 0.372513C103.658 0.423325 103.626 0.497141 103.676 0.58228C103.9 0.6292 104.198 0.69176 104.365 0.72695C104.946 0.723507 105.441 0.67826 106.165 0.60926ZM162.528 8.56113C162.286 8.48517 162.02 8.42709 161.76 8.39353C161.5 8.35997 161.256 8.35228 161.056 8.37134C160.953 8.3796 161.023 8.46592 161.005 8.51599C160.994 8.52734 160.994 8.54146 161.006 8.55687C161.017 8.57228 161.04 8.58841 161.071 8.60357C161.103 8.61873 161.142 8.63236 161.184 8.64304C161.227 8.65371 161.271 8.66104 161.313 8.66426C161.575 8.69698 161.823 8.70672 162.033 8.69261C162.244 8.6785 162.411 8.64098 162.52 8.58339L162.528 8.56113ZM166.304 9.64703C166.267 9.60221 166.187 9.5555 166.08 9.51545C165.973 9.4754 165.846 9.4447 165.721 9.42899C165.501 9.42688 165.301 9.43931 165.129 9.46581C164.942 9.48626 165.076 9.61603 165.329 9.69303C165.436 9.72393 165.551 9.74804 165.663 9.76343C165.776 9.77882 165.884 9.78507 165.978 9.78169C166.072 9.77831 166.15 9.76538 166.206 9.74393C166.262 9.72249 166.295 9.69312 166.3 9.65816L166.304 9.64703ZM56.5704 -0.754974C56.007 -0.915131 55.5733 -0.874839 55.0963 -0.939209C54.6193 -1.00358 54.5018 -1.01035 54.5657 -0.907349C54.6296 -0.804344 54.9566 -0.825235 55.1613 -0.782224C55.438 -0.725152 55.7163 -0.69238 55.9651 -0.687567C56.214 -0.682754 56.4236 -0.706092 56.5704 -0.754974ZM173.977 26.3438C173.678 26.3078 173.386 26.2824 173.104 26.268C173.067 26.2829 173.044 26.3024 173.036 26.3253C173.028 26.3482 173.035 26.3741 173.057 26.4015C173.057 26.4015 173.248 26.4834 173.36 26.5069C173.772 26.5874 173.792 26.4722 173.977 26.3438ZM216.156 41.2654C216.358 41.3735 216.452 41.4471 216.614 41.4989C216.688 41.517 216.765 41.53 216.838 41.5372C216.912 41.5444 216.981 41.5455 217.039 41.5405C217.11 41.5093 217.127 41.4616 217.086 41.4069C217.086 41.4069 216.88 41.31 216.801 41.3054C216.578 41.2825 216.361 41.2691 216.156 41.2654ZM46.9801 -1.67066C46.552 -1.76059 46.1425 -1.84662 45.846 -1.74167C46.5259 -1.62873 46.5259 -1.62872 46.9801 -1.67066ZM53.9142 -0.644071C53.4819 -0.836403 53.2283 -0.853857 53.0207 -0.831757C52.9766 -0.826192 52.9474 -0.813786 52.9376 -0.796424C52.9277 -0.779062 52.9377 -0.757688 52.9661 -0.735532C52.9945 -0.713375 53.0397 -0.691646 53.0949 -0.673627C53.15 -0.65561 53.2122 -0.642283 53.2719 -0.635669C53.4973 -0.630134 53.7124 -0.632945 53.9142 -0.644071ZM76.1639 -0.562742C76.1736 -0.590561 76.1853 -0.623941 76.0736 -0.647401C76.0444 -0.659311 76.0101 -0.669551 75.9741 -0.677102C75.9382 -0.684652 75.9019 -0.689239 75.8689 -0.690406C75.8689 -0.690406 75.8572 -0.657023 75.8495 -0.634769L76.1639 -0.562742ZM91.6147 45.621L91.366 45.6464L91.4777 45.6699L91.7725 45.684L91.6147 45.621ZM179.164 9.21297C179.07 9.19341 178.977 9.17386 178.964 9.21281C178.944 9.21884 178.932 9.22754 178.928 9.23819C178.925 9.24884 178.929 9.26112 178.942 9.27401C178.942 9.27401 179.073 9.30138 179.129 9.31311L179.164 9.21297ZM164.669 9.52444C164.608 9.52221 164.552 9.52482 164.506 9.53211L164.495 9.5655L164.681 9.6046L164.669 9.52444ZM38.3507 17.4781C38.2789 17.4579 38.2027 17.4419 38.1274 17.4312L38.0343 17.4117C38.0343 17.4117 38.1343 17.4685 38.1901 17.4802C38.246 17.492 38.291 17.4775 38.3507 17.4781Z" fill="#F5BD2D"/>
</g>
</svg>
