<svg width="274" height="97" viewBox="0 0 274 97" fill="none" xmlns="http://www.w3.org/2000/svg">
<path fill-rule="evenodd" clip-rule="evenodd" d="M271.64 21.2372L271.805 21.1912C273.204 20.8221 272.409 18.9805 271.242 18.9672C270.793 18.9613 270.473 19.1095 270.263 19.3454C270.411 19.8082 270.543 20.2764 270.658 20.7492L270.935 19.734L272.296 20.5927L271.64 21.2372ZM266.707 10.4545L267.069 11.3637L269.116 16.5153C269.569 17.4293 269.952 18.3753 270.263 19.3454C269.609 20.0828 270.043 21.6774 271.05 22.1026C271.876 22.3868 272.789 22.0628 273.252 21.3213C273.822 20.4016 273.854 19.2463 273.335 18.2967C272.614 16.3303 271.854 14.3742 271.095 12.4178C270.693 11.3813 270.29 10.3447 269.893 9.30646C269.742 8.9088 269.592 8.51062 269.441 8.11234C269.156 7.35913 268.871 6.6055 268.581 5.85418C268.881 5.05728 269.169 4.25518 269.446 3.44812C269.716 2.74912 269.556 1.96224 269.035 1.43317C268.513 0.904097 267.727 0.729608 267.021 0.986384C261.013 2.56561 255.114 4.54447 249.363 6.90959C248.671 7.21181 248.294 7.96643 248.473 8.69207C248.652 9.41771 249.334 9.90063 250.084 9.83279C254.938 8.75912 259.734 7.43176 264.452 5.85655C264.513 5.7091 264.574 5.56153 264.634 5.41384C264.668 5.52925 264.708 5.64345 264.752 5.7561C264.652 5.78969 264.552 5.82318 264.452 5.85655C263.906 7.18163 263.335 8.49663 262.73 9.7955C254.225 30.4078 237.191 46.4292 216.058 53.6916C206.588 56.5675 196.516 56.6378 187.078 53.8937C181.695 52.2224 176.752 49.5818 171.807 46.9401C166.98 44.3611 162.15 41.781 156.907 40.1012C138.318 34.331 118.033 36.8626 101.25 47.0475C92.2632 53.1617 84.3984 60.7801 78.0101 69.5589C71.7651 78.6055 63.1757 85.8076 53.1727 90.3847C35.4045 96.7786 15.6584 91.5799 3.60622 77.335C3.049 76.6505 2.04259 76.5347 1.32839 77.0729C0.61419 77.6111 0.4481 78.6104 0.952474 79.3347C2.35659 81.2304 3.93702 82.9891 5.67318 84.5877C19.9593 97.2806 40.5468 100.229 58.0957 92.0961C68.0605 86.2106 76.6176 78.2109 83.1498 68.6742C86.7423 64.0022 90.7641 59.672 95.1619 55.7411C98.95 52.5204 103.121 49.7788 107.578 47.58C116.489 43.206 126.255 40.891 136.139 40.8096C146.21 40.7827 156.107 43.1879 164.982 47.8193C166.711 48.7 168.42 49.6215 170.13 50.5431C173.633 52.4317 177.138 54.3211 180.817 55.8623C185.589 57.8713 190.652 59.1311 195.829 59.5974C205.996 60.3762 216.227 58.5442 225.546 54.2761C243.939 44.7421 258.447 29.223 266.707 10.4545ZM268.137 4.57011C268.081 4.37717 268.009 4.19024 267.925 4.01069L268.385 4.47957C268.302 4.50983 268.22 4.54 268.137 4.57011ZM266.155 2.20812C266.081 2.17174 266.006 2.13756 265.93 2.10572C265.941 2.07528 265.953 2.04485 265.964 2.0144L266.155 2.20812Z" fill="#E7C4B2"/>
</svg>
