<svg width="30" height="30" viewBox="0 0 30 30" fill="none" xmlns="http://www.w3.org/2000/svg">
<g clip-path="url(#clip0_17_96)">
<path d="M22.0292 14.6123C22.0292 13.4654 22.8972 12.536 23.9677 12.536H24.0108C25.0796 12.536 25.9468 13.4617 25.9493 14.6066C25.9583 18.3523 25.9526 18.7199 25.9473 24.3144C25.9443 27.4557 23.5663 29.9999 20.634 29.9999H14.3383C12.4118 29.9999 10.6357 28.8823 9.69704 27.0798L4.08398 16.2958L4.67035 15.8094C5.88467 14.6933 7.71117 14.8306 8.76762 16.1166L10.3385 18.029L10.3475 4.87269C10.3483 3.72627 11.2163 2.79736 12.2863 2.79736H12.2868C13.3575 2.79736 14.2256 3.72753 14.2256 4.87444V12.8367C14.2511 11.7141 15.1089 10.814 16.1628 10.814H16.2082C17.2789 10.814 18.1469 11.7437 18.1469 12.8906V13.5591C18.1469 12.412 19.0147 11.4826 20.0862 11.4826H20.0907C21.1612 11.4826 22.0292 12.412 22.0292 13.5591V14.6123Z" fill="#FFC727"/>
<path d="M12.2792 0C9.74931 0.00275641 7.6993 2.05302 7.69629 4.58291C7.69629 4.86632 7.92607 5.0961 8.20948 5.0961C8.49289 5.0961 8.72267 4.86632 8.72267 4.58291C8.72267 2.61859 10.3151 1.02639 12.2792 1.02639C14.2433 1.02639 15.8357 2.61859 15.8357 4.58291C15.8357 4.86632 16.0655 5.0961 16.3489 5.0961C16.6323 5.0961 16.8621 4.86632 16.8621 4.58291C16.8591 2.05302 14.8091 0.00275641 12.2792 0Z" fill="#FEDB41"/>
</g>
<defs>
<clipPath id="clip0_17_96">
<rect width="30" height="30" fill="white"/>
</clipPath>
</defs>
</svg>
