<svg width="30" height="30" viewBox="0 0 30 30" fill="none" xmlns="http://www.w3.org/2000/svg">
<g clip-path="url(#clip0_19_65)">
<path d="M27.7494 10.7879L26.2005 9.40479L23.0446 10.6176L22.6152 12.3897L20.9648 19.8764L26.3239 22.211L26.9889 21.3524C27.9065 19.4705 28.4211 17.3559 28.4211 15.1208C28.4211 13.6102 28.1848 12.1547 27.7494 10.7879Z" fill="#FE7D43"/>
<path d="M22.2318 18.9683L20.351 19.8767L15.5156 23.2826L17.6707 28.0907L19.2093 28.4719V28.4725C22.6474 27.1939 25.4141 24.5846 27.0081 21.3131L22.2318 18.9683Z" fill="#EE6161"/>
<path d="M17.3673 23.4198L16.3414 22.7007L10.2103 21.7695L7.26465 26.502L8.62054 28.2097V28.2103C10.3453 28.9522 12.2458 29.363 14.2423 29.363C15.9892 29.363 17.6624 29.0487 19.2091 28.4724V28.4718L17.3673 23.4198Z" fill="#C2A1D5"/>
<path d="M10.4925 21.6482L7.08466 16.2949L1.13867 18.1345V20.7106C2.57379 24.0708 5.26411 26.7671 8.62011 28.21V28.2094L10.7749 23.2821L10.4925 21.6482Z" fill="#8AC9FE"/>
<path d="M2.51772 8.33252L0.90317 10.1217H0.90257C0.319048 11.6774 0 13.362 0 15.1209C0 17.1054 0.406007 18.9945 1.13886 20.7109H1.13946L6.0997 18.6335L6.74823 17.1438L7.13762 9.81609L2.51772 8.33252Z" fill="#75CDD5"/>
<path d="M10.9095 2.2959H8.04075C4.76511 3.88274 2.18933 6.68701 0.902344 10.1216H0.902943L5.92555 12.0419L9.20959 10.3793L13.5526 6.47261L10.9095 2.2959Z" fill="#6CF5C2"/>
<path d="M22.6777 12.39L22.4146 11.2202L19.1725 12.0422L18.9979 13.5385C19.164 14.0356 19.2534 14.5682 19.2534 15.1211C19.2534 15.8864 19.0818 16.6108 18.7754 17.2591L18.8456 18.453L20.9639 19.5802L22.2309 18.9683C22.7922 17.8048 23.1071 16.4999 23.1071 15.1211C23.1071 14.1682 22.956 13.2506 22.6777 12.39Z" fill="#FD6930"/>
<path d="M18.7757 17.2588C18.2282 18.418 17.2494 19.3332 16.0464 19.7974L15.584 20.6673L16.5479 23.1357L17.367 23.4197C19.5038 22.6148 21.2471 21.0094 22.2313 18.968L18.7757 17.2588Z" fill="#E94444"/>
<path d="M16.0465 19.7974C15.487 20.0139 14.8783 20.1326 14.242 20.1326C13.5607 20.1326 12.9118 19.9971 12.3199 19.75L11.3085 19.8596L10.1055 22.3122L10.7751 23.2823C11.8401 23.7357 13.012 23.9864 14.242 23.9864C15.3419 23.9864 16.395 23.7861 17.3671 23.4197L16.0465 19.7974Z" fill="#A274BF"/>
<path d="M9.65531 17.144L8.86399 16.5718L6.28156 17.4667L6.09961 18.6337C7.00098 20.7213 8.68138 22.3927 10.775 23.2827L12.3198 19.7503C11.1318 19.2574 10.1741 18.3188 9.65531 17.144Z" fill="#81CCFF"/>
<path d="M21.0698 2.61988C19.0428 1.51041 16.7159 0.878906 14.2421 0.878906C12.0189 0.878906 9.91512 1.38806 8.04102 2.29603L10.3505 7.15372L12.645 8.18271L19.8643 9.40493L21.965 4.94725L21.0698 2.61988Z" fill="#FEE97D"/>
<path d="M29.9785 9.68748C30.0499 9.89318 29.9359 10.1169 29.7284 10.1816L27.7854 10.788L24.1049 11.9364C23.2821 9.37923 21.4961 7.25444 19.1729 5.99024L21.0428 2.61984L22.0323 0.836294C22.1366 0.647384 22.3765 0.580815 22.563 0.689364C26.003 2.68341 28.6639 5.8721 29.9785 9.68748Z" fill="#FEC165"/>
<path d="M9.23071 15.1208C9.23071 14.5229 9.33506 13.9496 9.52757 13.4182L9.48331 11.3291H7.33424L5.92629 12.0419C5.57126 13.0008 5.37695 14.0383 5.37695 15.1208C5.37695 16.3688 5.63483 17.5562 6.10021 18.6333L9.65591 17.1436C9.38244 16.5253 9.23071 15.8411 9.23071 15.1208Z" fill="#2ABCC8"/>
<path d="M12.1496 7.73468L10.3505 7.15332C8.31564 8.14765 6.7186 9.89941 5.92578 12.0416L9.52707 13.4179C9.96606 12.2029 10.8608 11.2062 12.0057 10.6347V10.6341L12.8307 9.70517L12.1496 7.73468Z" fill="#00F2A6"/>
<path d="M18.4617 7.32167L18.4609 7.32155C17.2064 6.64153 15.7695 6.25537 14.2421 6.25537C12.846 6.25537 11.5254 6.57802 10.3506 7.15375L12.0058 10.6351C12.6787 10.2993 13.4385 10.1091 14.2421 10.1091C15.0913 10.1091 15.8907 10.3202 16.5912 10.6933L17.8525 10.7553L19.0867 9.10984L18.4617 7.32167Z" fill="#FFC727"/>
<path d="M24.105 11.9364L22.6513 12.3898L18.9983 13.5382C18.5899 12.3094 17.6978 11.2813 16.5703 10.6822L18.4347 7.3216L19.173 5.99023C21.4962 7.25443 23.2822 9.37922 24.105 11.9364Z" fill="#FDB441"/>
</g>
<defs>
<clipPath id="clip0_19_65">
<rect width="30" height="30" fill="white"/>
</clipPath>
</defs>
</svg>
