<svg width="376" height="12" viewBox="0 0 376 12" fill="none" xmlns="http://www.w3.org/2000/svg">
<path d="M54.8286 -2.53777L55.7695 -2.69594L53.9385 -2.92272L54.8162 -3.08872C55.6964 -3.0872 56.8368 -2.83847 57.4573 -2.97063C57.5331 -3.09859 56.5747 -3.13966 56.3302 -3.24161C56.1138 -3.34611 55.9372 -3.44993 55.8024 -3.55182C56.2817 -3.55072 56.8087 -3.52608 57.3521 -3.47934C58.0829 -3.40299 58.7997 -3.36587 59.4234 -3.37209C60.6989 -3.35147 61.9311 -3.37204 63.3178 -3.36751L62.8565 -3.67547L64.6436 -3.60343C64.8331 -3.57997 65.0588 -3.6177 65.2449 -3.58867C66.7938 -3.3431 67.4492 -3.47692 68.1927 -3.58788C68.3451 -3.61659 68.5288 -3.63803 68.7387 -3.65163C70.8049 -3.5928 72.668 -3.24858 74.5288 -3.07187C74.879 -3.02676 75.2149 -2.96885 75.5127 -2.90224C76.1598 -2.77276 76.8798 -2.66705 77.6065 -2.59478C78.3333 -2.5225 79.0437 -2.48597 79.6728 -2.48852C81.0639 -2.49138 82.6357 -2.40574 84.2358 -2.23989C84.7117 -2.18526 85.1878 -2.14923 85.634 -2.13407C86.0801 -2.11892 86.4864 -2.12498 86.8269 -2.15189L87.9088 -1.97609C88.3778 -2.04742 88.9724 -2.08656 89.6567 -2.09113C90.3409 -2.09569 91.1005 -2.06559 91.8893 -2.00265C92.7299 -1.93437 93.5837 -1.88834 94.4559 -1.81615C96.2575 -1.67814 98.0109 -1.59374 99.6616 -1.56557C102.12 -1.48207 104.521 -1.41752 107.001 -1.31343C108.553 -1.26319 110.064 -1.23555 111.527 -1.23067C113.279 -1.21102 115.174 -1.11588 117.121 -0.949845C117.029 -0.794065 116.175 -0.840087 115.602 -0.845359C113.754 -0.871251 111.862 -0.938344 109.96 -0.988745C109.104 -1.00842 108.271 -1.01587 107.466 -1.01104C106.121 -1.0175 104.702 -1.05901 103.236 -1.13486C100.918 -1.21832 98.6754 -1.25843 96.5292 -1.2548C96.361 -1.24863 96.2068 -1.2377 96.0693 -1.22218C96.0406 -1.20874 96.035 -1.1918 96.0529 -1.17297C96.0708 -1.15415 96.1117 -1.13406 96.1716 -1.11466C96.2315 -1.09525 96.3084 -1.07717 96.3951 -1.06213C96.4817 -1.0471 96.5752 -1.03562 96.6664 -1.02879C97.5188 -0.92322 98.4343 -0.809833 99.2381 -0.793883C99.2692 -0.792689 99.3023 -0.789968 99.3351 -0.785911C99.3678 -0.781854 99.3994 -0.776562 99.4276 -0.770424C101.227 -0.547552 102.707 -0.585267 104.108 -0.549007C106.436 -0.451008 108.679 -0.405232 110.805 -0.412372C111.126 -0.411887 111.473 -0.399148 111.833 -0.374615C114.059 -0.275166 116.141 -0.264044 117.981 -0.341751C118.738 -0.361439 119.442 -0.405633 120.256 -0.406372C120.757 -0.409414 121.193 -0.437617 121.538 -0.489292C121.884 -0.540968 122.13 -0.615047 122.264 -0.707075C122.607 -0.658623 122.956 -0.615442 123.306 -0.578049C123.515 -0.556668 123.715 -0.550989 123.866 -0.562178C124.018 -0.573365 124.109 -0.600586 124.121 -0.63833C124.184 -0.744038 123.707 -0.797123 123.293 -0.84239C123.543 -0.86506 123.824 -0.878397 124.13 -0.882079C125.854 -0.906234 127.703 -0.877726 129.637 -0.797183C131.139 -0.700774 132.338 -0.779245 133.917 -0.643289C134.107 -0.619829 134.263 -0.654263 134.437 -0.662531C134.892 -0.706069 135.458 -0.715855 136.087 -0.691033C136.716 -0.666211 137.388 -0.607529 138.046 -0.520079C138.866 -0.759 140.636 -0.486054 141.943 -0.461524C142.345 -0.340021 141.883 -0.361381 141.864 -0.328C141.844 -0.294618 141.864 -0.328008 141.706 -0.347558C140.401 -0.175488 138.613 -0.137967 136.593 -0.240269C136.219 -0.239844 135.863 -0.232005 135.528 -0.216827C135.021 -0.195344 134.449 -0.197489 133.838 -0.223167C133.17 -0.242026 132.556 -0.233069 132.026 -0.196729C131.721 -0.19732 131.464 -0.179115 131.277 -0.14379C131.09 -0.108464 130.98 -0.057161 130.958 0.00534752C131.161 0.0535376 131.387 0.0976315 131.626 0.135879C132.874 0.286896 134.118 0.349405 135.114 0.311109C136.847 0.245124 138.91 0.309513 140.754 0.286987C142 0.277861 143.326 0.303854 144.706 0.364482C144.706 0.364482 144.67 0.425681 144.667 0.431244C144.83 0.457742 145.002 0.479001 145.172 0.493805C145.172 0.493805 145.172 0.493806 145.188 0.465988C145.113 0.439274 145.01 0.414144 144.892 0.393506L144.482 0.342674C144.761 0.329445 145.022 0.29006 145.312 0.314124C145.925 0.35883 146.51 0.377703 147.033 0.369623C147.556 0.361542 148.006 0.326669 148.356 0.267099C148.976 0.190751 149.747 0.156032 150.619 0.165182C151.288 0.156846 151.932 0.138932 152.549 0.111527C152.549 0.111527 152.588 0.0447707 152.88 0.00928832C152.604 -0.0344735 152.315 -0.0702093 152.028 -0.0962783C150.779 -0.161407 149.526 -0.220972 148.299 -0.265499C147.847 -0.27031 147.422 -0.262849 147.032 -0.243262C145.952 -0.220342 144.739 -0.252872 143.463 -0.338952C143.463 -0.338952 143.21 -0.370229 143.084 -0.385869C143.442 -0.532624 144.676 -0.385706 145.176 -0.485092C145.48 -0.483283 146.015 -0.470785 145.996 -0.49695C145.955 -0.531864 145.95 -0.5643 145.982 -0.591928C146.014 -0.619558 146.082 -0.641698 146.182 -0.656759C146.281 -0.671821 146.41 -0.679433 146.558 -0.679047C146.706 -0.67866 146.87 -0.67028 147.039 -0.654519C148.444 -0.569256 149.767 -0.545545 150.928 -0.58484C151.368 -0.584083 151.862 -0.558811 152.298 -0.552489C152.566 -0.544874 152.81 -0.549109 153.017 -0.564961C154.073 -0.681703 155.493 -0.690229 157.064 -0.58926C157.824 -0.552957 158.534 -0.548104 159.157 -0.574945C159.6 -0.579748 159.788 -0.496749 160.104 -0.457649L161.445 -0.375225L159.723 -0.271944C160.091 -0.0352604 160.384 0.0427815 160.985 0.0575269C161.862 0.0797935 162.716 0.0898528 163.542 0.0876427C164.154 0.0856968 164.658 0.0347263 165.486 0.125259C165.632 0.140026 165.772 0.144804 165.884 0.138797C166.853 0.0584202 168.02 0.0399737 169.305 0.0847163C169.97 -0.0657922 171.104 0.0805406 172.152 0.198444C172.49 0.0850719 171.877 0.0330304 171.512 -0.0361448C172.388 -0.0290636 173.272 -0.0331079 174.177 -0.0165542C174.449 -0.0225796 174.76 -0.0122712 175.086 0.0135623C175.412 0.0393946 175.743 0.0800438 176.054 0.132333C176.206 0.16612 176.389 0.191547 176.565 0.203339C176.741 0.215128 176.896 0.212378 176.999 0.195657C177.469 0.146343 178.222 0.191763 178.61 0.108463C178.748 0.0893064 178.945 0.086632 179.167 0.100909C179.388 0.115184 179.619 0.145486 179.818 0.186383C179.6 0.199143 179.406 0.219236 179.24 0.24622C178.646 0.333875 178.864 0.480338 179.619 0.693268C180.778 0.681558 181.962 0.684882 183.036 0.644751C183.635 0.608727 184.369 0.619988 185.155 0.677272C185.941 0.734554 186.749 0.835588 187.487 0.969009C187.754 1.02032 188.058 1.05585 188.34 1.06856C188.621 1.08126 188.858 1.07021 189.005 1.0376C189.096 0.999873 189.124 0.95213 189.087 0.898507L188.33 0.804671C188.33 0.804671 188.359 0.754599 188.366 0.743472L189.455 0.735058C190.032 0.734765 190.633 0.749516 191.178 0.745312C191.978 0.717369 192.891 0.732943 193.861 0.791072C194.756 0.850678 195.636 0.895732 196.493 0.925838C197.321 0.956824 197.922 0.858037 198.711 0.84226C199.307 0.830367 199.963 0.843076 200.654 0.879887C201.847 0.945176 202.942 0.945297 203.839 0.880238C204.885 1.23076 205.394 1.28775 206.365 1.19303L206.821 1.16598L206.946 1.24116L207.295 1.22463C207.948 1.2099 208.6 1.19518 209.281 1.18993C210.228 1.22246 211.25 1.30998 212.248 1.44394C212.438 1.4674 212.695 1.5471 212.862 1.60951C213.028 1.67191 213.391 1.86018 213.657 1.98273C213.367 2.07219 213.045 2.15774 212.815 2.26059C212.792 2.27816 212.794 2.29911 212.821 2.32176C212.849 2.34441 212.901 2.36813 212.973 2.391C213.045 2.41388 213.135 2.43527 213.237 2.45347C213.338 2.47166 213.447 2.48616 213.556 2.49578C213.769 2.51652 213.978 2.53035 214.176 2.53669C215.151 2.54763 216.086 2.5395 216.969 2.51238C217.292 2.47411 217.734 2.47048 218.224 2.50205C218.715 2.53363 219.227 2.59861 219.678 2.68669C220.835 2.63381 222.178 2.64943 223.616 2.73246C225.137 2.68196 226.974 2.78409 228.395 2.67344C228.362 2.72908 228.509 2.82486 228.714 2.88005C229.037 2.96388 229.403 3.04157 229.797 3.10982L232.802 3.2431C232.914 3.31162 233.055 3.381 233.221 3.45031C233.336 3.50506 233.534 3.55864 233.776 3.59968C234.017 3.64072 234.282 3.66601 234.514 3.67017C235.112 3.69048 235.614 3.64507 236.327 3.75726C235.229 3.8633 233.748 3.84922 232.148 3.7175C230.645 3.61733 229.199 3.56726 227.865 3.56917C227.424 3.56841 226.845 3.57426 226.707 3.63486C226.402 3.80612 225.605 3.77905 224.675 3.74746C223.944 3.71288 223.277 3.71676 222.728 3.75878C222.179 3.80081 221.763 3.87978 221.516 3.9892C221.453 4.0949 221.603 4.18513 222.244 4.24664L224.911 4.49329C225.304 4.46158 225.677 4.42404 226.028 4.38083C226.62 4.32344 227.35 4.30769 228.163 4.3348C228.976 4.36191 229.849 4.43115 230.714 4.53713C231.156 4.59187 231.597 4.64661 231.918 4.62061C232.199 4.59073 232.458 4.55496 232.693 4.51355C232.74 4.48581 232.759 4.45387 232.749 4.41897C232.919 4.4352 233.089 4.4563 233.254 4.48153C234.571 4.77597 235.59 4.77088 236.517 4.6945C236.767 4.6718 236.958 4.63572 237.212 4.60745C237.466 4.57919 237.556 4.5425 237.787 4.55318C239.627 4.64974 240.157 4.32721 241.708 4.34017C241.784 4.32757 241.831 4.30873 241.845 4.2854C241.858 4.26206 241.839 4.23498 241.787 4.20664C241.678 4.18105 241.551 4.15905 241.419 4.14265C241.286 4.12625 241.152 4.11599 241.03 4.1128C240.316 4.07142 239.685 4.0841 239.246 4.14871C238.935 4.17511 238.606 4.19614 238.26 4.2117L236.707 3.74463C238.212 3.78744 239.635 3.78716 240.943 3.74379C241.229 3.71943 241.712 3.7614 242.114 3.76937L245.07 3.81302C245.678 3.81664 246.196 3.74342 247.044 3.9141C247.044 3.9141 247.604 3.94163 247.753 3.91832C247.902 3.89502 248.564 3.75007 248.959 3.65565C249.418 3.68257 250.052 3.75521 250.338 3.73086C250.837 3.67103 251.268 3.59435 251.625 3.50217L253.411 3.63376C253.409 3.75066 253.344 3.86063 253.217 3.96201C253.077 4.05978 253.082 4.17714 253.231 4.30449C253.379 4.43185 253.667 4.56558 254.07 4.69477L255.834 5.37897C256.121 5.42479 256.428 5.45563 256.712 5.46731C256.996 5.47899 257.244 5.47094 257.421 5.44425C258.18 5.36501 259.03 5.30308 259.789 5.22384C260.767 5.34505 260.516 5.54083 261.227 5.71256L263.532 5.99799C263.883 6.26249 264.241 6.51587 263.172 6.60442C262.96 6.6199 263.103 6.72126 262.909 6.7629C263.74 6.9614 264.654 7.02082 265.496 7.14308C265.829 7.231 266.106 7.32408 266.316 7.4178C266.547 7.55893 267.014 7.70308 267.618 7.81915C268.221 7.93521 268.912 8.01386 269.541 8.03812C270.596 8.11242 271.677 8.22402 272.734 8.36792C273.095 8.41796 273.466 8.45442 273.823 8.47484C274.179 8.49526 274.512 8.49916 274.799 8.48629C275.822 8.46364 276.688 8.38572 277.34 8.25762C277.986 8.14891 278.855 8.09652 279.871 8.10519C281.607 8.32024 281.957 8.64429 283.008 8.9297L281.193 8.9617C281.127 9.07298 281.247 9.21327 280.503 9.2107C279.759 9.20814 280.137 9.3146 280.378 9.42212C280.463 9.4762 280.629 9.53183 280.847 9.5796C281.066 9.62737 281.324 9.66432 281.578 9.68422L283.123 9.82183C283.671 9.87421 284.201 9.89657 284.656 9.88647C285.11 9.87637 285.471 9.8342 285.699 9.76458C285.96 9.69848 286.321 9.65376 286.759 9.63318C287.318 9.57926 287.777 9.49906 288.12 9.39562L290.301 9.54632C290.394 9.44238 290.694 9.36949 291.15 9.33999C291.605 9.31049 292.189 9.32618 292.803 9.38441L294.273 9.47692C295.908 9.57784 296.266 9.54461 296.745 9.25155L294.785 8.72809C295.07 8.59021 295.345 8.46901 295.62 8.34782C295.132 8.17536 294.48 8.01225 293.731 7.87504C293.033 7.72761 292.314 7.58482 291.579 7.44722C290.781 7.30661 289.939 7.18435 288.948 7.02584C288.775 6.97457 288.524 6.88374 288.203 6.79622C287.882 6.71117 287.547 6.6278 287.199 6.54644C287.265 6.43517 287.324 6.33503 287.198 6.20586C287.808 6.24708 288.438 6.31916 289.031 6.41561C289.625 6.51207 290.163 6.62986 290.598 6.75837C290.671 6.78115 290.76 6.80256 290.86 6.82114C290.961 6.83971 291.069 6.85503 291.178 6.86604C292.249 6.945 292.762 7.10995 293.286 7.3122C293.638 7.41559 294.093 7.50741 294.587 7.57491C295.534 7.69221 296.461 7.8429 297.367 7.97298C297.644 8.01633 297.932 8.05201 298.219 8.07855C299.166 8.16294 300.119 8.28094 301.029 8.42655C301.326 8.46355 301.611 8.51253 301.861 8.56938C302.11 8.62622 302.316 8.68929 302.462 8.75331C302.237 8.82345 302.115 8.912 302.105 9.01359C302.065 9.08036 302.73 9.21645 303.044 9.3151C303.358 9.41375 302.742 9.36727 302.533 9.37719C301.674 9.39627 301.515 9.43627 302.029 9.65521C302.201 9.72406 302.315 9.79294 302.364 9.85758C302.413 9.92222 302.397 9.98125 302.315 10.031C302.193 10.2368 301.822 10.4059 301.567 10.6072C301.963 10.7398 302.624 10.8815 302.696 11.0457C302.731 11.0821 302.804 11.1207 302.911 11.1587C303.017 11.1966 303.154 11.233 303.312 11.2652C303.727 11.3347 304.105 11.4178 304.416 11.5081C304.727 11.5984 304.962 11.6934 305.104 11.7858C305.151 11.824 305.263 11.8646 305.418 11.8993C305.574 11.9341 305.761 11.9605 305.942 11.9732C306.159 11.9888 306.353 11.9868 306.484 11.9674C306.615 11.9481 306.674 11.913 306.647 11.8694C306.653 11.7875 306.624 11.7021 306.562 11.614C306.598 11.5528 306.634 11.4916 306.491 11.3902C307.138 11.4272 307.817 11.5013 308.455 11.6046C309.093 11.7078 309.665 11.8361 310.109 11.9757C310.599 12.12 311.052 12.2716 311.595 12.4405C311.483 12.6296 311.483 12.6296 312.641 12.9641L318.779 13.1272L320.037 13.3487C321.211 13.5418 321.49 13.5285 322.226 13.4287L322.723 13.3349C323.764 13.4639 324.964 13.6125 325.616 13.3707C325.827 13.5283 325.965 13.5812 325.917 13.6051C325.606 13.8377 325.066 14.035 324.317 14.1893C324.126 14.2254 323.992 14.2804 323.77 14.3126C323.053 14.4942 322.886 14.7748 323.305 15.097C323.512 15.2396 323.814 15.3857 324.2 15.5304C323.635 15.7313 322.887 15.8977 321.975 16.0252C321.202 16.1239 320.564 16.256 320.082 16.4178C319.649 16.581 319.001 16.7036 318.174 16.7787C317.755 16.8106 317.448 16.8736 317.286 16.9614C317.238 17.199 317.349 17.4534 317.617 17.7189C317.667 17.7997 317.81 17.887 318.035 17.9739C318.26 18.0608 318.56 18.145 318.912 18.2198C318.912 18.2198 319.082 18.2766 319.164 18.3106C319.232 18.5984 318.977 18.852 318.418 19.0543C318.326 19.1118 318.139 19.1532 317.875 19.1743C317.612 19.1954 317.283 19.1952 316.924 19.1739C316.165 19.1396 315.456 19.1353 314.722 19.1161C313.93 19.0888 313.234 19.1103 312.704 19.1782C312.175 19.2462 311.833 19.358 311.714 19.502C311.706 19.5428 311.683 19.5819 311.645 19.6189C311.622 19.638 311.61 19.6584 311.608 19.6801L313.294 20.1516L311.387 20.3394C311.275 20.5286 312.191 20.642 312.65 20.7824L312.366 20.8608C312.001 20.9051 311.509 20.8203 311.063 20.7711L310.621 20.7164L310.569 20.8054C310.294 20.9266 309.29 20.7903 308.898 20.8792C308.507 20.9681 308.786 21.0684 309.373 21.1649C309.781 21.2367 310.219 21.2939 310.654 21.3323C311.089 21.3706 311.51 21.3892 311.885 21.3864C312.109 21.3769 312.295 21.3552 312.431 21.3227C313.223 21.1841 314.097 21.0649 315.048 20.9661C315.777 20.8773 316.69 20.8395 317.723 20.8554C318.026 20.8487 318.392 20.8698 318.756 20.9148C319.119 20.9599 319.458 21.026 319.712 21.1018L320.247 21.1142C320.247 21.1142 320.54 21.1923 320.498 21.2051C320.295 21.4363 320.531 21.719 321.173 22.0112L320.615 22.0377C319.817 22.0106 320.323 22.1867 320.204 22.2734C319.637 22.257 318.901 22.1838 318.633 22.2939L318.231 22.2859L318.389 22.3054L318.58 22.2693L319.329 22.4339C318.974 22.4615 318.717 22.4954 318.403 22.5102C318.23 22.5232 318.092 22.546 317.997 22.5775C317.903 22.6089 317.854 22.6482 317.854 22.6931C317.855 22.7621 317.762 22.8202 317.583 22.8618C317.404 22.9034 317.145 22.9272 316.832 22.9308C316.458 22.9323 316.245 23.0073 316.025 23.0339L316.977 23.4862C316.977 23.4862 316.504 23.4276 316.762 23.5073L316.795 23.4517L317.371 23.5649C317.787 23.6641 318.078 23.6882 318.323 23.6171C318.569 23.546 318.513 23.6406 318.63 23.6133C318.587 23.6857 318.32 23.7362 318.091 23.7795C317.827 23.8135 317.528 23.8385 317.2 23.8542C317.791 24.1722 317.819 24.1817 316.956 24.2659C316.093 24.3501 316.39 24.4766 315.668 24.4946C314.946 24.5126 315.767 24.7278 316.251 24.7698C316.609 24.7974 316.974 24.8403 317.322 24.8957C317.669 24.9511 317.99 25.0176 318.263 25.0907L318.118 25.3355C317.905 25.3152 317.692 25.2889 317.487 25.2573C316.787 25.1228 316.15 24.9962 315.528 25.0744L315.824 25.2604L313.652 25.1526C313.708 25.292 314.039 25.4508 314.575 25.5954C314.494 25.6749 314.445 25.7585 314.427 25.8458C314.391 25.907 314.176 25.8685 314.037 25.8751C313.539 25.8853 313.131 25.9268 312.848 25.9959C312.564 26.0649 312.415 26.1594 312.413 26.2711C312.356 26.3657 313.121 26.562 313.6 26.5555C314.794 26.5744 316.085 26.6471 317.403 26.7698C318.207 26.7858 318.321 26.5371 319.643 26.7069C319.67 26.8217 319.5 26.9147 319.161 26.9717C318.821 27.0288 318.33 27.0469 317.762 27.0232C318.085 27.2782 319.875 27.3447 319.955 27.6113C319.509 27.5925 319.032 27.5482 318.572 27.4828C318.111 27.4174 317.683 27.3331 317.329 27.2384C317.253 27.215 317.157 27.1935 317.05 27.1758C316.944 27.1581 316.83 27.1448 316.72 27.137C316.61 27.1293 316.506 27.1275 316.419 27.1317C316.332 27.1359 316.265 27.146 316.223 27.1611C316.471 27.2575 316.743 27.3689 317.054 27.4731C317.365 27.5773 317.44 27.6224 317.665 27.6442C319.338 27.8515 320.133 28.2247 321.581 28.4697C321.96 28.5166 322.007 28.6657 321.678 28.6489C321.365 28.632 321.082 28.6342 320.86 28.6553C320.638 28.6763 320.486 28.7153 320.421 28.768C320.179 28.8294 319.876 28.8783 319.522 28.9134C321.006 29.2964 322.776 29.6348 324.666 29.8968C325.024 29.9486 325.397 29.9802 325.731 29.9869C326.786 29.9873 327.905 30.0177 329.066 30.0775C329.478 30.0938 329.858 30.0923 330.187 30.073C331.264 30.0273 332.12 30.1273 332.902 30.4093L334.196 30.8562C334.153 30.9285 333.936 31.0091 333.769 31.1198L334.779 31.3584L342.492 30.8088L344.041 31.341L346.261 31.3114C346.431 31.3267 346.602 31.3479 346.766 31.3739C347.215 31.5311 347.566 31.682 348.054 31.832C348.541 31.9819 349.411 32.0001 350.018 32.1768C350.625 32.3535 351.233 32.3571 351.984 32.4621C352.054 32.5988 351.982 32.7219 351.77 32.8237C351.7 32.9405 351.319 33.0127 351.253 33.124C351.26 33.2364 351.118 33.3319 350.84 33.4017C350.562 33.4716 350.156 33.5136 349.66 33.5239C348.27 33.7634 346.595 33.9339 344.684 34.0303C344.516 34.0373 344.376 34.0535 344.275 34.0778C344.173 34.1022 344.11 34.1342 344.091 34.1719C344.094 34.2811 343.967 34.3754 343.718 34.448C343.47 34.5206 343.107 34.5696 342.657 34.5914C342.537 34.5958 342.446 34.6095 342.396 34.6308C342.225 34.6446 342.101 34.6709 342.035 34.7072C341.968 34.7435 341.963 34.7886 342.019 34.8382C342.075 34.8877 342.19 34.94 342.353 34.99C342.516 35.04 342.723 35.086 342.951 35.1236C343.283 35.1841 343.622 35.242 343.967 35.2971C343.947 35.3305 343.605 35.3359 343.655 35.366C343.79 35.462 343.821 35.5519 343.746 35.6287C343.671 35.7054 343.492 35.7669 343.223 35.8082L345.067 36.5859C346.186 36.6937 347.283 36.8764 348.151 37.0993C348.152 37.1359 348.102 37.1665 348.006 37.1881C347.91 37.2098 347.771 37.2217 347.604 37.2226C347.154 37.2386 346.729 37.2695 346.244 37.2871C345.947 37.3003 345.701 37.3292 345.518 37.3722C345.336 37.4152 345.221 37.4714 345.18 37.5376L346.263 37.8269C345.916 37.8975 345.659 37.9313 345.43 37.9746C345.559 38.0655 345.783 38.1596 346.082 38.2494C346.381 38.3393 346.749 38.4226 347.156 38.4929C347.265 38.5074 347.376 38.518 347.483 38.5241C347.59 38.5302 347.691 38.5316 347.779 38.5283C348.617 38.4291 349.597 38.6042 350.55 38.77C351.502 38.9357 352.019 39.0355 352.722 39.1644L354.067 39.1817C354.408 39.2427 354.712 39.3145 354.954 39.3912C355.197 39.468 355.372 39.5476 355.466 39.6237C355.393 39.7461 354.755 39.679 354.375 39.6916C353.473 39.7678 352.287 39.7516 351.014 39.6456C350.698 39.6065 350.374 39.638 350.067 39.6418C349.404 39.657 348.767 39.6818 348.159 39.716C347.759 39.7479 347.384 39.7873 347.039 39.8341C346.946 39.9898 348.4 40.1102 347.575 40.1871C347.859 40.2223 347.966 40.2713 348.112 40.2536C349.048 40.3548 349.97 40.4048 350.771 40.3978C352.309 40.3764 354.055 40.4473 355.867 40.605C357.823 40.7683 359.698 40.8369 361.34 40.805C361.965 40.8032 362.664 40.8366 363.383 40.9028C364.232 40.9945 365.075 41.0522 365.858 41.072C366.117 41.0727 366.406 41.0883 366.701 41.1176C366.995 41.1468 367.288 41.1889 367.554 41.2403C367.531 41.2793 367.277 41.3075 367.334 41.3265C368.144 41.6179 368.472 41.9213 369.719 42.2191C370.572 42.3247 371.55 42.4459 372.108 42.3059C372.665 42.1659 372.465 42.0456 371.356 41.6873C371.597 41.6821 371.887 41.6988 372.175 41.7346C372.464 41.7703 372.732 41.8227 372.935 41.8828L373.894 42.1509L374.759 42.4073C374.683 42.5352 374.623 42.6354 374.561 42.7411C374.462 42.8534 374.57 42.99 374.871 43.1319C375.053 43.2094 375.211 43.2868 375.344 43.3636C375.884 43.6707 376.041 43.961 375.796 44.2019C375.326 44.5483 374.673 44.867 373.842 45.1543C372.965 45.4338 372.485 45.7864 371.762 46.0911C371.393 46.2298 370.946 46.3541 370.423 46.4628C369.433 46.7044 368.348 46.9343 367.354 47.1815C366.361 47.4287 365.239 47.6062 364.135 47.81C362.492 48.0517 360.716 48.2606 358.817 48.4353C357.642 48.5883 356.435 48.7375 355.348 48.9134C354.064 49.1117 352.556 49.2541 350.861 49.337C349.364 49.4364 348.027 49.5832 346.874 49.7749C346.753 49.7956 346.658 49.822 346.591 49.8532C346.383 50.0486 345.802 50.1863 344.935 50.2453C344.988 50.3025 345.055 50.3607 345.137 50.4196C345.257 50.4898 345.282 50.5555 345.208 50.6081C345.135 50.6608 344.966 50.698 344.724 50.7149C344.031 50.7633 343.455 50.8455 343.022 50.9579C342.862 50.9861 342.764 51.0271 342.734 51.0775C342.704 51.1279 342.744 51.1861 342.85 51.2472C342.944 51.31 342.951 51.3679 342.87 51.4132C342.789 51.4585 342.623 51.4892 342.394 51.5013C341.808 51.5608 341.179 51.6087 340.514 51.6446C339.097 51.7238 337.449 51.7229 335.669 51.6418C335.48 51.6183 335.289 51.6544 335.068 51.6271C333.81 51.5362 332.641 51.5222 331.703 51.5866C330.604 51.6117 329.455 51.6067 328.296 51.6184C326.621 51.6105 325.076 51.6583 323.704 51.7604C322.136 51.6617 321.255 51.8333 319.932 51.8366C318.71 51.8542 317.551 51.8965 316.468 51.963C314.721 52.0512 312.981 52.1283 311.26 52.2316C309.644 52.2809 308.157 52.375 306.823 52.5123C306.312 52.5744 305.387 52.4777 305.039 52.6078C304.69 52.7378 303.988 52.7225 303.42 52.7656L301.629 52.8722C301.321 52.8975 300.982 52.9136 300.618 52.9202C298.952 52.9288 297.799 53.1025 296.253 53.138L296.095 53.1184C293.35 53.3766 290.208 53.5183 286.763 53.5393C284.751 53.6185 282.551 53.6147 280.415 53.6727C279.906 53.7888 278.703 53.6458 278.064 53.7518C277.425 53.8578 276.382 53.7883 275.558 53.8057C274.735 53.8232 273.929 53.8668 273.049 53.8652C272.285 53.8657 271.639 53.9131 271.171 54.003C270.104 54.1515 268.802 54.2389 267.325 54.2611C265.37 54.2997 263.522 54.3873 261.534 54.3681C261.563 54.4763 261.441 54.5684 261.181 54.6349C260.921 54.7014 260.533 54.7399 260.056 54.7463C257.931 54.7877 256.003 54.8953 253.849 54.9271L253.273 54.9274L246.832 54.9896C245.096 55.0016 243.424 55.0214 241.654 55.0351C240.991 54.953 240.975 55.0943 240.516 55.0674C240.388 54.9978 240.237 54.9671 240.011 55.0048L239.962 55.0883L232.61 55.199C229.732 55.2799 226.704 55.3042 223.553 55.2716C222.806 55.2798 222.108 55.3075 221.471 55.3541C220.881 55.3712 220.265 55.3787 219.628 55.3767C218.766 55.3557 217.924 55.3451 217.105 55.3449C214.951 55.3768 212.691 55.3596 210.333 55.3362C207.974 55.3129 206.188 55.3544 204.089 55.3512C202.667 55.3483 201.252 55.3343 199.781 55.3014C199.078 55.286 198.212 55.2027 197.485 55.1723C196.757 55.1419 196.52 55.1424 196.424 55.1902C196.107 55.3241 195.311 55.2375 194.675 55.2244C193.435 55.2022 193.258 55.1564 192.921 54.8101L194.444 54.7001C194.817 54.6646 195.286 54.6583 195.806 54.682C196.326 54.7056 196.88 54.7583 197.414 54.835C197.624 54.8679 197.843 54.8939 198.06 54.9115C198.276 54.929 198.485 54.9379 198.675 54.9374C200.211 54.9187 201.725 54.8793 203.201 54.8471L203.417 54.8261L203.431 54.5172C203.235 54.4869 203.033 54.4618 202.831 54.443L195.427 54.2425C193.728 54.1934 191.963 54.0823 190.296 54.0371C188.628 53.9918 187.73 53.9641 186.436 53.9173C185.89 53.8907 185.333 53.8556 184.77 53.8125C184.802 53.7827 184.821 53.7511 184.826 53.7179C184.855 53.6678 184.895 53.6011 184.656 53.5475C184.394 53.4719 184.045 53.4074 183.678 53.3668C183.333 53.3399 182.999 53.3247 182.688 53.3218C181.187 53.2959 179.472 53.1328 177.909 52.8672L177.363 53.0444C175.016 52.9449 172.634 52.8469 170.183 52.7523C169.692 52.7265 169.176 52.677 168.676 52.6075C168.139 52.541 167.645 52.4022 167.08 52.3263C166.522 52.2716 165.967 52.229 165.427 52.1992C165.574 52.1536 165.766 52.1171 166 52.0909C166.229 52.0818 166.397 52.0533 166.477 52.0096C166.558 51.9659 166.548 51.9093 166.449 51.848C166.274 51.7427 166.197 51.6436 166.577 51.631C166.929 51.607 167.18 51.555 167.302 51.4812C167.424 51.4074 167.411 51.3149 167.265 51.2145C167.201 51.1558 167.156 51.0983 167.129 51.0424L166.972 51.0229C166.451 50.8151 165.411 50.74 164.665 50.57C164.312 50.5206 163.948 50.4923 163.628 50.4893C162.802 50.4528 161.999 50.4368 161.145 50.3908C160.737 50.3696 160.311 50.331 159.89 50.2773C159.291 50.203 159.228 50.1952 158.879 49.9251C159.42 49.9298 159.849 49.8895 160.093 49.8109C160.337 49.7323 160.382 49.6203 160.219 49.4939C159.773 49.2176 159.302 48.9264 157.283 48.7301C157.941 48.7204 158.575 48.7012 159.181 48.6725C159.357 48.6664 159.489 48.6461 159.559 48.6144C159.63 48.5827 159.634 48.5411 159.573 48.4952C159.512 48.4493 159.387 48.4012 159.217 48.3575C159.046 48.3138 158.837 48.2764 158.618 48.2504C157.553 48.0942 156.441 47.9896 155.408 47.9485C154.538 47.9303 153.752 47.9405 152.736 47.94L151.536 47.7914C151.556 47.758 151.38 47.7123 151.425 47.694C151.73 47.5227 152.066 47.3553 152.412 47.1713C151.859 47.0719 151.38 46.952 151.03 46.8251C150.679 46.6983 150.472 46.5697 150.431 46.4542C150.401 46.4193 150.409 46.3875 150.454 46.3611C150.499 46.3347 150.58 46.3143 150.691 46.3013C151.007 46.2789 151.251 46.2362 151.404 46.1765C151.557 46.1167 151.615 46.0415 151.573 45.9566L150.64 45.644C147.831 45.4209 145.073 45.2616 142.416 45.1689L140.018 45.0988C139.728 45.0151 139.818 44.9785 140.09 44.9764C140.363 44.9743 141.128 44.9974 141.663 45.0099C142.125 45.0263 142.535 45.0155 142.854 44.9786C143.173 44.9417 143.389 44.88 143.482 44.7993L142.677 44.4427C142.717 44.376 142.773 44.2814 143.209 44.2877C143.508 44.28 143.728 44.2464 143.834 44.1923C143.939 44.1383 143.925 44.0669 143.793 43.9897C143.773 43.9339 143.803 43.883 143.882 43.8395C144.528 43.8359 145.17 43.8378 145.757 43.8209C146.03 43.8152 146.26 43.7946 146.432 43.7603C146.605 43.726 146.715 43.6788 146.755 43.6221C146.777 43.5667 146.725 43.5036 146.605 43.4379C146.485 43.3722 146.3 43.3058 146.065 43.2439C145.146 43.1674 144.306 43.1664 143.728 43.2412C143.522 43.2998 143.191 43.3318 142.779 43.333C142.367 43.3342 141.893 43.3045 141.42 43.2479C140.878 43.1826 140.337 43.1539 139.894 43.167C139.451 43.18 139.136 43.234 139.005 43.3191C138.449 43.2861 137.956 43.2608 137.469 43.2244C136.895 43.1785 136.352 43.165 135.899 43.1853C135.175 43.1996 134.395 43.1912 133.576 43.1603C131.216 43.0829 128.852 43.0112 126.567 42.979C125.962 42.9698 125.439 42.9946 124.841 42.9743C124.243 42.954 123.77 43.0089 123.023 42.8983C122.88 42.8811 122.737 42.8701 122.604 42.8661C122.471 42.8621 122.352 42.8652 122.257 42.8752C120.944 42.9626 119.404 42.9749 117.728 42.9115C115.433 42.896 113.053 42.852 110.755 42.842C110.081 42.8506 109.444 42.8736 108.85 42.9107C108.399 42.9332 107.926 42.9484 107.434 42.9563C107.057 42.9633 106.696 42.9426 106.76 43.0639C106.824 43.1853 106.259 43.1093 105.933 43.0869C104.815 43.0281 103.671 42.9484 102.516 42.8488C101.378 42.7406 100.263 42.6776 99.2372 42.6637C98.4965 42.6556 97.7327 42.6864 96.7804 42.5207C96.8167 42.4595 96.8529 42.3982 97.0602 42.3343C96.2836 42.1585 95.3975 42.0072 94.4752 41.893C93.5529 41.7788 92.621 41.7049 91.7564 41.6775L90.5643 41.3447C90.2707 41.3056 89.9711 41.2771 89.6835 41.261C89.3959 41.2449 89.1265 41.2415 88.8915 41.251C88.7099 41.2558 88.4887 41.2434 88.2683 41.2161C88.0479 41.1888 87.8432 41.1485 87.6918 41.1024C87.4654 41.0438 87.189 40.9933 86.8969 40.9571C86.6049 40.9209 86.3104 40.9007 86.0502 40.8991C85.2311 40.8629 84.3567 40.7793 83.5166 40.6569C83.2986 40.5852 83.162 40.5111 83.1236 40.4437C83.0852 40.3764 83.1469 40.3187 83.3008 40.2779C83.549 40.2058 83.6883 40.1139 83.7104 40.0078C83.7325 39.9017 83.6369 39.7837 83.4293 39.6608C83.323 39.5853 83.2875 39.5139 83.3249 39.4508C83.3623 39.3877 83.4718 39.3342 83.6469 39.2936C84.3004 39.1058 84.1256 39.0005 83.0564 38.6889C82.8827 38.637 82.6733 38.5884 82.4416 38.5464C82.2099 38.5043 81.9608 38.4696 81.7102 38.4446C81.1222 38.3938 80.5422 38.356 79.9809 38.3319C79.6652 38.2928 79.3415 38.3244 78.9777 38.3092C77.1589 38.2332 76.8927 38.1107 76.3037 37.8466L75.8744 37.6561C75.0782 37.5018 74.2075 37.3736 73.3249 37.2808C72.4423 37.188 71.5699 37.1329 70.7705 37.1195C70.4527 37.1185 70.0874 37.0921 69.7305 37.0445C68.5691 36.8987 67.3929 36.7978 66.2799 36.7485C65.5863 36.7207 64.8387 36.6489 64.1268 36.5417C63.4149 36.4344 62.769 36.2963 62.2667 36.1439C61.8155 36.0067 61.2252 35.8834 60.5779 35.7915C59.8202 35.6976 59.7501 35.5874 60.1732 35.5024C60.5963 35.4175 61.3049 35.3082 61.934 35.2189C62.1528 35.1885 62.2884 35.1392 62.3257 35.0763C62.363 35.0134 62.3004 34.9395 62.145 34.8628C62.0452 34.7315 62.0279 34.607 62.0935 34.4922C62.1286 34.4444 62.1044 34.3897 62.0225 34.3317C61.9407 34.2737 61.8031 34.2137 61.619 34.1558C61.4349 34.0979 61.2087 34.0435 60.9555 33.9961C60.7023 33.9488 60.428 33.9096 60.1512 33.8813C58.9831 33.7367 57.8465 33.5959 56.6554 33.4902C56.1562 33.4403 55.6575 33.3786 55.1716 33.3064C54.1769 33.1279 53.1127 32.9799 52.0409 32.8709C51.5322 32.8222 51.0349 32.737 50.6566 32.6337C49.4633 32.3556 48.3637 32.0633 47.3779 31.7619C47.1402 31.6684 46.8293 31.5772 46.4646 31.494C46.0999 31.4108 45.6892 31.3374 45.2584 31.2784C44.9111 31.2354 44.6284 31.1407 44.3608 31.0776C44.1663 30.9317 44.1455 30.7967 44.3004 30.6854C44.4553 30.574 44.7809 30.4898 45.2465 30.4409C45.688 30.3821 46.1012 30.3138 46.4828 30.2416C46.9429 30.1833 47.4898 30.1482 48.1033 30.1378C48.8298 30.1064 49.367 30.0169 49.6449 29.8808C47.656 29.6345 45.7646 29.2808 44.0212 29.3634L42.6966 29.1397C42.7494 29.0507 42.7955 28.9728 42.8384 28.9004C43.1534 28.7688 43.2518 28.6028 43.1253 28.4164C43.0209 28.3263 43.0303 28.2442 43.1526 28.1786C43.2747 28.113 43.5054 28.0661 43.8212 28.0428C45.6918 27.8027 47.8549 27.6406 49.6091 27.3682C50.1591 27.317 50.803 27.2938 51.5136 27.2995C52.201 27.2831 52.1723 27.1601 51.3811 27.0083C50.9371 26.9291 50.4845 26.8531 50.025 26.7807C47.9989 26.7686 47.1735 27.1322 44.8614 27.031L43.7898 26.5519C43.5 26.5445 43.2187 26.5415 42.9478 26.5431L39.0709 26.7378C38.748 26.7476 38.4966 26.7809 38.3454 26.8339C38.1941 26.887 38.1491 26.9576 38.2153 27.0379C38.2415 27.1361 38.1881 27.2262 38.057 27.305C37.9724 27.3601 38.0266 27.4333 38.2074 27.5087C38.615 27.6786 38.092 27.7035 37.7617 27.7462C37.6773 27.7503 37.5799 27.7499 37.4753 27.7448C37.3707 27.7398 37.2608 27.7303 37.1522 27.7168C37.0435 27.7034 36.9382 27.6862 36.8423 27.6664C36.7464 27.6466 36.6619 27.6246 36.5936 27.6015C36.0117 27.4398 35.5027 27.2693 34.9307 27.091C35.3368 26.9203 34.859 26.6402 35.4927 26.4857C35.5636 26.4549 35.5919 26.4173 35.576 26.3753C35.5601 26.3333 35.5003 26.2877 35.4003 26.2414C35.1422 26.1218 35.0193 26.0053 35.0439 25.9035C35.0686 25.8017 35.2399 25.7182 35.5406 25.6616L35.5768 25.6004C34.7838 25.3947 34.9939 25.2117 34.6824 24.9939L33.9196 24.8517C32.0216 24.5091 32.0182 24.5147 30.3842 24.5273C30.0548 24.3969 30.4733 24.3771 30.7871 24.3622L33.4153 24.2159C35.1337 24.1182 36.9021 24.0506 38.8217 24.0136C40.7413 23.9766 42.8813 23.8535 44.8655 23.7648C44.9658 23.7579 45.0426 23.7444 45.0893 23.7252C45.136 23.7061 45.1513 23.6819 45.134 23.6548C45.0552 23.6254 44.9519 23.5971 44.832 23.5719C44.712 23.5467 44.5783 23.5253 44.4409 23.5092C43.8095 23.431 43.1616 23.3806 42.4888 23.3152L41.2344 23.2016L40.8485 23.0523C40.5974 22.9615 40.4258 22.8507 40.0917 22.7854C39.8164 22.7367 39.5175 22.6998 39.2262 22.6784C38.9349 22.657 38.6618 22.652 38.4355 22.6639C37.8079 22.6937 37.2401 22.7368 36.6408 22.776C36.0414 22.8153 35.7111 22.858 35.1914 22.8772C34.1355 22.886 33.115 22.9091 32.1344 22.9465C31.3085 23.035 30.5445 23.1398 29.8473 23.2604C29.4124 23.3081 29.0058 23.3652 28.2632 23.3031C27.9108 23.2468 27.607 23.1728 27.4054 23.0943C27.2038 23.0157 27.1176 22.9377 27.1619 22.8741C27.2018 22.8242 27.3146 22.7847 27.4897 22.7594C27.6648 22.7341 27.8964 22.7237 28.1627 22.7293C28.9081 22.7201 29.5974 22.6893 30.2166 22.6373C31.0786 22.5432 32.1279 22.5026 33.3033 22.518C33.7019 22.5315 33.9691 22.481 34.3178 22.4644C34.6665 22.4479 34.9618 22.4069 35.3506 22.4371C36.5582 22.515 37.1373 22.3956 37.861 22.318C38.106 22.2836 38.2578 22.2281 38.2997 22.1574C38.3416 22.0867 38.272 22.0037 38.0984 21.9175C37.7644 21.7457 37.3558 21.573 36.879 21.4021C36.6336 21.3181 36.3192 21.2383 35.9604 21.169C35.6017 21.0997 35.2083 21.0428 34.8113 21.0027C34.5736 20.8976 34.4469 20.7942 34.4424 20.7018C34.438 20.6095 34.556 20.5312 34.7858 20.474C35.3715 20.3435 35.8907 20.2108 37.2029 20.2837C37.8199 20.3116 38.4005 20.3169 38.9217 20.2995C40.0779 20.2757 41.4115 20.3278 42.7968 20.451C43.1553 20.4825 43.5076 20.5041 43.8434 20.5149C46.2384 20.5906 48.5204 20.6284 50.8089 20.655C52.0213 20.6678 53.2435 20.6639 54.5092 20.7012C57.4772 20.7822 60.1789 20.7406 63.0437 20.7669C64.5441 20.7805 65.8871 20.726 67.0022 20.6062C67.2193 20.5661 67.4058 20.5193 67.5595 20.4663C66.8206 20.3272 66.0089 20.217 65.2023 20.1464C64.3956 20.0758 63.621 20.047 62.9527 20.0629C62.5853 20.1018 62.1104 20.109 61.581 20.0835C61.0516 20.058 60.4885 20.0009 59.9545 19.9185L61.5071 19.8719C62.5366 19.8501 63.5911 19.8434 64.5924 19.8121C66.1831 19.7583 67.6574 19.6722 69.3046 19.6373C70.6345 19.6052 71.8246 19.5233 72.8375 19.3941C73.5693 19.2998 74.405 19.2329 75.3277 19.1949C75.9836 19.1746 75.9836 19.1746 76.403 18.9817C76.0703 18.8568 75.6401 18.8394 75.2349 18.837C72.8055 18.7585 70.4935 18.7447 68.3461 18.796C67.2626 18.8005 66.3014 18.8534 65.5087 18.9522C65.3145 18.9938 64.8179 18.9741 64.4193 18.9606C63.1696 18.94 61.9753 18.946 60.8505 18.9784C59.2955 19.0325 57.5636 19.0197 55.7221 18.9404C55.3729 18.8434 55.7748 18.8514 55.7946 18.818C57.2209 18.7558 58.6189 18.6841 60.0735 18.6314C60.4711 18.6126 60.8961 18.6032 61.3438 18.6036C63.015 18.6363 64.4077 18.5456 65.3267 18.3444C65.3728 18.2665 65.9774 18.2757 66.2445 18.2252C66.3759 18.1814 66.4635 18.1299 66.5045 18.0722C66.1153 17.9285 65.6752 17.9277 65.3365 17.9276C64.3534 17.9436 63.4076 17.974 62.5038 18.0187C61.6636 18.0611 60.7335 18.0725 59.7388 18.0524C59.0047 18.0332 58.3771 18.0629 57.6364 18.0548C57.2346 18.0377 56.8187 18.0102 56.3971 17.973C56.8665 17.8728 57.5045 17.8112 58.2663 17.7924C58.844 17.7326 59.5663 17.7146 59.6586 17.5588C59.3858 17.4474 59.0819 17.4455 58.8378 17.4571C58.3297 17.4567 57.839 17.4637 57.3682 17.4781C56.3698 17.5098 55.2889 17.5103 54.1481 17.4794C53.5473 17.4679 52.9773 17.4714 52.4476 17.4898C51.247 17.5143 50.0964 17.5689 48.9971 17.5939C46.7453 17.6196 44.6915 17.7116 42.5278 17.7602C42.0463 17.7722 41.6146 17.8143 40.9799 17.7416C40.3452 17.669 40.317 17.6595 40.242 17.6144C40.0644 17.5392 40.0106 17.4662 40.0917 17.4107C40.2176 17.3588 40.4629 17.3299 40.7838 17.3292C42.718 17.2467 44.5526 17.1308 46.276 16.9822C47.0344 16.9525 47.6989 16.8918 48.2464 16.8023C48.6806 16.7406 49.1956 16.6998 49.7753 16.6811C50.6185 16.6365 51.4975 16.6038 52.4088 16.5832C52.8328 16.5722 53.1933 16.5391 53.4692 16.4861C53.745 16.4331 53.9306 16.3612 54.015 16.2745L52.8978 15.9869C52.7223 15.9735 52.5482 15.9619 52.3762 15.9521L43.1037 16.1594L42.1854 16.1651C41.179 16.1479 40.933 16.1055 39.9783 15.7723C42.1571 15.6939 43.8698 15.4654 44.9459 15.1095C44.6873 15.0713 44.4222 15.0384 44.1567 15.0118C42.4155 14.9276 40.7695 14.9052 39.2822 14.9455C38.3987 14.9496 37.4903 14.9386 36.5786 14.9332C36.8452 14.7691 37.8667 14.818 38.5325 14.781C40.1233 14.7231 41.53 14.6036 42.7077 14.4262C43.1137 14.3571 43.6217 14.3128 44.2083 14.2956C44.7954 14.2896 45.2858 14.2478 45.6369 14.1736C45.988 14.0995 46.189 13.9953 46.2225 13.8702C46.2778 13.7569 46.397 13.6516 46.5783 13.5559C46.2576 13.4202 45.7484 13.2902 45.1462 13.1903C44.544 13.0904 43.8903 13.0276 43.3077 13.0135C42.0639 12.9576 40.7738 12.8661 39.4703 12.7413C38.821 12.6784 38.1843 12.6422 37.6016 12.6353C37.0877 12.6299 36.5035 12.5844 35.9383 12.5058C35.3731 12.4272 34.8577 12.3197 34.4709 12.1998C33.9488 12.0515 33.4615 11.9015 32.9743 11.7516C32.4871 11.6017 31.9217 11.4122 31.3529 11.2283C30.8514 11.1996 30.3631 11.1811 29.8946 11.1731C29.5301 11.1799 29.1047 11.1598 28.6687 11.1153C28.2327 11.0709 27.8042 11.0038 27.4339 10.9221C27.6511 10.8415 27.8967 10.7704 28.1553 10.677C27.8003 10.5537 27.5429 10.428 27.3987 10.3075C27.2546 10.1869 27.2268 10.0742 27.317 9.97601C27.3697 9.88699 26.9838 9.73766 26.8504 9.61963C26.6787 9.51786 26.6465 9.4229 26.7579 9.34718C26.8693 9.27146 27.1191 9.21852 27.4747 9.1953C27.9157 9.15245 28.2746 9.08792 28.5367 9.00435C28.6234 8.98266 28.6675 8.95295 28.6651 8.91794C28.6626 8.88293 28.6136 8.84375 28.5226 8.80396C28.4316 8.76417 28.3014 8.72505 28.144 8.69018C27.9866 8.65531 27.807 8.62581 27.6216 8.60436C27.0537 8.54356 26.4897 8.50415 25.962 8.4884C25.053 8.45941 24.1827 8.44121 23.3512 8.43378C22.4316 8.4226 21.4086 8.35358 20.386 8.23374C19.4704 8.12035 18.6496 8.01869 18.2019 7.802C17.7543 7.58532 17.0385 7.59222 16.4882 7.43448C16.7973 7.29228 17.3468 7.19349 18.0812 7.14805C18.5618 7.13184 18.9629 7.08927 19.2589 7.02309C19.5549 6.95691 19.7392 6.86857 19.8 6.76374L18.1291 6.32389C16.7947 6.11681 16.0564 6.27619 14.6145 6.19317L16.1002 6.0308C16.13 6.01475 16.1412 5.9959 16.1331 5.97516C15.9889 5.64675 15.7594 5.57653 14.2407 5.39441L13.3884 5.28884L12.0393 5.16356C11.8232 5.09626 11.6738 5.02608 11.6059 4.96002C11.538 4.89397 11.554 4.83437 11.6524 4.78719C11.8501 4.70784 11.9102 4.60643 11.8272 4.49232C11.6963 4.41672 11.6855 4.34704 11.7966 4.29535C11.9077 4.24366 12.1338 4.21322 12.4354 4.20934C12.6762 4.20333 12.6941 4.11596 12.8251 4.06649C12.9552 3.99831 13.178 3.94599 13.4782 3.9131C13.7783 3.8802 14.1488 3.86749 14.5646 3.87585C15.7903 3.88267 16.9418 3.85708 17.9986 3.79952L17.8092 3.77606C18.9106 3.82659 19.9404 3.83272 20.8483 3.79414C21.7581 3.74559 22.9258 3.77673 23.8922 3.74713C24.6789 3.75392 25.2779 3.68672 25.562 3.55979C25.8372 3.4386 26.837 3.46688 27.6027 3.49005C28.0563 3.50503 28.4946 3.51139 28.9131 3.50903C29.4748 3.48159 30.1771 3.50745 30.903 3.58229C31.1207 3.60529 31.3353 3.61746 31.5259 3.61763C33.371 3.64909 35.2129 3.6861 37.0331 3.70252C37.4532 3.69306 37.9459 3.71471 38.4532 3.76494C38.6665 3.78674 38.874 3.79577 39.0479 3.79082C41.924 3.74094 45.1695 3.86819 47.9891 3.79937C48.3308 3.78311 48.7092 3.77974 49.1134 3.78932C50.0217 3.82975 50.8105 3.80373 51.36 3.71522C51.6564 3.66814 52.0365 3.6422 52.476 3.63904C52.9154 3.63589 53.4046 3.6556 53.9124 3.69691C54.7573 3.75161 55.5382 3.75754 56.1726 3.71408C57.4096 3.67392 58.7106 3.65742 60.0651 3.66467C60.4801 3.6717 60.845 3.6561 61.1313 3.61907C61.4177 3.58205 61.6179 3.5246 61.7165 3.45117C61.3838 3.32636 61.0201 3.31117 60.6747 3.32214C59.3361 3.2937 58.0007 3.2597 56.6871 3.2463C55.5112 3.20801 54.383 3.19631 53.319 3.21136C52.7907 3.22834 52.1315 3.18963 51.4852 3.10367C50.6931 2.99481 49.8772 2.94073 49.2027 2.95236C48.7025 2.95525 48.1746 2.94588 47.6265 2.92437C47.2758 2.89844 46.9162 2.8539 46.5848 2.79534C46.4532 2.76991 46.3101 2.74852 46.1645 2.73255C46.0189 2.71659 45.8741 2.7064 45.7392 2.70262C45.6043 2.69884 45.4823 2.70155 45.3811 2.7106C45.2799 2.71965 45.2017 2.73484 45.1514 2.75518C44.644 2.92524 43.5093 2.83845 42.5378 2.81964C41.0817 2.53182 39.9981 2.70217 38.6373 2.53961C38.5297 2.52883 38.4236 2.5223 38.3257 2.52044C38.2277 2.51857 38.14 2.52141 38.0676 2.52877C35.4341 2.62661 32.3649 2.54507 29.5999 2.57886C29.295 2.5838 28.9411 2.56687 28.5784 2.52998C26.2081 2.28584 23.9292 2.21653 22.1872 2.3356C21.9752 2.34633 21.7341 2.34678 21.4748 2.33695C20.2837 2.23992 19.1448 2.20123 18.1529 2.22413C16.5985 2.21673 15.1039 2.22273 13.5245 2.2003C12.4357 2.16839 11.4806 2.20248 10.7548 2.29919C10.7317 2.33813 10.2482 2.29617 9.87788 2.2921C9.66488 2.19406 9.48022 2.1055 9.26063 2.01859C9.06434 1.91106 8.77028 1.80224 8.3985 1.69953C8.02672 1.59681 7.58593 1.5026 7.10583 1.42325C6.285 1.32159 6.20291 1.17407 6.77728 1.11979C8.25771 0.940229 10.1193 0.866736 12.2251 0.904705C13.9855 0.907739 15.7774 0.914689 17.5628 0.932761C18.6041 0.948265 19.7019 0.982701 20.7149 0.988731C21.0568 1.00198 21.4079 1.0215 21.7647 1.04709C22.2026 1.0842 22.6277 1.10442 23.0172 1.10666C24.2678 1.07541 25.6635 1.10263 27.1377 1.18702C27.6777 1.20543 28.1962 1.21163 28.6856 1.20554C29.8432 1.18263 31.0982 1.19949 32.4173 1.25566C33.2372 1.28734 34.0322 1.3039 34.7941 1.30518C35.0631 1.30864 35.2822 1.28203 35.5414 1.30218C37.8224 1.51303 39.4376 1.36073 41.4906 1.44181C42.4884 1.46442 43.4416 1.46448 44.337 1.442C46.0843 1.44309 47.8804 1.46621 49.718 1.51126C52.1479 1.58527 54.3996 1.55959 56.7197 1.59015C57.1778 1.59657 57.6201 1.59548 58.0433 1.58687C60.1023 1.52999 62.3387 1.54205 64.6979 1.62276C65.2336 1.63442 65.7147 1.62016 66.1112 1.58089C66.5077 1.54162 66.8109 1.47817 67.0019 1.39453C67.0827 1.33712 67.0304 1.26256 66.8549 1.18522C66.5637 1.08645 66.2349 0.98968 65.8739 0.896501L52.7413 0.583828C52.1898 0.567502 51.6519 0.558711 51.1304 0.557497C49.5966 0.55478 48.0157 0.530455 46.3954 0.484647C44.7943 0.441617 43.2648 0.449256 41.7137 0.436301C41.2568 0.431962 40.7878 0.421721 40.3086 0.405612C37.0699 0.278111 33.9118 0.200235 30.8566 0.172543C29.5712 0.168614 28.1826 0.110099 26.8722 0.0911332C25.5618 0.0721658 23.7699 0.0652233 22.2155 0.057831L17.4028 0.0589671C16.4562 0.055195 15.5346 0.0664548 14.6162 0.072155C13.5018 -0.334607 13.1178 -0.429948 11.6307 -0.608156C11.1219 -0.673892 10.6044 -0.713121 10.1389 -0.72125C8.66267 -0.689094 6.81041 -0.822948 5.41052 -0.805226C4.56581 -0.813967 3.84903 -0.768779 3.33357 -0.674289C2.88611 -0.600131 2.37444 -0.541452 1.80645 -0.499138C0.250529 -0.847114 0.113407 -1.07311 1.28382 -1.16106C1.60092 -1.18151 2.0377 -1.17518 2.26669 -1.21848C2.39808 -1.24486 2.57757 -1.25994 2.79086 -1.26254C3.00415 -1.26515 3.24533 -1.25522 3.49549 -1.23351C4.28504 -1.17656 5.02507 -1.16317 5.64133 -1.19468C6.2213 -1.23637 6.93222 -1.23471 7.70555 -1.18984C8.27381 -1.11946 8.77328 -1.21884 9.26473 -1.24755C9.75617 -1.27626 10.1595 -1.32784 10.927 -1.25069C11.0676 -1.23533 11.2071 -1.22611 11.335 -1.22373C11.4628 -1.22136 11.5755 -1.22589 11.6644 -1.23699C12.4888 -1.28668 13.4726 -1.28146 14.5359 -1.22176C16.1666 -1.16301 17.6967 -1.16081 19.0729 -1.21523C19.8968 -1.26284 20.5992 -1.34728 21.1527 -1.46525C21.3036 -1.50471 21.5276 -1.52837 21.8034 -1.53397C23.1881 -1.50935 24.6916 -1.41671 26.217 -1.26203C26.7917 -1.20005 27.3656 -1.15102 27.9265 -1.116C29.0794 -1.03819 30.1944 -0.994585 31.2385 -0.986482C32.7558 -0.985199 34.3355 -0.955261 35.9636 -0.89694C36.9684 -0.864468 37.9365 -0.852482 38.8566 -0.861115C39.8023 -0.865184 40.812 -0.840415 41.8629 -0.78738C42.9079 -0.744164 43.8288 -0.769064 44.5147 -0.859071C44.7405 -0.907572 44.9224 -0.965166 45.057 -1.03078C43.5269 -1.24428 41.9444 -1.35279 40.6282 -1.33444C40.1283 -1.34859 39.7131 -1.33431 39.1863 -1.41747L39.1699 -1.38965C39.065 -1.3716 38.9069 -1.36734 38.7255 -1.37769C38.5442 -1.38804 38.3523 -1.41226 38.1865 -1.44575C38.2492 -1.55146 38.3085 -1.6516 38.3514 -1.72393C39.3542 -1.71117 40.328 -1.7122 41.2676 -1.72703C42.0597 -1.74837 43.1349 -1.56146 43.8205 -1.63182C45.1577 -1.54383 46.0091 -1.66532 47.2083 -1.63026C48.4075 -1.59521 49.7282 -1.4794 50.9274 -1.44435C51.9738 -1.42511 52.9898 -1.42093 53.9698 -1.43183C54.3081 -1.44712 54.698 -1.44353 55.1157 -1.42128C55.703 -1.37943 56.2491 -1.37242 56.6916 -1.40105C57.1341 -1.42969 57.455 -1.49282 57.6177 -1.5832C57.4645 -1.66786 57.2582 -1.77702 57.0202 -1.8901C57.458 -1.98301 58.1228 -2.02214 58.9162 -2.00165L60.0372 -2.00614C60.3342 -2.00368 60.5613 -2.02881 60.6715 -2.0763C60.7816 -2.12379 60.7664 -2.19002 60.629 -2.2613C58.5034 -2.62011 58.4251 -2.65966 56.8651 -2.42887L54.7937 -2.53612L54.8286 -2.53777ZM82.8455 -1.55214L82.6877 -1.57168L82.8455 -1.55214ZM340.978 36.623L340.942 36.6842L340.982 36.6175L341.329 36.6605L341.352 36.6215L340.978 36.623ZM290.558 9.79909C290.067 9.73233 289.571 9.67095 289.074 9.61532C288.944 9.6067 288.822 9.60475 288.719 9.60964C288.616 9.61454 288.534 9.62612 288.481 9.64343C288.442 9.71019 288.719 9.75651 288.972 9.78779C289.29 9.82989 289.616 9.85664 289.914 9.86529C290.213 9.87394 290.474 9.86417 290.671 9.83699L290.956 9.81263L290.558 9.79909ZM37.7378 26.071C38.0609 26.0823 38.3674 26.0841 38.6496 26.0765C39.9015 26.0225 41.1001 25.944 42.3836 25.894C44.0031 25.7669 45.864 25.7152 47.8965 25.7407C48.6906 25.7532 49.3614 25.712 49.8307 25.6219C50.1117 25.5736 50.4743 25.5454 50.8965 25.539L56.2699 25.3923C56.602 25.3618 56.8892 25.3192 57.1246 25.2652C56.6511 25.2066 56.3354 25.1675 56.1459 25.144C55.7529 25.1374 55.4151 25.1553 55.1664 25.1959C54.8992 25.2646 54.4476 25.2918 53.9012 25.2721C53.3496 25.2558 52.8118 25.247 52.2903 25.2458C51.3055 25.2492 50.314 25.2638 49.326 25.2728C48.9415 25.464 47.8069 25.3773 46.8353 25.3584L46.0847 25.367C43.6312 25.4661 41.2875 25.6026 39.0651 25.7756C38.6355 25.8049 38.2655 25.8516 37.9663 25.9142C37.8536 25.9631 37.8175 26.024 37.8608 26.0923L37.703 26.0727L37.7378 26.071ZM147.302 44.3586C147.897 44.3716 148.517 44.3984 149.152 44.4385C149.641 44.4794 150.119 44.5043 150.566 44.512C153.068 44.5549 155.676 44.6539 158.354 44.8078C158.704 44.8311 159.04 44.8425 159.35 44.8416L161.542 44.8026C162.233 44.7806 162.246 44.7584 161.743 44.4632C161.326 44.4059 160.904 44.3536 160.481 44.3068C160.228 44.2755 159.818 44.2247 159.722 44.2725C159.136 44.403 158.068 44.3185 157.169 44.2908C154.568 44.2195 151.886 44.1142 149.26 44.0278C148.705 44.0067 148.167 43.996 147.652 43.9959C147.333 43.9915 147.041 43.9998 146.79 44.0206C146.717 44.0227 146.656 44.0289 146.61 44.0387C146.565 44.0485 146.536 44.0618 146.527 44.0775C146.518 44.0933 146.528 44.1113 146.556 44.1303C146.584 44.1492 146.63 44.1687 146.691 44.1875C146.906 44.2532 147.155 44.3161 147.428 44.3742L147.302 44.3586ZM166.355 1.51693L168.917 1.48193C169.225 1.47817 169.485 1.43878 169.814 1.45563C171.569 1.50902 173.193 1.49415 174.618 1.41165C175.104 1.37798 175.671 1.37125 176.291 1.39182C178.186 1.45279 179.974 1.45529 181.606 1.39927C182.661 1.38803 183.649 1.35027 184.554 1.28654C184.623 1.27175 184.667 1.25167 184.681 1.22767C184.695 1.20366 184.68 1.1763 184.636 1.14745C184.625 1.12923 184.594 1.10962 184.545 1.08999C184.497 1.07035 184.432 1.05115 184.355 1.03371C184.279 1.01627 184.192 1.00102 184.101 0.988979C184.011 0.976942 183.918 0.968411 183.83 0.963984C182.687 0.877732 181.601 0.847685 180.663 0.87628C179.792 0.910494 178.855 0.920506 177.866 0.906159C176.92 0.902386 176.277 1.01395 175.108 0.928823C174.613 0.90079 174.177 0.91002 173.872 0.954963C173.26 1.02946 172.405 1.0336 171.459 0.966657C170.894 0.932777 170.353 0.918248 169.858 0.923623C168.658 0.948116 167.51 0.997117 166.398 1.04447C166.047 1.05542 165.672 1.05693 165.277 1.04897L159.707 0.956255C158.368 0.927814 157.033 0.893811 155.719 0.880408C154.645 0.851306 153.645 0.86042 152.755 0.907432C151.806 0.956842 150.771 0.976902 149.669 0.967232C147.959 0.994274 146.258 1.00462 144.397 1.00098C143.209 1.00322 141.994 0.995986 140.753 0.973713C140.126 0.945046 139.593 0.968391 139.257 1.03925C139.053 1.09759 138.573 1.05007 138.174 1.03653C136.048 0.906032 134.054 0.875114 132.332 0.945921C132.112 0.95746 131.87 0.961636 131.613 0.958381C129.954 0.955951 128.235 0.940135 126.642 0.939961C126.223 0.945462 125.828 0.960558 125.463 0.985056C125.502 1.02503 125.614 1.06834 125.774 1.10603C125.935 1.14372 126.133 1.17288 126.326 1.18747C127.832 1.29913 129.287 1.35812 130.628 1.36195C132.861 1.34773 135.199 1.37971 137.62 1.45755C139.498 1.53603 141.211 1.5195 142.63 1.40921C143.74 1.32691 145.183 1.35787 146.712 1.49678C147.367 1.56312 148.002 1.58965 148.531 1.57274C149.04 1.55056 149.625 1.55594 150.25 1.58856C151.568 1.6506 152.836 1.67938 154.029 1.67433C155.194 1.65149 156.282 1.5891 157.479 1.57018C158.676 1.55125 160.5 1.56209 161.976 1.52994C163.452 1.49778 164.912 1.49345 166.355 1.51693ZM60.1828 -1.73728C60.3181 -1.56526 60.7969 -1.45818 61.3119 -1.41231C63.0875 -1.20864 64.8429 -1.12197 66.2833 -1.16684C67.0615 -1.22945 68.0988 -1.20535 69.1915 -1.09929C70.4639 -0.989039 71.6531 -0.970755 72.5496 -1.04766C72.7693 -1.0611 72.9375 -1.08951 73.0392 -1.13036C73.059 -1.16374 73.0953 -1.22493 73.1019 -1.23606C73.0076 -1.26428 72.8921 -1.29043 72.7642 -1.31248C72.6363 -1.33454 72.4993 -1.35192 72.364 -1.36328L66.4827 -1.5602L65.4577 -1.60353C63.5857 -1.71706 61.8019 -1.76228 60.1828 -1.73728ZM71.7514 0.985456C72.6694 1.26636 72.6726 1.26078 73.1428 1.32499C75.4115 1.59172 77.6786 1.7357 79.6745 1.73981C80.118 1.73899 80.4945 1.71188 80.7719 1.66074C80.9147 1.65381 81.0055 1.63179 81.0247 1.59948C81.0438 1.56717 80.9897 1.5272 80.8742 1.48827L80.1443 1.29038C78.8186 1.2047 77.5121 1.13663 76.2324 1.08657C74.7425 1.02745 73.4222 1.02517 71.8777 1.00109L71.7514 0.985456ZM147.192 43.1148C148.047 43.5014 148.05 43.4958 149.482 43.5955C150.48 43.6662 151.448 43.7077 152.357 43.7187C153.468 43.7309 154.608 43.7526 155.715 43.7703C155.986 43.7827 156.215 43.7724 156.359 43.7417C156.502 43.7109 156.55 43.6617 156.492 43.6038C156.347 43.5408 156.119 43.48 155.847 43.431C155.574 43.3821 155.273 43.348 154.991 43.3343L154.387 43.3251C153.653 43.3058 152.89 43.2771 152.181 43.2729C151.721 43.2889 151.188 43.2765 150.624 43.2367C150.059 43.1968 149.479 43.1306 148.928 43.0432L147.192 43.1148ZM76.3187 -1.2318C76.5471 -1.16484 76.8053 -1.10072 77.0867 -1.04113C78.176 -0.875955 79.329 -0.782144 80.3195 -0.778085C80.7879 -0.767854 81.2162 -0.804386 81.6931 -0.751298C82.5483 -0.68036 83.3771 -0.642572 84.1348 -0.63998C84.1348 -0.63998 84.3473 -0.65547 84.417 -0.658778L84.5621 -0.903574C84.2034 -0.960283 83.8294 -1.00661 83.4571 -1.04043C82.208 -1.10555 80.9806 -1.15008 79.7564 -1.20017C78.5323 -1.25026 78.1054 -1.27327 77.3049 -1.29479C76.9478 -1.28296 76.6174 -1.26186 76.3187 -1.2318ZM49.2683 29.2011L50.903 29.7022C51.4319 29.7457 51.9261 29.7536 52.3103 29.7246C52.6945 29.6957 52.9476 29.6315 53.0312 29.5418C53.1658 29.4998 53.1793 29.4376 53.0688 29.3682C52.9583 29.2989 52.7323 29.2277 52.4384 29.1697C52.1555 29.101 51.8326 29.0394 51.4895 28.9887C51.1465 28.938 50.7908 28.8993 50.4444 28.875L49.2683 29.2011ZM62.8785 26.7064C61.8093 26.6215 60.7867 26.5867 59.8888 26.6049C59.3231 26.6546 58.5566 26.6387 57.7464 26.5605C56.273 26.4046 54.8526 26.3615 53.7851 26.4401C53.7851 26.4401 53.7454 26.5069 53.5645 26.5263C53.3836 26.5457 54.1012 26.5928 54.2591 26.6123C55.4168 26.6602 56.5811 26.6969 57.5875 26.714C58.2124 26.7133 58.8733 26.7291 59.559 26.7611C60.5024 26.8105 61.397 26.8266 62.208 26.8085C62.208 26.8085 62.5218 26.7936 62.8752 26.712L62.8785 26.7064ZM177.059 0.609166C176.549 0.514805 175.995 0.438112 175.44 0.384847C174.884 0.331583 174.342 0.303132 173.853 0.301617C173.478 0.296694 173.176 0.321608 172.992 0.372422C172.808 0.423234 172.755 0.497048 172.839 0.582189C173.218 0.629108 173.723 0.691668 174.007 0.726858C174.992 0.723414 175.832 0.678167 177.059 0.609166ZM272.654 8.561C272.244 8.48504 271.792 8.42696 271.351 8.3934C270.909 8.35983 270.496 8.35214 270.157 8.3712C269.982 8.37947 270.101 8.46578 270.071 8.51585C270.052 8.52721 270.052 8.54132 270.072 8.55673C270.091 8.57214 270.13 8.58827 270.184 8.60344C270.237 8.61859 270.303 8.63222 270.375 8.6429C270.447 8.65358 270.522 8.66091 270.593 8.66412C271.038 8.69684 271.457 8.70658 271.814 8.69247C272.172 8.67836 272.455 8.64084 272.64 8.58325L272.654 8.561ZM279.059 9.64689C278.995 9.60207 278.86 9.55536 278.679 9.51531C278.497 9.47525 278.281 9.44456 278.069 9.42885C277.696 9.42674 277.357 9.43917 277.065 9.46567C276.748 9.48612 276.976 9.61589 277.405 9.69289C277.586 9.72379 277.78 9.7479 277.971 9.76329C278.162 9.77868 278.345 9.78493 278.505 9.78155C278.665 9.77817 278.798 9.76523 278.893 9.74379C278.988 9.72235 279.042 9.69298 279.052 9.65802L279.059 9.64689ZM92.9459 -0.755035C91.9903 -0.915192 91.2549 -0.8749 90.4458 -0.93927C89.6368 -1.00364 89.4374 -1.01041 89.5458 -0.907408C89.6542 -0.804405 90.2088 -0.825294 90.5561 -0.782283C91.0253 -0.725212 91.4973 -0.692442 91.9194 -0.687628C92.3415 -0.682815 92.6969 -0.706155 92.9459 -0.755035ZM292.071 26.3436C291.565 26.3077 291.069 26.2823 290.591 26.2678C290.528 26.2827 290.489 26.3022 290.475 26.3251C290.462 26.348 290.474 26.374 290.512 26.4013C290.512 26.4013 290.836 26.4833 291.025 26.5067C291.723 26.5872 291.758 26.472 292.071 26.3436ZM363.609 41.2652C363.951 41.3733 364.111 41.4469 364.385 41.4987C364.511 41.5167 364.641 41.5298 364.766 41.537C364.891 41.5442 365.007 41.5453 365.106 41.5402C365.227 41.5091 365.255 41.4614 365.185 41.4067C365.185 41.4067 364.836 41.3097 364.703 41.3052C364.324 41.2823 363.957 41.2689 363.609 41.2652ZM76.6805 -1.67072C75.9544 -1.76065 75.2598 -1.84667 74.757 -1.74172C75.91 -1.62878 75.9101 -1.62877 76.6805 -1.67072ZM88.441 -0.644131C87.7078 -0.836462 87.2775 -0.853916 86.9256 -0.831817C86.8507 -0.826252 86.8013 -0.813846 86.7845 -0.796483C86.7678 -0.779122 86.7848 -0.757748 86.8329 -0.735591C86.8811 -0.713435 86.9577 -0.691706 87.0513 -0.673687C87.1449 -0.655669 87.2503 -0.642344 87.3516 -0.635729C87.7339 -0.630193 88.0986 -0.633004 88.441 -0.644131ZM126.177 -0.562816C126.194 -0.590634 126.214 -0.624014 126.024 -0.647474C125.974 -0.659384 125.916 -0.669625 125.855 -0.677175C125.794 -0.684725 125.733 -0.689312 125.677 -0.69048C125.677 -0.69048 125.657 -0.657097 125.644 -0.634843L126.177 -0.562816ZM152.382 45.6209L151.961 45.6463L152.15 45.6697L152.65 45.6839L152.382 45.6209ZM300.868 9.21282C300.71 9.19327 300.553 9.17372 300.529 9.21266C300.496 9.21869 300.475 9.2274 300.469 9.23804C300.463 9.24869 300.471 9.26097 300.493 9.27386C300.493 9.27386 300.714 9.30123 300.809 9.31296L300.868 9.21282ZM276.285 9.5243C276.181 9.52207 276.087 9.52468 276.009 9.53197L275.989 9.56535L276.305 9.60446L276.285 9.5243ZM62.0447 17.4781C61.9228 17.4578 61.7935 17.4418 61.6659 17.4311L61.508 17.4116C61.508 17.4116 61.6776 17.4684 61.7723 17.4802C61.867 17.4919 61.9434 17.4775 62.0447 17.4781Z" fill="#F5BD2D"/>
</svg>
