<svg width="376" height="12" viewBox="0 0 376 12" fill="none" xmlns="http://www.w3.org/2000/svg">
<path d="M54.8286 -2.53772L55.7696 -2.69589L53.9385 -2.92267L54.8163 -3.08867C55.6964 -3.08715 56.8368 -2.83842 57.4573 -2.97058C57.5332 -3.09855 56.5748 -3.13961 56.3302 -3.24157C56.1138 -3.34607 55.9372 -3.44988 55.8024 -3.55178C56.2818 -3.55068 56.8087 -3.52603 57.3521 -3.47929C58.0829 -3.40294 58.7997 -3.36583 59.4234 -3.37204C60.6989 -3.35142 61.9312 -3.37199 63.3179 -3.36746L62.8565 -3.67542L64.6437 -3.60338C64.8331 -3.57992 65.0588 -3.61765 65.245 -3.58862C66.7938 -3.34305 67.4492 -3.47687 68.1927 -3.58783C68.3452 -3.61654 68.5288 -3.63798 68.7388 -3.65158C70.8049 -3.59275 72.668 -3.24853 74.5288 -3.07182C74.879 -3.02671 75.2149 -2.96879 75.5127 -2.90219C76.1599 -2.77271 76.8798 -2.667 77.6065 -2.59472C78.3333 -2.52244 79.0437 -2.48592 79.6728 -2.48847C81.064 -2.49133 82.6357 -2.40569 84.2359 -2.23983C84.7117 -2.1852 85.1879 -2.14917 85.634 -2.13402C86.0801 -2.11886 86.4865 -2.12492 86.8269 -2.15183L87.9088 -1.97603C88.3778 -2.04736 88.9724 -2.0865 89.6567 -2.09107C90.3409 -2.09563 91.1005 -2.06553 91.8893 -2.00259C92.7299 -1.93431 93.5838 -1.88828 94.4559 -1.81609C96.2575 -1.67808 98.0109 -1.59368 99.6616 -1.5655C102.12 -1.48201 104.521 -1.41746 107.001 -1.31336C108.553 -1.26312 110.064 -1.23548 111.527 -1.2306C113.279 -1.21095 115.175 -1.11581 117.122 -0.949774C117.029 -0.793995 116.175 -0.840017 115.602 -0.845289C113.754 -0.871181 111.862 -0.938275 109.96 -0.988677C109.104 -1.00835 108.271 -1.0158 107.466 -1.01098C106.121 -1.01744 104.702 -1.05894 103.236 -1.13479C100.919 -1.21825 98.6754 -1.25837 96.5292 -1.25474C96.361 -1.24857 96.2068 -1.23764 96.0693 -1.22212C96.0406 -1.20868 96.035 -1.19173 96.0529 -1.17291C96.0708 -1.15408 96.1117 -1.134 96.1716 -1.11459C96.2315 -1.09519 96.3084 -1.0771 96.3951 -1.06207C96.4817 -1.04703 96.5752 -1.03555 96.6664 -1.02873C97.5188 -0.923156 98.4343 -0.809769 99.2382 -0.793819C99.2692 -0.792625 99.3023 -0.789904 99.3351 -0.785846C99.3679 -0.781789 99.3995 -0.776497 99.4276 -0.770359C101.227 -0.547486 102.707 -0.585201 104.108 -0.54894C106.436 -0.45094 108.679 -0.405164 110.805 -0.412303C111.126 -0.411818 111.473 -0.399078 111.833 -0.374545C114.059 -0.275095 116.141 -0.263972 117.981 -0.341679C118.738 -0.361367 119.442 -0.405561 120.256 -0.4063C120.757 -0.409341 121.193 -0.437544 121.538 -0.489219C121.884 -0.540895 122.13 -0.614974 122.264 -0.707002C122.607 -0.65855 122.956 -0.615369 123.306 -0.577976C123.515 -0.556595 123.715 -0.550915 123.866 -0.562104C124.018 -0.573292 124.109 -0.600512 124.121 -0.638257C124.184 -0.743965 123.707 -0.79705 123.293 -0.842317C123.543 -0.864987 123.824 -0.878324 124.13 -0.882006C125.854 -0.90616 127.703 -0.877652 129.637 -0.797108C131.139 -0.700698 132.338 -0.779169 133.917 -0.643212C134.107 -0.619752 134.263 -0.654186 134.437 -0.662454C134.892 -0.705992 135.458 -0.715778 136.087 -0.690956C136.716 -0.666132 137.389 -0.607451 138.046 -0.520001C138.866 -0.758922 140.636 -0.485975 141.943 -0.461444C142.345 -0.33994 141.883 -0.361301 141.864 -0.32792C141.844 -0.294538 141.864 -0.327927 141.706 -0.347478C140.401 -0.175408 138.613 -0.137888 136.593 -0.240191C136.219 -0.239765 135.863 -0.231926 135.528 -0.216749C135.021 -0.195266 134.449 -0.197411 133.838 -0.22309C133.17 -0.241949 132.556 -0.232992 132.026 -0.196652C131.721 -0.197244 131.464 -0.179038 131.277 -0.143713C131.09 -0.108387 130.98 -0.0570843 130.958 0.00542437C131.161 0.0536146 131.387 0.0977087 131.626 0.135957C132.874 0.286974 134.118 0.349484 135.114 0.311188C136.847 0.245203 138.91 0.309593 140.754 0.287068C142 0.277942 143.326 0.303935 144.706 0.364564C144.706 0.364564 144.67 0.425763 144.667 0.431326C144.83 0.457824 145.002 0.479083 145.172 0.493888C145.172 0.493888 145.172 0.493889 145.188 0.466071C145.113 0.439356 145.01 0.414226 144.892 0.393588L144.482 0.342756C144.761 0.329528 145.022 0.290143 145.312 0.314206C145.925 0.358912 146.51 0.377786 147.033 0.369706C147.556 0.361626 148.006 0.326752 148.356 0.267183C148.976 0.190835 149.747 0.156116 150.619 0.165266C151.288 0.15693 151.932 0.139017 152.549 0.111612C152.549 0.111612 152.588 0.0448553 152.88 0.00937295C152.604 -0.034389 152.315 -0.070125 152.028 -0.0961941C150.779 -0.161323 149.526 -0.220889 148.299 -0.265416C147.847 -0.270227 147.422 -0.262766 147.032 -0.24318C145.952 -0.220261 144.739 -0.25279 143.463 -0.338871C143.463 -0.338871 143.21 -0.370149 143.084 -0.385789C143.442 -0.532543 144.676 -0.385625 145.176 -0.48501C145.48 -0.483202 146.015 -0.470704 145.996 -0.496869C145.955 -0.531782 145.95 -0.564219 145.982 -0.591847C146.014 -0.619476 146.082 -0.641617 146.182 -0.656677C146.281 -0.671739 146.41 -0.679352 146.558 -0.678966C146.706 -0.678578 146.87 -0.670198 147.039 -0.654438C148.444 -0.569174 149.767 -0.545462 150.928 -0.584757C151.368 -0.583999 151.862 -0.558728 152.298 -0.552406C152.566 -0.54479 152.81 -0.549025 153.017 -0.564877C154.073 -0.681619 155.493 -0.690145 157.064 -0.589174C157.824 -0.552871 158.534 -0.548018 159.157 -0.574859C159.6 -0.579662 159.788 -0.496663 160.104 -0.457562L161.445 -0.375138L159.723 -0.271858C160.091 -0.0351733 160.384 0.0428688 160.985 0.0576145C161.862 0.0798814 162.716 0.0899411 163.542 0.0877312C164.154 0.0857855 164.658 0.0348151 165.486 0.125348C165.632 0.140115 165.772 0.144893 165.884 0.138886C166.853 0.0585099 168.02 0.0400638 169.305 0.0848069C169.97 -0.0657016 171.104 0.0806318 172.152 0.198536C172.49 0.0851636 171.877 0.0331218 171.512 -0.0360536C172.388 -0.0289721 173.272 -0.0330161 174.177 -0.016462C174.449 -0.0224874 174.761 -0.0121788 175.086 0.0136548C175.412 0.0394873 175.743 0.0801366 176.054 0.132426C176.206 0.166213 176.389 0.191641 176.565 0.203432C176.741 0.215221 176.896 0.212471 176.999 0.19575C177.469 0.146436 178.222 0.191857 178.61 0.108557C178.748 0.0894004 178.945 0.086726 179.167 0.101003C179.388 0.115278 179.619 0.14558 179.818 0.186477C179.6 0.199237 179.406 0.21933 179.24 0.246314C178.646 0.333969 178.864 0.480432 179.619 0.693363C180.778 0.681653 181.962 0.684978 183.036 0.644847C183.635 0.608823 184.369 0.620084 185.155 0.677369C185.941 0.734651 186.749 0.835686 187.487 0.969108C187.754 1.02041 188.058 1.05595 188.34 1.06866C188.621 1.08136 188.858 1.07031 189.005 1.03769C189.096 0.999971 189.124 0.952228 189.087 0.898605L188.33 0.80477C188.33 0.80477 188.359 0.754697 188.366 0.74357L189.455 0.735157C190.032 0.734864 190.633 0.749615 191.178 0.745412C191.978 0.717468 192.891 0.733043 193.861 0.791172C194.756 0.850779 195.636 0.895833 196.493 0.925939C197.321 0.956926 197.922 0.858139 198.711 0.842362C199.307 0.83047 199.963 0.843179 200.654 0.87999C201.847 0.945279 202.942 0.945401 203.839 0.880342C204.885 1.23086 205.394 1.28786 206.365 1.19314L206.821 1.16608L206.946 1.24126L207.295 1.22473C207.948 1.21001 208.6 1.19529 209.281 1.19004C210.228 1.22257 211.25 1.31008 212.248 1.44405C212.438 1.4675 212.695 1.54721 212.862 1.60962C213.028 1.67202 213.391 1.86028 213.657 1.98284C213.367 2.0723 213.045 2.15785 212.815 2.2607C212.792 2.27827 212.794 2.29922 212.821 2.32187C212.849 2.34452 212.901 2.36824 212.973 2.39111C213.045 2.41399 213.135 2.43538 213.237 2.45358C213.338 2.47177 213.447 2.48627 213.556 2.49589C213.768 2.51663 213.978 2.53046 214.176 2.5368C215.151 2.54774 216.086 2.53961 216.969 2.51249C217.292 2.47422 217.734 2.47059 218.224 2.50216C218.715 2.53374 219.227 2.59872 219.678 2.6868C220.835 2.63392 222.178 2.64954 223.616 2.73258C225.137 2.68208 226.974 2.7842 228.395 2.67356C228.362 2.72919 228.509 2.82498 228.714 2.88017C229.037 2.96399 229.403 3.04168 229.797 3.10994L232.802 3.24321C232.914 3.31174 233.055 3.38111 233.221 3.45043C233.336 3.50518 233.534 3.55875 233.776 3.59979C234.017 3.64084 234.282 3.66613 234.514 3.67029C235.112 3.6906 235.614 3.64519 236.327 3.75738C235.229 3.86342 233.748 3.84934 232.148 3.71762C230.645 3.61745 229.199 3.56738 227.865 3.56929C227.424 3.56853 226.845 3.57438 226.707 3.63497C226.402 3.80624 225.605 3.77916 224.675 3.74757C223.944 3.71299 223.277 3.71687 222.728 3.7589C222.179 3.80092 221.763 3.87989 221.516 3.98931C221.453 4.09502 221.603 4.18524 222.244 4.24675L224.911 4.4934C225.304 4.46169 225.677 4.42416 226.028 4.38095C226.62 4.32356 227.35 4.30781 228.163 4.33492C228.976 4.36202 229.849 4.43127 230.714 4.53725C231.156 4.59199 231.597 4.64673 231.918 4.62072C232.199 4.59085 232.458 4.55507 232.693 4.51367C232.74 4.48593 232.759 4.45399 232.749 4.41909C232.919 4.43532 233.089 4.45641 233.254 4.48165C234.571 4.77609 235.59 4.771 236.517 4.69462C236.767 4.67192 236.958 4.63584 237.212 4.60757C237.466 4.57931 237.556 4.54262 237.786 4.5533C239.627 4.64987 240.157 4.32733 241.708 4.34029C241.784 4.32769 241.831 4.30885 241.845 4.28552C241.858 4.26218 241.839 4.2351 241.787 4.20676C241.678 4.18118 241.551 4.15917 241.419 4.14277C241.286 4.12637 241.152 4.11611 241.03 4.11292C240.316 4.07154 239.685 4.08422 239.246 4.14883C238.935 4.17523 238.606 4.19626 238.26 4.21182L236.707 3.74475C238.212 3.78756 239.635 3.78728 240.943 3.74391C241.229 3.71955 241.712 3.76152 242.114 3.76949L245.07 3.81315C245.678 3.81677 246.196 3.74355 247.044 3.91423C247.044 3.91423 247.603 3.94175 247.753 3.91845C247.902 3.89514 248.564 3.7502 248.959 3.65577C249.418 3.68269 250.052 3.75534 250.338 3.73098C250.837 3.67116 251.268 3.59447 251.625 3.50229L253.411 3.63389C253.409 3.75078 253.344 3.86076 253.217 3.96214C253.077 4.0599 253.082 4.17726 253.231 4.30462C253.379 4.43197 253.667 4.5657 254.07 4.69489L255.834 5.3791C256.121 5.42492 256.428 5.45576 256.712 5.46744C256.996 5.47912 257.244 5.47106 257.421 5.44438C258.18 5.36514 259.03 5.30321 259.789 5.22397C260.767 5.34518 260.516 5.54096 261.227 5.71269L263.532 5.99812C263.883 6.26262 264.241 6.516 263.172 6.60455C262.96 6.62003 263.103 6.72139 262.909 6.76304C263.74 6.96153 264.654 7.02095 265.496 7.14321C265.829 7.23114 266.106 7.32421 266.316 7.41794C266.547 7.55906 267.014 7.70322 267.618 7.81928C268.221 7.93534 268.912 8.014 269.541 8.03825C270.596 8.11256 271.677 8.22416 272.734 8.36806C273.095 8.4181 273.466 8.45456 273.823 8.47497C274.179 8.49539 274.512 8.4993 274.799 8.48643C275.822 8.46378 276.688 8.38586 277.34 8.25776C277.985 8.14905 278.855 8.09666 279.871 8.10533C281.607 8.32038 281.957 8.64443 283.008 8.92985L281.193 8.96185C281.127 9.07312 281.247 9.21341 280.503 9.21084C279.759 9.20828 280.137 9.31474 280.378 9.42226C280.463 9.47634 280.629 9.53198 280.847 9.57974C281.066 9.62751 281.324 9.66446 281.578 9.68436L283.123 9.82198C283.671 9.87435 284.201 9.89671 284.655 9.88662C285.11 9.87652 285.471 9.83435 285.698 9.76473C285.96 9.69863 286.321 9.65391 286.759 9.63333C287.318 9.5794 287.777 9.4992 288.12 9.39576L290.301 9.54647C290.394 9.44252 290.694 9.36964 291.149 9.34014C291.605 9.31064 292.189 9.32632 292.803 9.38456L294.273 9.47706C295.908 9.57799 296.266 9.54476 296.745 9.2517L294.785 8.72824C295.07 8.59035 295.345 8.46916 295.62 8.34797C295.132 8.17551 294.48 8.01239 293.731 7.87518C293.033 7.72775 292.314 7.58496 291.579 7.44736C290.781 7.30675 289.939 7.18449 288.948 7.02599C288.775 6.97471 288.524 6.88388 288.203 6.79636C287.882 6.71131 287.547 6.62795 287.199 6.54659C287.265 6.43531 287.324 6.33517 287.198 6.206C287.808 6.24722 288.438 6.3193 289.031 6.41576C289.625 6.51221 290.163 6.63 290.598 6.75851C290.671 6.7813 290.76 6.8027 290.86 6.82128C290.961 6.83986 291.069 6.85517 291.178 6.86618C292.249 6.94514 292.762 7.1101 293.286 7.31235C293.638 7.41574 294.093 7.50755 294.587 7.57506C295.534 7.69236 296.461 7.84305 297.367 7.97313C297.644 8.01647 297.932 8.05216 298.219 8.0787C299.166 8.16309 300.119 8.28109 301.029 8.4267C301.326 8.4637 301.611 8.51268 301.861 8.56953C302.11 8.62637 302.316 8.68944 302.462 8.75346C302.237 8.8236 302.115 8.91215 302.105 9.01374C302.065 9.08051 302.73 9.2166 303.044 9.31525C303.358 9.4139 302.742 9.36742 302.533 9.37734C301.674 9.39642 301.515 9.43642 302.029 9.65536C302.201 9.72421 302.315 9.79309 302.364 9.85773C302.413 9.92237 302.397 9.9814 302.315 10.0311C302.193 10.237 301.822 10.406 301.567 10.6073C301.963 10.74 302.624 10.8816 302.696 11.0458C302.731 11.0822 302.804 11.1208 302.911 11.1588C303.017 11.1968 303.154 11.2332 303.312 11.2654C303.727 11.3349 304.105 11.418 304.416 11.5082C304.727 11.5985 304.962 11.6936 305.104 11.786C305.151 11.8242 305.263 11.8647 305.418 11.8995C305.574 11.9343 305.761 11.9606 305.942 11.9733C306.159 11.989 306.353 11.9869 306.484 11.9676C306.615 11.9483 306.674 11.9132 306.647 11.8696C306.653 11.7877 306.624 11.7023 306.562 11.6141C306.598 11.5529 306.634 11.4917 306.491 11.3904C307.138 11.4274 307.817 11.5015 308.455 11.6047C309.093 11.7079 309.665 11.8363 310.109 11.9758C310.599 12.1202 311.052 12.2718 311.595 12.4406C311.483 12.6298 311.483 12.6298 312.641 12.9642L318.779 13.1273L320.037 13.3488C321.211 13.5419 321.49 13.5287 322.226 13.4289L322.722 13.335C323.764 13.4641 324.964 13.6126 325.616 13.3709C325.827 13.5285 325.965 13.5814 325.917 13.6053C325.606 13.8379 325.066 14.0352 324.317 14.1895C324.126 14.2255 323.992 14.2806 323.77 14.3127C323.053 14.4943 322.886 14.775 323.305 15.0972C323.512 15.2398 323.814 15.3858 324.2 15.5306C323.635 15.7314 322.887 15.8979 321.975 16.0254C321.202 16.1241 320.564 16.2562 320.082 16.418C319.649 16.5811 319.001 16.7037 318.174 16.7788C317.755 16.8108 317.448 16.8737 317.286 16.9615C317.238 17.1991 317.349 17.4536 317.617 17.7191C317.667 17.7999 317.81 17.8872 318.035 17.9741C318.26 18.061 318.56 18.1451 318.912 18.22C318.912 18.22 319.082 18.2768 319.164 18.3108C319.232 18.5985 318.977 18.8521 318.418 19.0545C318.326 19.1119 318.139 19.1534 317.875 19.1745C317.612 19.1955 317.283 19.1954 316.924 19.174C316.165 19.1397 315.456 19.1355 314.722 19.1163C313.93 19.089 313.234 19.1105 312.704 19.1784C312.175 19.2463 311.833 19.3582 311.714 19.5022C311.706 19.543 311.683 19.582 311.645 19.619C311.622 19.6381 311.61 19.6586 311.608 19.6802L313.294 20.1518L311.387 20.3396C311.275 20.5287 312.191 20.6421 312.65 20.7826L312.366 20.8609C312.001 20.9053 311.509 20.8205 311.063 20.7713L310.621 20.7165L310.569 20.8056C310.294 20.9268 309.29 20.7905 308.898 20.8794C308.507 20.9682 308.786 21.0685 309.373 21.1651C309.781 21.2368 310.219 21.2941 310.654 21.3324C311.089 21.3708 311.51 21.3893 311.885 21.3866C312.109 21.3771 312.295 21.3554 312.431 21.3229C313.223 21.1842 314.097 21.0651 315.048 20.9662C315.777 20.8775 316.69 20.8397 317.723 20.8556C318.026 20.8489 318.392 20.8699 318.756 20.915C319.119 20.96 319.458 21.0262 319.712 21.1019L320.247 21.1144C320.247 21.1144 320.54 21.1925 320.498 21.2052C320.295 21.4365 320.531 21.7191 321.173 22.0114L320.615 22.0378C319.817 22.0108 320.323 22.1868 320.204 22.2736C319.637 22.2572 318.901 22.184 318.633 22.294L318.231 22.2861L318.389 22.3056L318.58 22.2695L319.329 22.434C318.974 22.4617 318.717 22.4955 318.403 22.5104C318.23 22.5234 318.092 22.5462 317.997 22.5776C317.903 22.6091 317.854 22.6484 317.854 22.6932C317.855 22.7623 317.762 22.8204 317.583 22.862C317.404 22.9036 317.145 22.9273 316.832 22.931C316.458 22.9325 316.245 23.0075 316.025 23.0341L316.977 23.4864C316.977 23.4864 316.504 23.4278 316.762 23.5075L316.795 23.4518L317.371 23.5651C317.787 23.6643 318.078 23.6884 318.323 23.6173C318.569 23.5461 318.513 23.6407 318.63 23.6135C318.587 23.6858 318.32 23.7364 318.091 23.7797C317.827 23.8137 317.528 23.8387 317.2 23.8544C317.791 24.1724 317.819 24.1819 316.956 24.2661C316.093 24.3503 316.39 24.4767 315.668 24.4948C314.946 24.5128 315.767 24.728 316.251 24.77C316.609 24.7975 316.974 24.8405 317.322 24.8959C317.669 24.9513 317.99 25.0178 318.263 25.0909L318.118 25.3357C317.905 25.3154 317.692 25.289 317.487 25.2575C316.787 25.123 316.15 24.9964 315.528 25.0746L315.824 25.2606L313.652 25.1527C313.708 25.2921 314.039 25.4509 314.575 25.5956C314.494 25.6751 314.445 25.7587 314.427 25.846C314.391 25.9072 314.176 25.8687 314.037 25.8753C313.539 25.8855 313.131 25.927 312.848 25.996C312.564 26.0651 312.415 26.1596 312.413 26.2713C312.356 26.3659 313.121 26.5621 313.6 26.5557C314.794 26.5745 316.085 26.6473 317.404 26.77C318.207 26.786 318.321 26.5373 319.643 26.707C319.67 26.8219 319.5 26.9149 319.161 26.9719C318.821 27.029 318.33 27.0471 317.762 27.0234C318.085 27.2784 319.875 27.3449 319.955 27.6115C319.509 27.5927 319.032 27.5484 318.572 27.483C318.111 27.4176 317.683 27.3333 317.329 27.2386C317.253 27.2152 317.157 27.1937 317.05 27.176C316.944 27.1583 316.83 27.1449 316.72 27.1372C316.61 27.1295 316.506 27.1277 316.419 27.1319C316.332 27.1361 316.265 27.1462 316.223 27.1612C316.471 27.2576 316.743 27.3691 317.054 27.4733C317.365 27.5775 317.44 27.6226 317.665 27.6444C319.338 27.8516 320.133 28.2249 321.581 28.4698C321.96 28.5168 322.007 28.6659 321.678 28.6491C321.365 28.6322 321.082 28.6344 320.86 28.6554C320.638 28.6765 320.486 28.7155 320.421 28.7681C320.179 28.8296 319.876 28.8784 319.522 28.9135C321.006 29.2965 322.776 29.635 324.666 29.897C325.024 29.9488 325.397 29.9804 325.731 29.9871C326.786 29.9875 327.905 30.0179 329.066 30.0777C329.478 30.094 329.858 30.0925 330.187 30.0732C331.264 30.0275 332.12 30.1275 332.902 30.4095L334.196 30.8564C334.153 30.9287 333.936 31.0093 333.769 31.12L334.779 31.3586L342.492 30.809L344.041 31.3411L346.261 31.3116C346.431 31.3269 346.602 31.3481 346.766 31.3741C347.215 31.5313 347.566 31.6822 348.054 31.8322C348.541 31.9821 349.411 32.0003 350.018 32.177C350.625 32.3537 351.233 32.3573 351.984 32.4623C352.054 32.599 351.982 32.7221 351.77 32.8239C351.7 32.9407 351.319 33.0129 351.253 33.1242C351.26 33.2366 351.118 33.3321 350.84 33.4019C350.562 33.4718 350.156 33.5138 349.66 33.5241C348.271 33.7636 346.595 33.9341 344.684 34.0305C344.516 34.0375 344.376 34.0537 344.275 34.078C344.173 34.1024 344.11 34.1344 344.091 34.1721C344.094 34.2813 343.967 34.3756 343.718 34.4482C343.47 34.5208 343.107 34.5698 342.657 34.5916C342.537 34.596 342.446 34.6097 342.396 34.631C342.225 34.6448 342.101 34.6711 342.035 34.7074C341.968 34.7437 341.963 34.7888 342.019 34.8384C342.075 34.8879 342.19 34.9402 342.353 34.9902C342.517 35.0402 342.723 35.0862 342.951 35.1238C343.283 35.1843 343.622 35.2422 343.967 35.2973C343.947 35.3307 343.605 35.3361 343.655 35.3662C343.79 35.4622 343.821 35.5521 343.746 35.6289C343.671 35.7056 343.492 35.7671 343.223 35.8084L345.067 36.5861C346.186 36.6939 347.283 36.8766 348.151 37.0995C348.152 37.1361 348.102 37.1667 348.006 37.1883C347.91 37.21 347.771 37.2219 347.604 37.2228C347.154 37.2388 346.729 37.2697 346.244 37.2873C345.947 37.3005 345.701 37.3294 345.518 37.3724C345.336 37.4154 345.221 37.4716 345.18 37.5378L346.263 37.8271C345.916 37.8977 345.659 37.9315 345.43 37.9748C345.559 38.0657 345.783 38.1598 346.082 38.2496C346.381 38.3395 346.749 38.4228 347.156 38.4931C347.265 38.5076 347.376 38.5182 347.483 38.5243C347.59 38.5304 347.691 38.5318 347.779 38.5285C348.617 38.4293 349.597 38.6044 350.55 38.7702C351.502 38.9359 352.019 39.0357 352.722 39.1646L354.067 39.1819C354.408 39.2429 354.712 39.3147 354.954 39.3914C355.197 39.4682 355.372 39.5478 355.466 39.6239C355.393 39.7463 354.755 39.6792 354.375 39.6918C353.473 39.768 352.287 39.7518 351.014 39.6458C350.698 39.6067 350.374 39.6382 350.067 39.642C349.404 39.6572 348.767 39.682 348.159 39.7162C347.759 39.7481 347.384 39.7875 347.039 39.8343C346.946 39.9901 348.4 40.1104 347.575 40.1873C347.859 40.2225 347.966 40.2715 348.112 40.2538C349.048 40.355 349.97 40.405 350.771 40.398C352.309 40.3766 354.055 40.4476 355.867 40.6052C357.823 40.7685 359.698 40.8371 361.34 40.8053C361.965 40.8034 362.664 40.8368 363.383 40.903C364.232 40.9947 365.075 41.0524 365.858 41.0722C366.117 41.0729 366.406 41.0885 366.701 41.1178C366.995 41.147 367.288 41.1891 367.554 41.2405C367.531 41.2795 367.277 41.3077 367.334 41.3267C368.144 41.6181 368.472 41.9216 369.719 42.2193C370.572 42.3249 371.55 42.4461 372.108 42.3061C372.665 42.1661 372.465 42.0458 371.356 41.6875C371.597 41.6823 371.887 41.6991 372.175 41.7348C372.464 41.7705 372.732 41.823 372.935 41.883L373.894 42.1511L374.759 42.4075C374.683 42.5354 374.623 42.6356 374.561 42.7413C374.462 42.8536 374.57 42.9902 374.871 43.1321C375.053 43.2096 375.211 43.287 375.344 43.3638C375.884 43.671 376.041 43.9612 375.796 44.2021C375.326 44.5485 374.673 44.8672 373.842 45.1545C372.965 45.4341 372.485 45.7867 371.762 46.0913C371.393 46.23 370.946 46.3544 370.423 46.463C369.433 46.7046 368.348 46.9345 367.354 47.1817C366.361 47.4289 365.239 47.6064 364.135 47.8102C362.492 48.052 360.716 48.2608 358.817 48.4355C357.642 48.5885 356.435 48.7377 355.348 48.9136C354.064 49.1119 352.556 49.2543 350.861 49.3373C349.364 49.4366 348.027 49.5834 346.874 49.7751C346.753 49.7958 346.658 49.8222 346.591 49.8534C346.383 50.0488 345.802 50.1865 344.935 50.2455C344.988 50.3027 345.055 50.3609 345.137 50.4198C345.257 50.49 345.282 50.5557 345.208 50.6083C345.135 50.661 344.966 50.6982 344.724 50.7151C344.031 50.7635 343.455 50.8457 343.022 50.9581C342.862 50.9863 342.764 51.0273 342.734 51.0777C342.704 51.1281 342.744 51.1863 342.85 51.2474C342.944 51.3103 342.951 51.3681 342.87 51.4134C342.789 51.4587 342.623 51.4894 342.395 51.5015C341.808 51.561 341.179 51.6089 340.514 51.6448C339.097 51.724 337.449 51.7231 335.669 51.642C335.48 51.6186 335.289 51.6547 335.068 51.6273C333.81 51.5364 332.641 51.5224 331.703 51.5868C330.604 51.6119 329.455 51.6069 328.296 51.6186C326.621 51.6107 325.076 51.6585 323.705 51.7606C322.136 51.662 321.255 51.8335 319.932 51.8368C318.71 51.8544 317.552 51.8967 316.468 51.9632C314.721 52.0514 312.981 52.1286 311.26 52.2318C309.644 52.2811 308.157 52.3752 306.823 52.5125C306.312 52.5746 305.387 52.4779 305.039 52.608C304.691 52.738 303.988 52.7227 303.42 52.7658L301.629 52.8724C301.321 52.8978 300.982 52.9138 300.618 52.9204C298.952 52.9291 297.799 53.1027 296.253 53.1382L296.095 53.1186C293.35 53.3768 290.209 53.5185 286.763 53.5395C284.751 53.6187 282.551 53.6149 280.415 53.6729C279.906 53.789 278.703 53.646 278.064 53.752C277.425 53.858 276.382 53.7885 275.558 53.8059C274.735 53.8234 273.929 53.867 273.049 53.8654C272.285 53.8659 271.639 53.9133 271.172 54.0032C270.104 54.1517 268.802 54.2391 267.325 54.2613C265.37 54.2999 263.522 54.3875 261.535 54.3682C261.563 54.4765 261.441 54.5686 261.181 54.6351C260.921 54.7016 260.533 54.7401 260.056 54.7465C257.931 54.7879 256.003 54.8955 253.85 54.9273L253.273 54.9276L246.832 54.9898C245.096 55.0018 243.424 55.0216 241.654 55.0353C240.991 54.9532 240.975 55.0945 240.516 55.0676C240.388 54.998 240.237 54.9673 240.011 55.005L239.962 55.0885L232.61 55.1992C229.732 55.2801 226.705 55.3044 223.553 55.2718C222.806 55.28 222.108 55.3076 221.471 55.3543C220.881 55.3714 220.265 55.3789 219.628 55.3769C218.766 55.3558 217.924 55.3452 217.105 55.3451C214.951 55.3769 212.691 55.3598 210.333 55.3364C207.975 55.3131 206.188 55.3545 204.089 55.3514C202.667 55.3485 201.252 55.3345 199.781 55.3015C199.078 55.2862 198.213 55.2028 197.485 55.1725C196.757 55.1421 196.52 55.1425 196.424 55.1903C196.107 55.3243 195.311 55.2377 194.675 55.2246C193.435 55.2023 193.258 55.1566 192.921 54.8103L194.444 54.7003C194.817 54.6647 195.286 54.6585 195.806 54.6821C196.327 54.7058 196.88 54.7585 197.414 54.8352C197.624 54.8681 197.843 54.8941 198.06 54.9116C198.276 54.9292 198.485 54.938 198.675 54.9376C200.211 54.9188 201.725 54.8795 203.201 54.8473L203.417 54.8263L203.431 54.5174C203.235 54.4871 203.033 54.462 202.831 54.4431L195.427 54.2427C193.728 54.1935 191.963 54.0825 190.296 54.0372C188.628 53.9919 187.73 53.9643 186.436 53.9175C185.89 53.8908 185.333 53.8558 184.77 53.8127C184.802 53.7829 184.821 53.7513 184.826 53.7181C184.856 53.668 184.895 53.6012 184.656 53.5477C184.395 53.4721 184.046 53.4076 183.678 53.3669C183.334 53.3401 182.999 53.3249 182.688 53.322C181.187 53.2961 179.472 53.1329 177.909 52.8673L177.363 53.0446C175.016 52.945 172.634 52.8471 170.183 52.7525C169.692 52.7267 169.177 52.6772 168.676 52.6076C168.139 52.5412 167.645 52.4024 167.08 52.3264C166.522 52.2718 165.968 52.2292 165.427 52.1993C165.574 52.1537 165.767 52.1173 166 52.0911C166.23 52.0819 166.397 52.0534 166.477 52.0097C166.558 51.9661 166.548 51.9094 166.449 51.8481C166.274 51.7429 166.197 51.6438 166.577 51.6311C166.929 51.6071 167.18 51.5552 167.302 51.4814C167.424 51.4076 167.411 51.315 167.265 51.2146C167.201 51.1559 167.156 51.0985 167.13 51.0426L166.972 51.023C166.451 50.8152 165.411 50.7402 164.665 50.5701C164.312 50.5208 163.948 50.4924 163.628 50.4895C162.803 50.4529 161.999 50.437 161.145 50.391C160.737 50.3698 160.311 50.3312 159.891 50.2774C159.291 50.2031 159.228 50.1953 158.879 49.9252C159.42 49.93 159.849 49.8896 160.093 49.811C160.337 49.7324 160.382 49.6205 160.219 49.494C159.773 49.2178 159.302 48.9265 157.283 48.7302C157.941 48.7206 158.575 48.7013 159.181 48.6727C159.357 48.6665 159.49 48.6462 159.56 48.6145C159.63 48.5828 159.634 48.5412 159.573 48.4953C159.512 48.4494 159.388 48.4014 159.217 48.3577C159.046 48.3139 158.837 48.2766 158.618 48.2506C157.553 48.0943 156.441 47.9897 155.408 47.9486C154.538 47.9304 153.752 47.9406 152.736 47.9401L151.536 47.7916C151.556 47.7582 151.38 47.7125 151.425 47.6941C151.73 47.5229 152.066 47.3555 152.412 47.1715C151.859 47.0721 151.38 46.9521 151.03 46.8253C150.679 46.6984 150.472 46.5699 150.431 46.4543C150.401 46.4195 150.409 46.3877 150.454 46.3613C150.499 46.3348 150.58 46.3144 150.691 46.3014C151.007 46.279 151.251 46.2364 151.404 46.1766C151.557 46.1169 151.615 46.0416 151.573 45.9568L150.64 45.6441C147.831 45.4211 145.073 45.2617 142.416 45.169L140.018 45.0989C139.729 45.0153 139.818 44.9786 140.09 44.9765C140.363 44.9744 141.128 44.9976 141.663 45.0101C142.125 45.0265 142.535 45.0157 142.854 44.9788C143.173 44.9419 143.389 44.8801 143.482 44.7994L142.677 44.4429C142.717 44.3761 142.773 44.2815 143.209 44.2879C143.508 44.2801 143.728 44.2465 143.834 44.1925C143.939 44.1384 143.925 44.067 143.793 43.9898C143.773 43.934 143.803 43.8832 143.882 43.8396C144.528 43.836 145.17 43.838 145.757 43.821C146.03 43.8154 146.26 43.7947 146.433 43.7604C146.605 43.7261 146.715 43.679 146.756 43.6222C146.777 43.5669 146.725 43.5038 146.605 43.4381C146.485 43.3724 146.3 43.3059 146.065 43.244C145.146 43.1675 144.306 43.1665 143.728 43.2413C143.522 43.2999 143.191 43.3319 142.779 43.3331C142.367 43.3343 141.893 43.3047 141.42 43.248C140.878 43.1828 140.337 43.1541 139.894 43.1671C139.452 43.1802 139.136 43.2341 139.005 43.3193C138.449 43.2862 137.956 43.2609 137.469 43.2245C136.895 43.1786 136.352 43.1651 135.899 43.1854C135.175 43.1998 134.395 43.1914 133.576 43.1604C131.216 43.0831 128.852 43.0113 126.567 42.9791C125.962 42.9699 125.439 42.9947 124.841 42.9744C124.244 42.9541 123.771 43.009 123.023 42.8985C122.88 42.8813 122.737 42.8702 122.604 42.8662C122.471 42.8622 122.352 42.8653 122.257 42.8753C120.944 42.9627 119.404 42.975 117.729 42.9116C115.433 42.8961 113.053 42.8521 110.755 42.8422C110.081 42.8507 109.444 42.8737 108.85 42.9109C108.399 42.9333 107.926 42.9485 107.434 42.9564C107.057 42.9635 106.697 42.9427 106.76 43.064C106.824 43.1854 106.259 43.1095 105.933 43.087C104.815 43.0282 103.671 42.9486 102.516 42.849C101.378 42.7407 100.263 42.6778 99.2373 42.6638C98.4966 42.6557 97.7328 42.6865 96.7805 42.5208C96.8168 42.4596 96.853 42.3984 97.0603 42.3345C96.2837 42.1586 95.3976 42.0074 94.4753 41.8931C93.553 41.7789 92.6211 41.705 91.7565 41.6776L90.5644 41.3448C90.2708 41.3057 89.9712 41.2773 89.6836 41.2612C89.396 41.245 89.1266 41.2416 88.8916 41.2511C88.71 41.2559 88.4888 41.2435 88.2684 41.2163C88.048 41.189 87.8433 41.1486 87.6919 41.1025C87.4655 41.0439 87.1891 40.9934 86.897 40.9572C86.605 40.921 86.3105 40.9008 86.0503 40.8992C85.2312 40.863 84.3568 40.7794 83.5167 40.6571C83.2987 40.5853 83.1621 40.5112 83.1237 40.4438C83.0853 40.3765 83.147 40.3188 83.3009 40.278C83.5491 40.2059 83.6884 40.114 83.7105 40.0079C83.7326 39.9018 83.6369 39.7838 83.4294 39.6609C83.3231 39.5854 83.2876 39.514 83.325 39.4509C83.3624 39.3878 83.4719 39.3343 83.647 39.2937C84.3005 39.1059 84.1257 39.0006 83.0565 38.689C82.8828 38.6371 82.6734 38.5885 82.4417 38.5465C82.2099 38.5044 81.9609 38.4697 81.7103 38.4447C81.1223 38.3939 80.5423 38.3561 79.981 38.332C79.6653 38.2929 79.3415 38.3245 78.9778 38.3093C77.159 38.2333 76.8928 38.1108 76.3037 37.8467L75.8744 37.6562C75.0783 37.5019 74.2076 37.3737 73.325 37.2809C72.4424 37.1881 71.57 37.133 70.7705 37.1196C70.4528 37.1186 70.0875 37.0922 69.7306 37.0446C68.5692 36.8988 67.393 36.7979 66.28 36.7486C65.5864 36.7208 64.8388 36.649 64.1269 36.5418C63.415 36.4345 62.7691 36.2964 62.2668 36.144C61.8156 36.0068 61.2253 35.8835 60.578 35.7916C59.8203 35.6977 59.7502 35.5875 60.1733 35.5025C60.5964 35.4176 61.305 35.3083 61.934 35.219C62.1529 35.1886 62.2885 35.1393 62.3258 35.0764C62.3631 35.0135 62.3005 34.9396 62.1451 34.8629C62.0453 34.7316 62.028 34.6071 62.0936 34.4923C62.1287 34.4445 62.1045 34.3898 62.0226 34.3318C61.9408 34.2738 61.8032 34.2138 61.6191 34.1559C61.435 34.098 61.2088 34.0436 60.9556 33.9962C60.7024 33.9489 60.4281 33.9097 60.1513 33.8814C58.9832 33.7368 57.8466 33.596 56.6555 33.4903C56.1563 33.4404 55.6576 33.3787 55.1717 33.3065C54.177 33.128 53.1128 32.98 52.041 32.871C51.5323 32.8223 51.035 32.7371 50.6567 32.6338C49.4634 32.3557 48.3638 32.0633 47.378 31.7619C47.1403 31.6685 46.8294 31.5773 46.4647 31.4941C46.1 31.4109 45.6893 31.3375 45.2585 31.2785C44.9112 31.2355 44.6285 31.1407 44.3609 31.0777C44.1664 30.9318 44.1456 30.7968 44.3005 30.6854C44.4554 30.5741 44.781 30.4899 45.2466 30.4409C45.6881 30.3821 46.1012 30.3139 46.4829 30.2417C46.943 30.1834 47.4899 30.1483 48.1033 30.1378C48.8299 30.1065 49.3671 30.017 49.645 29.8809C47.6561 29.6346 45.7647 29.2809 44.0213 29.3635L42.6967 29.1398C42.7495 29.0507 42.7956 28.9729 42.8385 28.9005C43.1535 28.7689 43.2519 28.6028 43.1254 28.4165C43.021 28.3263 43.0304 28.2443 43.1526 28.1787C43.2748 28.1131 43.5055 28.0662 43.8213 28.0428C45.6918 27.8027 47.855 27.6407 49.6092 27.3682C50.1592 27.3171 50.803 27.2939 51.5137 27.2995C52.2011 27.2832 52.1724 27.1602 51.3812 27.0084C50.9372 26.9291 50.4846 26.8532 50.0251 26.7808C47.999 26.7687 47.1736 27.1323 44.8615 27.031L43.7898 26.5519C43.5001 26.5445 43.2188 26.5416 42.9478 26.5432L39.071 26.7379C38.7481 26.7476 38.4967 26.7809 38.3455 26.834C38.1942 26.887 38.1491 26.9577 38.2154 27.038C38.2416 27.1362 38.1882 27.2263 38.0571 27.3051C37.9725 27.3602 38.0266 27.4334 38.2075 27.5088C38.6151 27.6787 38.0921 27.7035 37.7618 27.7462C37.6774 27.7504 37.58 27.75 37.4754 27.7449C37.3708 27.7399 37.2609 27.7304 37.1523 27.7169C37.0436 27.7035 36.9383 27.6863 36.8424 27.6665C36.7465 27.6467 36.662 27.6246 36.5937 27.6016C36.0118 27.4399 35.5028 27.2694 34.9308 27.091C35.3369 26.9204 34.859 26.6402 35.4928 26.4858C35.5636 26.455 35.592 26.4174 35.5761 26.3754C35.5602 26.3333 35.5004 26.2878 35.4003 26.2415C35.1423 26.1219 35.0194 26.0053 35.044 25.9035C35.0687 25.8017 35.24 25.7183 35.5407 25.6616L35.5769 25.6004C34.7839 25.3947 34.994 25.2117 34.6825 24.994L33.9196 24.8517C32.0216 24.5092 32.0183 24.5147 30.3843 24.5273C30.0549 24.397 30.4734 24.3771 30.7872 24.3623L33.4154 24.216C35.1338 24.1183 36.9022 24.0506 38.8218 24.0137C40.7414 23.9767 42.8814 23.8536 44.8656 23.7649C44.9659 23.758 45.0426 23.7444 45.0894 23.7253C45.1361 23.7062 45.1514 23.682 45.1341 23.6548C45.0553 23.6255 44.952 23.5971 44.832 23.5719C44.7121 23.5468 44.5784 23.5253 44.4409 23.5093C43.8095 23.4311 43.1617 23.3807 42.4888 23.3153L41.2345 23.2017L40.8486 23.0524C40.5974 22.9616 40.4258 22.8507 40.0918 22.7855C39.8164 22.7368 39.5176 22.6999 39.2263 22.6785C38.935 22.6571 38.6619 22.6521 38.4356 22.664C37.808 22.6937 37.2402 22.7369 36.6408 22.7761C36.0415 22.8153 35.7112 22.858 35.1915 22.8773C34.1356 22.886 33.1151 22.9092 32.1345 22.9466C31.3085 23.035 30.5446 23.1399 29.8474 23.2605C29.4125 23.3082 29.0058 23.3653 28.2632 23.3032C27.9109 23.2468 27.6071 23.1729 27.4055 23.0943C27.2039 23.0158 27.1176 22.9378 27.162 22.8741C27.2019 22.8243 27.3147 22.7848 27.4898 22.7595C27.6649 22.7341 27.8965 22.7238 28.1628 22.7294C28.9082 22.7202 29.5975 22.6893 30.2167 22.6374C31.0787 22.5433 32.128 22.5027 33.3034 22.518C33.702 22.5316 33.9692 22.481 34.3179 22.4645C34.6665 22.448 34.9619 22.4069 35.3507 22.4372C36.5583 22.5151 37.1374 22.3957 37.8611 22.3181C38.1061 22.2837 38.2579 22.2281 38.2998 22.1574C38.3417 22.0868 38.272 22.0037 38.0985 21.9175C37.7645 21.7458 37.3559 21.5731 36.8791 21.4022C36.6337 21.3182 36.3192 21.2384 35.9605 21.1691C35.6018 21.0998 35.2084 21.0429 34.8113 21.0028C34.5737 20.8976 34.4469 20.7942 34.4425 20.7019C34.438 20.6096 34.5561 20.5313 34.7859 20.4741C35.3715 20.3436 35.8907 20.2108 37.203 20.2838C37.82 20.3116 38.4006 20.317 38.9218 20.2996C40.078 20.2758 41.4115 20.3279 42.7969 20.4511C43.1554 20.4826 43.5077 20.5041 43.8435 20.515C46.2385 20.5907 48.5204 20.6284 50.809 20.6551C52.0213 20.6679 53.2436 20.664 54.5092 20.7013C57.4772 20.7823 60.179 20.7406 63.0438 20.767C64.5442 20.7806 65.8872 20.7261 67.0023 20.6063C67.2194 20.5662 67.4059 20.5193 67.5596 20.4663C66.8206 20.3272 66.009 20.2171 65.2023 20.1465C64.3957 20.0758 63.6211 20.0471 62.9528 20.063C62.5854 20.1019 62.1104 20.109 61.5811 20.0835C61.0517 20.058 60.4886 20.0009 59.9546 19.9186L61.5072 19.872C62.5367 19.8502 63.5912 19.8435 64.5924 19.8122C66.1832 19.7584 67.6574 19.6722 69.3047 19.6374C70.6346 19.6053 71.8247 19.5234 72.8376 19.3941C73.5693 19.2999 74.4051 19.233 75.3278 19.1949C75.9837 19.1747 75.9837 19.1747 76.403 18.9817C76.0703 18.8569 75.6402 18.8395 75.2349 18.8371C72.8055 18.7586 70.4936 18.7448 68.3462 18.7961C67.2627 18.8006 66.3015 18.8535 65.5087 18.9523C65.3146 18.9939 64.8179 18.9742 64.4193 18.9607C63.1697 18.9401 61.9753 18.946 60.8506 18.9785C59.2956 19.0326 57.5637 19.0198 55.7222 18.9405C55.373 18.8435 55.7749 18.8515 55.7947 18.8181C57.221 18.7559 58.619 18.6842 60.0735 18.6314C60.4711 18.6126 60.8962 18.6033 61.3438 18.6036C63.0151 18.6363 64.4077 18.5457 65.3267 18.3445C65.3729 18.2666 65.9774 18.2758 66.2446 18.2252C66.376 18.1815 66.4635 18.13 66.5046 18.0723C66.1154 17.9286 65.6753 17.9278 65.3365 17.9276C64.3534 17.9437 63.4077 17.9741 62.5038 18.0187C61.6636 18.0612 60.7335 18.0726 59.7388 18.0525C59.0047 18.0332 58.3771 18.063 57.6364 18.0549C57.2346 18.0378 56.8187 18.0103 56.3972 17.9731C56.8666 17.8729 57.5046 17.8112 58.2664 17.7925C58.8441 17.7327 59.5664 17.7146 59.6587 17.5589C59.3859 17.4474 59.0819 17.4456 58.8378 17.4572C58.3298 17.4568 57.8391 17.4638 57.3682 17.4782C56.3699 17.5099 55.2889 17.5103 54.1481 17.4795C53.5474 17.468 52.9774 17.4715 52.4476 17.4899C51.247 17.5144 50.0964 17.5689 48.9972 17.594C46.7454 17.6197 44.6916 17.7117 42.5279 17.7602C42.0463 17.7723 41.6147 17.8143 40.98 17.7417C40.3453 17.6691 40.317 17.6596 40.2421 17.6145C40.0645 17.5392 40.0107 17.4663 40.0918 17.4107C40.2177 17.3589 40.4629 17.33 40.7839 17.3292C42.7181 17.2467 44.5526 17.1309 46.276 16.9823C47.0345 16.9525 47.699 16.8918 48.2464 16.8023C48.6806 16.7407 49.1957 16.6999 49.7754 16.6812C50.6186 16.6366 51.4976 16.6039 52.4089 16.5833C52.8329 16.5722 53.1934 16.5392 53.4693 16.4862C53.7451 16.4332 53.9307 16.3612 54.015 16.2746L52.8979 15.987C52.7223 15.9736 52.5482 15.962 52.3763 15.9522L43.1038 16.1594L42.1855 16.1651C41.179 16.148 40.9331 16.1056 39.9784 15.7723C42.1571 15.6939 43.8699 15.4654 44.946 15.1096C44.6874 15.0713 44.4222 15.0385 44.1567 15.0118C42.4155 14.9277 40.7696 14.9053 39.2823 14.9456C38.3988 14.9496 37.4904 14.9387 36.5787 14.9332C36.8453 14.7692 37.8668 14.8181 38.5326 14.7811C40.1234 14.7232 41.5301 14.6037 42.7077 14.4263C43.1138 14.3571 43.6217 14.3129 44.2084 14.2956C44.7955 14.2897 45.2859 14.2478 45.637 14.1737C45.988 14.0996 46.1891 13.9954 46.2226 13.8703C46.2779 13.757 46.3971 13.6517 46.5783 13.556C46.2577 13.4202 45.7485 13.2902 45.1463 13.1904C44.5441 13.0905 43.8904 13.0276 43.3077 13.0136C42.064 12.9577 40.7739 12.8662 39.4704 12.7414C38.8211 12.6784 38.1843 12.6423 37.6016 12.6353C37.0877 12.63 36.5036 12.5845 35.9384 12.5059C35.3731 12.4272 34.8578 12.3198 34.471 12.1998C33.9489 12.0515 33.4616 11.9016 32.9744 11.7517C32.4871 11.6018 31.9217 11.4123 31.353 11.2284C30.8515 11.1996 30.3632 11.1811 29.8946 11.1732C29.5301 11.1799 29.1048 11.1599 28.6688 11.1154C28.2328 11.0709 27.8043 11.0039 27.434 10.9222C27.6512 10.8416 27.8967 10.7705 28.1554 10.6771C27.8003 10.5538 27.5429 10.428 27.3988 10.3075C27.2547 10.187 27.2268 10.0742 27.317 9.97606C27.3698 9.88704 26.9838 9.73772 26.8505 9.61968C26.6788 9.51792 26.6465 9.42296 26.7579 9.34723C26.8693 9.27151 27.1192 9.21857 27.4748 9.19536C27.9158 9.1525 28.2747 9.08797 28.5368 9.0044C28.6235 8.98271 28.6676 8.953 28.6651 8.91799C28.6627 8.88298 28.6137 8.8438 28.5226 8.80401C28.4316 8.76422 28.3014 8.7251 28.144 8.69023C27.9866 8.65537 27.8071 8.62586 27.6217 8.60441C27.0538 8.54361 26.4898 8.5042 25.9621 8.48845C25.053 8.45946 24.1827 8.44126 23.3513 8.43383C22.4317 8.42265 21.4086 8.35363 20.386 8.23379C19.4705 8.1204 18.6497 8.01874 18.202 7.80205C17.7543 7.58536 17.0386 7.59227 16.4882 7.43452C16.7974 7.29233 17.3469 7.19353 18.0813 7.1481C18.5618 7.13188 18.963 7.08932 19.259 7.02314C19.555 6.95696 19.7393 6.86862 19.8001 6.76379L18.1292 6.32393C16.7947 6.11686 16.0564 6.27624 14.6146 6.19321L16.1002 6.03084C16.1301 6.01479 16.1412 5.99595 16.1332 5.9752C15.9889 5.6468 15.7595 5.57657 14.2408 5.39445L13.3884 5.28889L12.0394 5.1636C11.8233 5.0963 11.6739 5.02612 11.606 4.96006C11.5381 4.89401 11.5541 4.83441 11.6525 4.78723C11.8501 4.70788 11.9102 4.60647 11.8272 4.49236C11.6964 4.41677 11.6856 4.34708 11.7967 4.29539C11.9078 4.2437 12.1338 4.21326 12.4355 4.20938C12.6763 4.20337 12.6941 4.116 12.8251 4.06654C12.9553 3.99835 13.178 3.94603 13.4782 3.91314C13.7784 3.88024 14.1489 3.86753 14.5646 3.87589C15.7904 3.88271 16.9419 3.85712 17.9986 3.79956L17.8092 3.7761C18.9107 3.82663 19.9404 3.83276 20.8483 3.79419C21.7582 3.74563 22.9258 3.77678 23.8922 3.74717C24.679 3.75396 25.2779 3.68676 25.5621 3.55984C25.8372 3.43864 26.8371 3.46693 27.6027 3.4901C28.0563 3.50508 28.4947 3.51143 28.9132 3.50907C29.4749 3.48164 30.1772 3.5075 30.903 3.58233C31.1208 3.60533 31.3353 3.6175 31.5259 3.61768C33.3711 3.64913 35.2129 3.68615 37.0331 3.70257C37.4532 3.69311 37.9459 3.71476 38.4532 3.76499C38.6665 3.78679 38.874 3.79582 39.048 3.79087C41.9241 3.74099 45.1696 3.86825 47.9891 3.79942C48.3309 3.78317 48.7092 3.77979 49.1134 3.78937C50.0217 3.8298 50.8105 3.80378 51.36 3.71527C51.6565 3.66819 52.0366 3.64225 52.476 3.6391C52.9155 3.63595 53.4047 3.65565 53.9124 3.69697C54.7573 3.75167 55.5382 3.75759 56.1726 3.71414C57.4097 3.67398 58.7106 3.65747 60.0651 3.66473C60.4802 3.67176 60.845 3.65615 61.1314 3.61913C61.4178 3.58211 61.618 3.52465 61.7165 3.45123C61.3839 3.32642 61.0201 3.31123 60.6748 3.3222C59.3361 3.29376 58.0008 3.25976 56.6871 3.24635C55.5113 3.20807 54.3831 3.19636 53.3191 3.21142C52.7907 3.22839 52.1315 3.18968 51.4852 3.10372C50.6931 2.99487 49.8773 2.94078 49.2027 2.95241C48.7026 2.9553 48.1746 2.94593 47.6266 2.92442C47.2758 2.89849 46.9162 2.85395 46.5848 2.7954C46.4533 2.76996 46.3101 2.74857 46.1645 2.7326C46.0189 2.71664 45.8741 2.70645 45.7392 2.70267C45.6043 2.69889 45.4823 2.7016 45.3811 2.71065C45.2799 2.7197 45.2018 2.73489 45.1515 2.75523C44.644 2.92529 43.5094 2.8385 42.5378 2.81969C41.0818 2.53186 39.9981 2.70222 38.6373 2.53965C38.5297 2.52888 38.4237 2.52235 38.3257 2.52048C38.2278 2.51862 38.14 2.52146 38.0676 2.52881C35.4342 2.62666 32.3649 2.54512 29.6 2.57891C29.2951 2.58385 28.9411 2.56691 28.5785 2.53003C26.2082 2.28588 23.9292 2.21657 22.1872 2.33564C21.9753 2.34637 21.7341 2.34683 21.4748 2.33699C20.2838 2.23996 19.1448 2.20127 18.1529 2.22416C16.5985 2.21677 15.1039 2.22276 13.5245 2.20034C12.4358 2.16842 11.4806 2.20252 10.7548 2.29923C10.7318 2.33817 10.2483 2.2962 9.87793 2.29214C9.66494 2.1941 9.48027 2.10554 9.26069 2.01862C9.06439 1.91109 8.77033 1.80228 8.39855 1.69956C8.02677 1.59684 7.58598 1.50263 7.10588 1.42329C6.28505 1.32163 6.20297 1.1741 6.77733 1.11983C8.25776 0.940264 10.1193 0.866771 12.2252 0.904741C13.9855 0.907775 15.7775 0.914727 17.5628 0.932799C18.6041 0.948303 19.7019 0.98274 20.715 0.98877C21.0568 1.00202 21.4079 1.02154 21.7648 1.04713C22.2026 1.08424 22.6277 1.10446 23.0172 1.1067C24.2679 1.07545 25.6636 1.10267 27.1378 1.18706C27.6778 1.20547 28.1963 1.21167 28.6856 1.20558C29.8432 1.18267 31.0982 1.19953 32.4174 1.25571C33.2373 1.28738 34.0322 1.30395 34.7941 1.30522C35.0631 1.30868 35.2822 1.28207 35.5414 1.30222C37.8224 1.51308 39.4376 1.36078 41.4906 1.44186C42.4884 1.46447 43.4417 1.46453 44.337 1.44205C46.0844 1.44314 47.8804 1.46626 49.718 1.51131C52.1479 1.58532 54.3997 1.55964 56.7198 1.5902C57.1778 1.59662 57.6201 1.59553 58.0434 1.58692C60.1024 1.53004 62.3387 1.54211 64.6979 1.62281C65.2337 1.63447 65.7148 1.62021 66.1112 1.58094C66.5077 1.54167 66.8109 1.47823 67.002 1.39458C67.0828 1.33718 67.0304 1.26261 66.8549 1.18527C66.5637 1.08651 66.2349 0.989736 65.8739 0.896556L52.7414 0.583878C52.1898 0.567551 51.6519 0.558761 51.1304 0.557547C49.5967 0.554828 48.0157 0.530504 46.3955 0.484694C44.7944 0.441664 43.2649 0.449302 41.7137 0.436347C41.2568 0.432007 40.7878 0.421767 40.3087 0.405657C37.07 0.278154 33.9118 0.200278 30.8566 0.172585C29.5712 0.168655 28.1826 0.110139 26.8722 0.0911732C25.5619 0.0722053 23.7699 0.0652622 22.2155 0.0578694L17.4029 0.0590037C16.4563 0.0552313 15.5346 0.0664908 14.6163 0.0721907C13.5018 -0.334573 13.1178 -0.429914 11.6307 -0.608122C11.122 -0.673859 10.6045 -0.713088 10.1389 -0.721217C8.66272 -0.689062 6.81045 -0.822916 5.41057 -0.805194C4.56586 -0.813936 3.84908 -0.768748 3.33362 -0.674258C2.88616 -0.600101 2.37449 -0.541422 1.8065 -0.499108C0.250579 -0.847084 0.113457 -1.07308 1.28386 -1.16103C1.60097 -1.18148 2.03775 -1.17515 2.26674 -1.21845C2.39813 -1.24483 2.57762 -1.25991 2.79091 -1.26252C3.00419 -1.26512 3.24538 -1.25519 3.49554 -1.23348C4.28508 -1.17653 5.02511 -1.16314 5.64138 -1.19465C6.22135 -1.23634 6.93226 -1.23468 7.70559 -1.18981C8.27386 -1.11943 8.77333 -1.21881 9.26477 -1.24752C9.75621 -1.27623 10.1595 -1.32781 10.9271 -1.25066C11.0676 -1.2353 11.2072 -1.22607 11.335 -1.2237C11.4628 -1.22133 11.5755 -1.22586 11.6645 -1.23696C12.4889 -1.28665 13.4727 -1.28143 14.5359 -1.22173C16.1667 -1.16298 17.6967 -1.16077 19.073 -1.21519C19.8968 -1.26281 20.5992 -1.34725 21.1527 -1.46522C21.3036 -1.50467 21.5276 -1.52833 21.8034 -1.53393C23.1881 -1.50931 24.6917 -1.41668 26.2171 -1.26199C26.7917 -1.20001 27.3656 -1.15099 27.9266 -1.11596C29.0794 -1.03815 30.1944 -0.994545 31.2385 -0.986442C32.7558 -0.985158 34.3355 -0.95522 35.9636 -0.896898C36.9684 -0.864425 37.9366 -0.85244 38.8567 -0.861072C39.8024 -0.865141 40.8121 -0.840371 41.8629 -0.787336C42.9079 -0.744119 43.8289 -0.769019 44.5147 -0.859026C44.7405 -0.907527 44.9224 -0.965121 45.057 -1.03073C43.5269 -1.24424 41.9444 -1.35274 40.6282 -1.3344C40.1283 -1.34854 39.7132 -1.33427 39.1864 -1.41743L39.1699 -1.38961C39.0651 -1.37156 38.9069 -1.3673 38.7256 -1.37765C38.5442 -1.38799 38.3524 -1.41222 38.1866 -1.44571C38.2492 -1.55141 38.3086 -1.65156 38.3514 -1.72389C39.3543 -1.71113 40.328 -1.71216 41.2676 -1.72699C42.0597 -1.74833 43.1349 -1.56141 43.8205 -1.63177C45.1577 -1.54379 46.0092 -1.66527 47.2083 -1.63022C48.4075 -1.59516 49.7283 -1.47936 50.9274 -1.4443C51.9738 -1.42507 52.9899 -1.42088 53.9699 -1.43178C54.3081 -1.44707 54.6981 -1.44348 55.1158 -1.42124C55.703 -1.37938 56.2491 -1.37237 56.6916 -1.401C57.1341 -1.42964 57.4551 -1.49277 57.6177 -1.58315C57.4646 -1.66781 57.2582 -1.77697 57.0203 -1.89005C57.458 -1.98297 58.1229 -2.02209 58.9162 -2.0016L60.0372 -2.00609C60.3343 -2.00364 60.5613 -2.02876 60.6715 -2.07625C60.7816 -2.12374 60.7664 -2.18997 60.629 -2.26125C58.5034 -2.62006 58.4251 -2.65962 56.8651 -2.42883L54.7937 -2.53607L54.8286 -2.53772ZM82.8455 -1.55208L82.6877 -1.57162L82.8455 -1.55208ZM340.978 36.6232L340.942 36.6844L340.982 36.6177L341.329 36.6607L341.352 36.6217L340.978 36.6232ZM290.558 9.79924C290.067 9.73247 289.571 9.67109 289.074 9.61547C288.944 9.60684 288.822 9.60489 288.719 9.60979C288.616 9.61468 288.534 9.62627 288.481 9.64357C288.442 9.71033 288.719 9.75666 288.972 9.78794C289.29 9.83004 289.616 9.85679 289.914 9.86544C290.213 9.87409 290.474 9.86432 290.671 9.83714L290.956 9.81278L290.558 9.79924ZM37.7379 26.0711C38.061 26.0824 38.3675 26.0842 38.6497 26.0766C39.9016 26.0226 41.1002 25.9441 42.3837 25.8941C44.0032 25.767 45.8641 25.7153 47.8966 25.7408C48.6906 25.7532 49.3615 25.7121 49.8308 25.622C50.1118 25.5737 50.4744 25.5455 50.8966 25.539L56.27 25.3924C56.6021 25.3619 56.8893 25.3192 57.1247 25.2653C56.6511 25.2067 56.3355 25.1676 56.146 25.1441C55.753 25.1375 55.4152 25.1554 55.1664 25.196C54.8993 25.2647 54.4476 25.2919 53.9013 25.2722C53.3497 25.2558 52.8118 25.2471 52.2904 25.2458C51.3056 25.2493 50.3141 25.2638 49.3261 25.2729C48.9416 25.4641 47.807 25.3773 46.8354 25.3585L46.0848 25.3671C43.6312 25.4662 41.2876 25.6026 39.0651 25.7757C38.6356 25.8049 38.2655 25.8516 37.9664 25.9143C37.8537 25.9632 37.8176 26.0241 37.8609 26.0923L37.7031 26.0728L37.7379 26.0711ZM147.302 44.3587C147.897 44.3718 148.517 44.3985 149.152 44.4386C149.642 44.4796 150.119 44.5044 150.566 44.5122C153.068 44.5551 155.676 44.6541 158.354 44.8079C158.704 44.8312 159.041 44.8426 159.351 44.8418L161.542 44.8027C162.233 44.7808 162.246 44.7585 161.744 44.4633C161.326 44.406 160.904 44.3538 160.481 44.3069C160.228 44.2756 159.818 44.2248 159.722 44.2726C159.136 44.4031 158.068 44.3186 157.169 44.2909C154.568 44.2196 151.886 44.1143 149.26 44.028C148.705 44.0069 148.167 43.9962 147.652 43.9961C147.333 43.9916 147.041 44 146.79 44.0207C146.717 44.0228 146.656 44.029 146.61 44.0388C146.565 44.0487 146.537 44.0619 146.527 44.0777C146.518 44.0935 146.528 44.1114 146.556 44.1304C146.584 44.1494 146.631 44.1689 146.692 44.1876C146.906 44.2533 147.155 44.3163 147.428 44.3744L147.302 44.3587ZM166.355 1.51702L168.917 1.48202C169.225 1.47827 169.485 1.43887 169.814 1.45572C171.569 1.50911 173.193 1.49424 174.618 1.41174C175.104 1.37807 175.671 1.37134 176.291 1.39192C178.186 1.45288 179.974 1.45539 181.606 1.39937C182.661 1.38812 183.649 1.35036 184.554 1.28664C184.623 1.27185 184.667 1.25177 184.681 1.22776C184.695 1.20376 184.68 1.1764 184.636 1.14755C184.625 1.12933 184.594 1.10972 184.545 1.09008C184.497 1.07045 184.432 1.05125 184.355 1.03381C184.279 1.01637 184.192 1.00111 184.101 0.989076C184.011 0.977039 183.918 0.968508 183.83 0.964081C182.687 0.877829 181.601 0.847781 180.663 0.876376C179.792 0.910589 178.855 0.920601 177.866 0.906254C176.92 0.902481 176.277 1.01404 175.108 0.928917C174.613 0.900884 174.177 0.910113 173.872 0.955056C173.26 1.02955 172.405 1.03369 171.459 0.966749C170.894 0.932869 170.353 0.91834 169.858 0.923715C168.658 0.948207 167.51 0.997208 166.398 1.04456C166.047 1.05551 165.672 1.05702 165.277 1.04906L159.707 0.956344C158.368 0.927902 157.033 0.893898 155.719 0.880494C154.645 0.851392 153.645 0.860506 152.755 0.907518C151.806 0.956928 150.771 0.976987 149.669 0.967317C147.959 0.994358 146.258 1.0047 144.397 1.00106C143.209 1.0033 141.994 0.996068 140.753 0.973795C140.126 0.945127 139.593 0.968472 139.257 1.03933C139.053 1.09767 138.573 1.05015 138.174 1.03661C136.048 0.906112 134.054 0.875193 132.332 0.946C132.112 0.957539 131.87 0.961715 131.613 0.958459C129.954 0.956029 128.235 0.940212 126.642 0.940038C126.223 0.945539 125.828 0.960634 125.463 0.985132C125.502 1.0251 125.614 1.06842 125.774 1.10611C125.935 1.14379 126.133 1.17296 126.326 1.18754C127.832 1.29921 129.287 1.35819 130.628 1.36203C132.861 1.34781 135.199 1.37979 137.62 1.45763C139.498 1.53611 141.211 1.51958 142.63 1.40929C143.74 1.32699 145.183 1.35796 146.712 1.49687C147.367 1.56321 148.002 1.58974 148.531 1.57283C149.04 1.55064 149.625 1.55602 150.25 1.58865C151.568 1.65069 152.836 1.67946 154.029 1.67442C155.194 1.65158 156.282 1.58919 157.479 1.57026C158.676 1.55133 160.5 1.56218 161.976 1.53002C163.452 1.49787 164.912 1.49354 166.355 1.51702ZM60.1829 -1.73723C60.3181 -1.56521 60.7969 -1.45813 61.3119 -1.41226C63.0875 -1.20859 64.8429 -1.12191 66.2834 -1.16679C67.0615 -1.22939 68.0988 -1.2053 69.1915 -1.09924C70.4639 -0.988985 71.6531 -0.9707 72.5497 -1.04761C72.7693 -1.06104 72.9375 -1.08945 73.0392 -1.1303C73.059 -1.16368 73.0953 -1.22488 73.1019 -1.23601C73.0077 -1.26423 72.8922 -1.29037 72.7642 -1.31243C72.6363 -1.33449 72.4994 -1.35187 72.364 -1.36322L66.4827 -1.56014L65.4578 -1.60348C63.5858 -1.717 61.802 -1.76223 60.1829 -1.73723ZM71.7515 0.985513C72.6694 1.26642 72.6726 1.26084 73.1429 1.32505C75.4115 1.59178 77.6787 1.73576 79.6745 1.73987C80.1181 1.73905 80.4946 1.71194 80.772 1.6608C80.9147 1.65387 81.0056 1.63185 81.0247 1.59954C81.0439 1.56724 80.9898 1.52726 80.8742 1.48833L80.1443 1.29044C78.8187 1.20476 77.5121 1.13669 76.2325 1.08663C74.7426 1.02751 73.4222 1.02523 71.8777 1.00114L71.7515 0.985513ZM147.192 43.1149C148.047 43.5015 148.05 43.4959 149.482 43.5957C150.48 43.6663 151.448 43.7078 152.357 43.7189C153.468 43.7311 154.608 43.7527 155.716 43.7705C155.986 43.7828 156.215 43.7726 156.359 43.7418C156.502 43.711 156.55 43.6619 156.492 43.6039C156.347 43.541 156.119 43.4801 155.847 43.4312C155.574 43.3823 155.273 43.3482 154.991 43.3344L154.387 43.3252C153.653 43.306 152.89 43.2772 152.181 43.273C151.721 43.289 151.188 43.2766 150.624 43.2368C150.059 43.197 149.479 43.1307 148.928 43.0434L147.192 43.1149ZM76.3187 -1.23174C76.5471 -1.16479 76.8054 -1.10066 77.0867 -1.04107C78.1761 -0.875898 79.329 -0.782087 80.3196 -0.778027C80.7879 -0.767796 81.2162 -0.804327 81.6931 -0.75124C82.5483 -0.680301 83.3772 -0.642513 84.1349 -0.639921C84.1349 -0.639921 84.3473 -0.655411 84.417 -0.658719L84.5621 -0.903515C84.2035 -0.960224 83.8294 -1.00655 83.4572 -1.04037C82.208 -1.1055 80.9806 -1.15002 79.7564 -1.20011C78.5323 -1.25021 78.1054 -1.27321 77.3049 -1.29473C76.9478 -1.2829 76.6175 -1.26181 76.3187 -1.23174ZM49.2684 29.2012L50.9031 29.7023C51.432 29.7458 51.9262 29.7537 52.3104 29.7247C52.6945 29.6958 52.9477 29.6316 53.0313 29.5419C53.1659 29.4999 53.1794 29.4377 53.0689 29.3683C52.9583 29.299 52.7324 29.2278 52.4385 29.1698C52.1556 29.1011 51.8327 29.0394 51.4896 28.9887C51.1466 28.938 50.7909 28.8994 50.4444 28.8751L49.2684 29.2012ZM62.8785 26.7065C61.8094 26.6216 60.7868 26.5868 59.8889 26.605C59.3232 26.6547 58.5566 26.6388 57.7464 26.5606C56.273 26.4047 54.8527 26.3616 53.7852 26.4402C53.7852 26.4402 53.7455 26.507 53.5646 26.5264C53.3837 26.5458 54.1013 26.5929 54.2591 26.6124C55.4169 26.6602 56.5812 26.6969 57.5876 26.7141C58.2125 26.7134 58.8734 26.7291 59.559 26.7612C60.5024 26.8106 61.3971 26.8266 62.2081 26.8086C62.2081 26.8086 62.5219 26.7937 62.8752 26.7121L62.8785 26.7065ZM177.059 0.60926C176.549 0.514899 175.995 0.438206 175.44 0.38494C174.884 0.331676 174.342 0.303225 173.853 0.301709C173.478 0.296786 173.176 0.3217 172.992 0.372514C172.808 0.423326 172.755 0.49714 172.839 0.582281C173.218 0.629201 173.723 0.691761 174.008 0.726951C174.992 0.723507 175.832 0.678261 177.059 0.60926ZM272.654 8.56114C272.244 8.48517 271.792 8.4271 271.351 8.39353C270.909 8.35997 270.496 8.35228 270.157 8.37134C269.982 8.37961 270.101 8.46592 270.071 8.51599C270.052 8.52735 270.052 8.54146 270.072 8.55687C270.091 8.57228 270.13 8.58841 270.183 8.60357C270.237 8.61873 270.303 8.63236 270.375 8.64304C270.447 8.65372 270.522 8.66105 270.593 8.66426C271.038 8.69698 271.457 8.70672 271.814 8.69261C272.172 8.6785 272.455 8.64098 272.64 8.58339L272.654 8.56114ZM279.058 9.64704C278.995 9.60221 278.86 9.5555 278.679 9.51545C278.497 9.4754 278.281 9.4447 278.069 9.42899C277.696 9.42688 277.357 9.43931 277.065 9.46581C276.748 9.48626 276.976 9.61603 277.405 9.69303C277.586 9.72393 277.78 9.74804 277.971 9.76343C278.162 9.77883 278.345 9.78507 278.505 9.78169C278.665 9.77831 278.798 9.76537 278.893 9.74393C278.988 9.72249 279.042 9.69312 279.052 9.65816L279.058 9.64704ZM92.946 -0.754973C91.9904 -0.91513 91.2549 -0.874838 90.4458 -0.939209C89.6368 -1.00358 89.4375 -1.01035 89.5459 -0.907347C89.6542 -0.804344 90.2089 -0.825233 90.5561 -0.782222C91.0253 -0.725151 91.4973 -0.69238 91.9194 -0.687566C92.3415 -0.682753 92.6969 -0.706093 92.946 -0.754973ZM292.071 26.3438C291.565 26.3078 291.069 26.2824 290.591 26.268C290.528 26.2829 290.489 26.3024 290.475 26.3253C290.462 26.3482 290.474 26.3741 290.512 26.4015C290.512 26.4015 290.836 26.4834 291.025 26.5069C291.723 26.5874 291.758 26.4722 292.071 26.3438ZM363.609 41.2654C363.951 41.3735 364.111 41.4471 364.385 41.4989C364.511 41.517 364.641 41.53 364.766 41.5372C364.891 41.5444 365.007 41.5455 365.106 41.5405C365.227 41.5093 365.255 41.4616 365.185 41.4069C365.185 41.4069 364.836 41.31 364.703 41.3054C364.324 41.2825 363.957 41.2691 363.609 41.2654ZM76.6805 -1.67066C75.9544 -1.76059 75.2598 -1.84662 74.7571 -1.74167C75.9101 -1.62873 75.9101 -1.62872 76.6805 -1.67066ZM88.441 -0.64407C87.7078 -0.836402 87.2776 -0.853856 86.9256 -0.831757C86.8508 -0.826192 86.8013 -0.813786 86.7846 -0.796423C86.7679 -0.779062 86.7848 -0.757687 86.833 -0.735531C86.8811 -0.713375 86.9577 -0.691646 87.0513 -0.673627C87.1449 -0.655609 87.2503 -0.642284 87.3516 -0.635668C87.7339 -0.630132 88.0986 -0.632943 88.441 -0.64407ZM126.177 -0.562741C126.194 -0.590559 126.214 -0.62394 126.024 -0.6474C125.975 -0.65931 125.916 -0.669551 125.855 -0.677101C125.794 -0.684651 125.733 -0.689238 125.677 -0.690405C125.677 -0.690405 125.657 -0.657023 125.644 -0.634769L126.177 -0.562741ZM152.382 45.621L151.961 45.6464L152.15 45.6699L152.65 45.684L152.382 45.621ZM300.868 9.21297C300.71 9.19341 300.553 9.17386 300.529 9.21281C300.496 9.21884 300.475 9.22755 300.469 9.23819C300.463 9.24884 300.471 9.26111 300.493 9.27401C300.493 9.27401 300.714 9.30138 300.809 9.31311L300.868 9.21297ZM276.285 9.52444C276.181 9.52221 276.087 9.52482 276.009 9.53211L275.989 9.56549L276.305 9.6046L276.285 9.52444ZM62.0448 17.4781C61.9228 17.4579 61.7936 17.4419 61.666 17.4312L61.508 17.4117C61.508 17.4117 61.6777 17.4685 61.7724 17.4802C61.8671 17.492 61.9435 17.4775 62.0448 17.4781Z" fill="#F5BD2D"/>
</svg>
