<svg width="43" height="38" viewBox="0 0 43 38" fill="none" xmlns="http://www.w3.org/2000/svg">
<rect width="43" height="38" fill="#2C2C2C"/>
<g id="Desktop - 1" clip-path="url(#clip0_0_1)">
<rect width="1440" height="4832" transform="translate(-322 -2488)" fill="#141415"/>
<g id="Frame 5">
<g clip-path="url(#clip1_0_1)">
<rect width="600" height="791" rx="16" transform="matrix(-1 0 0 1 380 -54)" fill="#072F1C"/>
<path id="Vector" d="M-166.744 -126.786L-373.572 27.2802L-219.089 186.767C-170.901 236.516 -85.8295 242.59 -29.0994 200.332L-27.7284 199.31C29.0017 157.052 35.9278 82.4496 -12.2604 32.7007L-166.744 -126.786Z" fill="#062718"/>
<g id="Group 36536">
<g id="Fresh2carts(1) 1" clip-path="url(#clip2_0_1)">
<g id="Layer 2">
<g id="Layer 1">
<path id="Vector_2" d="M15.3707 19.0174C13.8692 16.9224 15.1014 14.8476 15.01 12.6221C14.7076 12.9886 14.3545 13.3263 14.1093 13.7279C11.133 18.6094 11.3909 23.4608 14.8791 28.0498C17.7145 31.779 21.4073 34.376 25.7619 36.1295C29.0571 37.455 32.4678 38.1642 36.0095 37.9672C37.571 37.8638 39.1122 37.5595 40.594 37.0622C42.8221 36.3354 43.5272 34.6308 42.5986 32.5045C42.0218 31.184 41.0971 29.9941 40.6791 28.6297C39.8013 25.7766 39.0277 22.8784 38.4434 19.955C37.6304 15.8982 36.3105 12.1288 33.0026 9.39121C29.9221 6.84189 26.3653 5.962 22.5861 7.50841C18.45 9.1954 16.091 12.3773 15.5994 16.827C15.513 17.5551 15.4533 18.2868 15.3707 19.0174ZM33.6149 24.3231C33.808 20.0366 32.5987 15.9597 30.5243 12.2732C31.1721 13.0677 31.881 13.8221 32.4564 14.6656C34.7125 17.9718 34.7163 22.0298 35.3527 25.8218C35.6894 27.8301 36.2813 29.8046 37.5122 31.464C37.6124 31.615 37.6951 31.7767 37.7587 31.946C37.9657 32.4292 38.1868 33.0681 37.8654 33.5539C37.5681 34.0007 36.9304 34.0811 36.4363 34.0974C33.9922 34.1777 31.5596 34.1664 29.1777 33.4133C25.631 32.2899 22.4756 30.4924 19.9045 27.8741C17.3334 25.2557 16.7681 21.2341 17.7462 17.7923C17.8491 17.432 18.0003 17.0982 18.1375 16.7505C18.5376 17.604 18.7561 18.2567 19.1296 18.8165C19.5213 19.3809 19.9874 19.8913 20.5155 20.3341C22.0704 21.6633 23.8424 21.7738 25.5396 20.678C26.7451 19.8985 28.131 20.3291 29.3162 20.9115C30.5014 21.4939 31.8009 22.1428 32.7372 23.1118" fill="#F26A24"/>
<path id="Vector_3" d="M5.91353 9.40654C8.28774 7.72206 10.8284 7.54131 13.4084 7.75344C14.6456 7.85511 15.8944 8.04716 17.138 8.20782C16.6299 7.79612 16.2488 7.22876 15.7279 6.8271C13.3626 4.97442 10.6874 4.78112 7.97778 5.77398C6.25651 6.40159 4.67497 7.41704 3.02357 8.24297C2.06576 8.72371 1.08635 9.17558 0.000230389 9.69524C-0.0289868 9.73791 0.24413 10.1421 0.274617 10.1973C0.451041 10.4743 0.669062 10.7232 0.921205 10.9354C1.17527 11.1714 1.4361 11.3981 1.70372 11.6157C2.21713 12.0318 2.76341 12.4066 3.33734 12.7366C4.40721 13.3593 5.58272 13.7846 6.80655 13.9918C7.9992 14.1812 9.21781 14.1386 10.3939 13.8663C11.6556 13.5644 12.8512 13.0388 13.9228 12.3148C14.4515 11.9623 14.9546 11.5735 15.4282 11.1513C16.0709 10.5789 15.8804 10.2287 15.1741 9.89607C12.7033 8.71492 10.1348 8.57183 7.49506 9.09023C6.96407 9.19316 6.44579 9.33248 5.91353 9.40654Z" fill="#3BB54A"/>
<path id="Vector_4" d="M17.8268 7.83988C18.2511 6.09514 18.9231 4.42196 19.3512 2.67597C19.4668 3.88473 18.979 5.02571 18.9967 6.23447C18.9967 6.52819 19.1238 6.95119 19.3283 7.06793C19.5011 7.16583 19.9317 6.96625 20.1654 6.78927C22.4812 5.03952 22.5269 2.70359 21.4993 0.427905C21.2782 -0.178357 20.8705 0.0111781 20.6748 0.0965319C18.6245 0.995257 16.9655 4.2387 17.4038 6.40141C17.5029 6.8922 17.795 7.3403 17.8268 7.83988Z" fill="#1E9146"/>
</g>
</g>
</g>
</g>
</g>
</g>
</g>
<defs>
<clipPath id="clip0_0_1">
<rect width="1440" height="4832" fill="white" transform="translate(-322 -2488)"/>
</clipPath>
<clipPath id="clip1_0_1">
<rect width="600" height="791" rx="16" transform="matrix(-1 0 0 1 380 -54)" fill="white"/>
</clipPath>
<clipPath id="clip2_0_1">
<rect width="43" height="38" fill="white"/>
</clipPath>
</defs>
</svg>
