<svg width="43" height="27" viewBox="0 0 43 27" fill="none" xmlns="http://www.w3.org/2000/svg">
<path d="M13.8058 14.448C13.8058 13.4027 14.4458 12.88 15.7257 12.88C16.9844 12.88 17.6138 13.3813 17.6138 14.384V20.88C17.6138 22.608 17.0378 23.8987 15.8858 24.752C15.3311 25.1573 14.7551 25.4773 14.1578 25.712C13.5818 25.9253 13.0164 26.032 12.4618 26.032H5.80575C5.25108 26.032 4.67508 25.9253 4.07775 25.712C3.50175 25.4773 2.93642 25.1573 2.38175 24.752C1.82708 24.3253 1.40042 23.8027 1.10175 23.184C0.803083 22.544 0.65375 21.776 0.65375 20.88V5.68C0.65375 4.80533 0.803083 4.048 1.10175 3.408C1.42175 2.768 1.84842 2.24533 2.38175 1.84H2.34975C2.90442 1.47733 3.48042 1.17867 4.07775 0.943998C4.67508 0.709332 5.25108 0.591999 5.80575 0.591999H12.1418C12.6964 0.591999 13.2724 0.709332 13.8698 0.943998C14.4671 1.17867 15.0431 1.47733 15.5978 1.84H15.5658C16.6964 2.672 17.2618 3.952 17.2618 5.68V7.888C17.2618 8.912 16.6324 9.424 15.3738 9.424C14.1151 9.424 13.4858 8.912 13.4858 7.888V5.968C13.4858 5.43467 13.3258 4.944 13.0058 4.496C12.6858 4.048 12.1311 3.824 11.3418 3.824H6.63775C5.82708 3.824 5.26175 4.048 4.94175 4.496C4.62175 4.944 4.46175 5.43467 4.46175 5.968V20.624C4.46175 20.9013 4.49375 21.168 4.55775 21.424C4.64308 21.68 4.77108 21.9147 4.94175 22.128C5.11242 22.32 5.33642 22.48 5.61375 22.608C5.89108 22.736 6.23242 22.8 6.63775 22.8H11.6618C12.4511 22.8 13.0058 22.576 13.3258 22.128C13.6458 21.68 13.8058 21.1787 13.8058 20.624V14.448ZM12.3018 14.096C12.3018 14.4587 12.2271 14.8107 12.0778 15.152C11.9498 15.472 11.7578 15.7493 11.5018 15.984C11.2671 16.2187 10.9898 16.4107 10.6698 16.56C10.3498 16.688 9.99775 16.752 9.61375 16.752C8.88842 16.752 8.26975 16.496 7.75775 15.984C7.24575 15.472 6.98975 14.8427 6.98975 14.096C6.98975 13.3707 7.24575 12.752 7.75775 12.24C8.26975 11.728 8.88842 11.472 9.61375 11.472C9.99775 11.472 10.3498 11.5467 10.6698 11.696C10.9898 11.824 11.2671 12.0053 11.5018 12.24C11.7578 12.4747 11.9498 12.752 12.0778 13.072C12.2271 13.392 12.3018 13.7333 12.3018 14.096Z" fill="white"/>
<path d="M30.9448 3.728L23.9368 25.232V25.2C23.8088 25.52 23.6274 25.7867 23.3928 26C23.1794 26.192 22.9128 26.288 22.5928 26.288C22.4221 26.288 22.2514 26.2667 22.0807 26.224C21.9314 26.2027 21.7714 26.1707 21.6008 26.128H21.6328C20.4168 25.744 19.9688 25.0613 20.2888 24.08L27.5848 1.904C27.6914 1.56267 27.8728 1.27467 28.1288 1.04C28.4061 0.805333 28.7261 0.666666 29.0888 0.623999C29.4514 0.559998 29.8034 0.517331 30.1448 0.495998C30.4861 0.453332 30.7528 0.431999 30.9448 0.431999C31.1368 0.431999 31.4034 0.453332 31.7448 0.495998C32.0861 0.517331 32.4381 0.549332 32.8008 0.591999C33.0994 0.634665 33.3874 0.794665 33.6648 1.072C33.9634 1.34933 34.1874 1.62667 34.3368 1.904C35.5314 5.57333 36.7368 9.27467 37.9528 13.008C39.1901 16.72 40.4061 20.4107 41.6008 24.08C41.8994 25.0613 41.4514 25.744 40.2568 26.128C40.0861 26.1707 39.9261 26.2027 39.7768 26.224C39.6488 26.2667 39.4994 26.288 39.3288 26.288C39.0301 26.288 38.7528 26.192 38.4968 26C38.2621 25.7867 38.0914 25.52 37.9848 25.2V25.232L30.9448 3.728ZM33.3448 18.32C33.3448 19.0027 33.0994 19.5893 32.6088 20.08C32.1394 20.5493 31.5634 20.784 30.8808 20.784C30.1981 20.784 29.6221 20.5493 29.1528 20.08C28.6834 19.5893 28.4488 19.0027 28.4488 18.32C28.4488 17.6373 28.6834 17.0613 29.1528 16.592C29.6221 16.1013 30.1981 15.856 30.8808 15.856C31.5634 15.856 32.1394 16.1013 32.6088 16.592C33.0994 17.0613 33.3448 17.6373 33.3448 18.32Z" fill="#F5BD2D"/>
</svg>
