<svg width="182" height="32" viewBox="0 0 182 32" fill="none" xmlns="http://www.w3.org/2000/svg">
<path d="M0.511719 30.9998V0.759766H6.84772V30.9998H0.511719Z" fill="white"/>
<path d="M63.4082 10.3118H69.8402L62.1602 30.9998H55.1042L47.4722 10.3118H54.0482L58.7522 24.2798L63.4082 10.3118Z" fill="white"/>
<path d="M82.7211 31.7198C81.0891 31.7198 79.5851 31.4478 78.2091 30.9038C76.8651 30.3598 75.7131 29.6078 74.7531 28.6478C73.7931 27.6558 73.0411 26.4878 72.4971 25.1438C71.9531 23.7678 71.6811 22.2798 71.6811 20.6798C71.6811 19.0478 71.9531 17.5598 72.4971 16.2158C73.0411 14.8398 73.7931 13.6718 74.7531 12.7118C75.7451 11.7198 76.9131 10.9518 78.2571 10.4078C79.6011 9.86377 81.0731 9.59177 82.6731 9.59177C85.9691 9.59177 88.5771 10.5678 90.4971 12.5198C92.4171 14.4718 93.3771 16.9838 93.3771 20.0558C93.3771 20.4398 93.3611 20.8078 93.3291 21.1598C93.3291 21.4798 93.3131 21.8158 93.2811 22.1678H77.9691C78.1931 23.7998 78.7211 24.9998 79.5531 25.7678C80.3851 26.5038 81.4411 26.8718 82.7211 26.8718C83.8731 26.8718 84.7851 26.6318 85.4571 26.1518C86.1291 25.6718 86.5771 25.0478 86.8011 24.2798H93.0891C92.5771 26.6798 91.3451 28.5198 89.3931 29.7998C87.4731 31.0798 85.2491 31.7198 82.7211 31.7198ZM82.6251 14.4398C81.3771 14.4398 80.3371 14.7598 79.5051 15.3998C78.7051 16.0078 78.1931 16.9838 77.9691 18.3278H87.1851C87.0571 17.0478 86.5771 16.0878 85.7451 15.4478C84.9451 14.7758 83.9051 14.4398 82.6251 14.4398Z" fill="white"/>
<path d="M97.303 30.9998V10.3118H103.639V13.5278C104.343 12.2478 105.255 11.2718 106.375 10.5998C107.495 9.92777 108.759 9.59177 110.167 9.59177C112.535 9.59177 114.423 10.4238 115.831 12.0878C117.239 13.7198 117.943 15.9918 117.943 18.9038V30.9998H111.607V19.6718C111.607 18.1038 111.303 16.9198 110.695 16.1198C110.087 15.2878 109.191 14.8718 108.007 14.8718C106.695 14.8718 105.639 15.3038 104.839 16.1678C104.039 16.9998 103.639 18.3118 103.639 20.1038V30.9998H97.303Z" fill="white"/>
<path d="M120.499 15.3518V10.3118H125.251V2.15177H131.539V10.3118H138.019V15.3518H131.539V22.9838C131.539 24.1678 131.795 24.9838 132.307 25.4318C132.851 25.8798 133.667 26.1038 134.755 26.1038C135.299 26.1038 135.843 26.0558 136.387 25.9598C136.963 25.8638 137.507 25.7838 138.019 25.7198V31.2878C137.315 31.4158 136.579 31.5118 135.811 31.5758C135.043 31.6718 134.307 31.7198 133.603 31.7198C130.819 31.7198 128.723 31.0798 127.315 29.7998C125.939 28.5198 125.251 26.4238 125.251 23.5118V15.3518H120.499Z" fill="white"/>
<path d="M161.65 19.0958V30.9998H155.314V28.5518C154.802 29.3838 154.002 30.1198 152.914 30.7598C151.826 31.3998 150.466 31.7198 148.834 31.7198C146.754 31.7198 144.978 31.1598 143.506 30.0398C142.066 28.9198 141.346 27.3358 141.346 25.2878C141.346 23.5918 141.874 22.2798 142.93 21.3518C144.018 20.3918 145.746 19.7838 148.114 19.5278L155.314 18.7598V18.4718C155.314 17.0958 155.026 16.1198 154.45 15.5438C153.874 14.9358 152.978 14.6318 151.762 14.6318C150.738 14.6318 149.89 14.8558 149.218 15.3038C148.578 15.7518 148.226 16.5038 148.162 17.5598H142.018C142.338 14.9678 143.458 12.9998 145.378 11.6558C147.33 10.2798 149.65 9.59177 152.338 9.59177C155.282 9.59177 157.57 10.4078 159.202 12.0398C160.834 13.6398 161.65 15.9918 161.65 19.0958ZM147.73 25.1918C147.73 25.9918 148.018 26.5998 148.594 27.0158C149.17 27.3998 149.922 27.5918 150.85 27.5918C152.13 27.5918 153.154 27.1758 153.922 26.3438C154.722 25.5118 155.186 24.3278 155.314 22.7918V22.4078L150.85 22.8398C149.762 22.9678 148.962 23.2238 148.45 23.6078C147.97 23.9918 147.73 24.5198 147.73 25.1918Z" fill="white"/>
<path d="M166.444 30.9998V10.3118H172.732V14.5358C173.436 12.9038 174.412 11.6718 175.66 10.8398C176.94 10.0078 178.38 9.59177 179.98 9.59177C180.332 9.59177 180.668 9.62377 180.988 9.68777C181.308 9.71977 181.58 9.75177 181.804 9.78377V16.1678C181.228 16.0718 180.668 15.9918 180.124 15.9278C179.612 15.8638 179.052 15.8318 178.444 15.8318C176.3 15.8318 174.812 16.3118 173.98 17.2718C173.148 18.2318 172.732 19.6718 172.732 21.5918V30.9998H166.444Z" fill="white"/>
<path d="M42 13.9194C41.9993 13.7975 41.9718 13.677 41.919 13.5642C41.9207 13.5366 41.9207 13.509 41.919 13.4814L39.219 8.74591C39.1181 8.52374 38.9429 8.33357 38.7164 8.20044C38.4899 8.06731 38.2227 7.99745 37.95 8.00007H19.05C18.8007 8.00073 18.5565 8.06192 18.3444 8.17685C18.1323 8.29178 17.9607 8.45596 17.8485 8.6512L15.1485 13.3867C15.1468 13.4143 15.1468 13.4419 15.1485 13.4695C15.0568 13.6062 15.0058 13.7609 15 13.9194V30.4935C15 30.8075 15.1422 31.1086 15.3954 31.3306C15.6486 31.5526 15.992 31.6774 16.35 31.6774H40.65C41.008 31.6774 41.3514 31.5526 41.6046 31.3306C41.8578 31.1086 42 30.8075 42 30.4935V13.9194ZM32.55 19.8387H24.45C24.092 19.8387 23.7486 19.714 23.4954 19.492C23.2422 19.27 23.1 18.9688 23.1 18.6549C23.1 18.3409 23.2422 18.0398 23.4954 17.8177C23.7486 17.5957 24.092 17.471 24.45 17.471H32.55C32.908 17.471 33.2514 17.5957 33.5046 17.8177C33.7578 18.0398 33.9 18.3409 33.9 18.6549C33.9 18.9688 33.7578 19.27 33.5046 19.492C33.2514 19.714 32.908 19.8387 32.55 19.8387ZM18.537 12.7355L19.887 10.3678H37.113L38.463 12.7355H18.537Z" fill="white"/>
</svg>
