<svg width="98" height="254" viewBox="0 0 98 254" fill="none" xmlns="http://www.w3.org/2000/svg">
<path d="M89.0418 239.766C82.015 248.282 64.2473 261.376 49.3906 245.621C34.5339 229.865 54.577 200.377 66.4557 187.603C72.3114 184.054 84.5246 178.022 86.5323 182.28C89.0418 187.603 90.5476 198.78 69.9691 208.361C56.752 214.039 28.2098 220.071 19.7776 198.78C15.9296 189.554 15.2604 168.121 43.3676 156.198L78.5016 140.762M78.5016 140.762C91.886 140.226 111.126 146.608 81.0112 176.425C71.4748 181.038 48.3867 190.37 32.3254 190.796C23.1237 188.845 5.42282 179.193 8.23354 156.198C7.89893 151.585 14.1561 140.124 41.8618 131.181C48.2194 129.762 62.4403 126.817 68.4633 126.391L90.0456 123.197L78.5016 140.762ZM78.5016 140.762C69.7192 143.246 48.9915 147.469 36.3408 144.488C20.5273 140.762 14.2565 143.956 1.70865 123.197C-0.46631 112.552 1.10636 90.7284 24.7967 88.5993C48.4871 86.4702 63.7788 90.551 68.4633 92.8575V112.552M68.4633 112.552C51.2309 110.955 14.2565 112.126 4.21823 129.585C-0.633615 142.004 -1.00169 167.376 36.3408 169.505C45.3752 169.15 64.6487 168.015 69.4671 166.312L68.4633 128.52C50.8963 126.923 13.9554 119.365 6.7278 101.906C2.87979 91.7929 1.60827 70.5019 27.3063 66.2437C36.8427 65.8889 58.425 67.2018 68.4633 75.2924M68.4633 112.552V75.2924M68.4633 112.552C57.5885 109.89 33.6304 102.545 24.7967 94.4543C14.0892 85.5831 -1.60398 63.5823 21.2833 46.5495C28.4775 43.8881 47.5837 41.759 66.4557 54.5336M68.4633 75.2924L66.4557 54.5336M68.4633 75.2924C56.4173 66.776 31.8235 46.1237 29.8159 31.6458C28.9793 22.7745 31.2212 4.28681 46.881 1.30606C50.8963 0.59636 60.8342 0.66733 68.4633 6.62882L66.4557 54.5336" stroke="#84829A"/>
</svg>
