<svg width="30" height="30" viewBox="0 0 30 30" fill="none" xmlns="http://www.w3.org/2000/svg">
<g clip-path="url(#clip0_17_39)">
<path d="M5.85536 27.4217C5.74912 27.4978 5.63624 27.5648 5.51854 27.6227L3.64362 28.5413L0.868749 29.7884C0.791485 29.8258 0.709392 29.8445 0.627299 29.8445C0.484844 29.8445 0.344199 29.789 0.238565 29.6833C0.0725676 29.5173 0.0821652 29.4687 0.185385 29.258L2.49799 24.5132C2.55594 24.3955 2.49618 24.2448 2.57224 24.1387L4.46503 25.6031L5.85536 27.4217Z" fill="#F2D1A5"/>
<path d="M3.64431 28.5416L0.791572 29.939C0.775274 29.9469 0.758795 29.954 0.742075 29.9602C0.67966 29.9835 0.656119 29.9527 0.59135 29.9527C0.448894 29.9527 0.308249 29.8971 0.202615 29.7915C0.0366179 29.6255 0.00776466 29.419 0.110985 29.2083L1.45375 26.3511L3.64431 28.5416Z" fill="#9E959E"/>
<path d="M13.4312 19.8945L6.16358 27.1622C6.0682 27.2576 5.96498 27.3445 5.85512 27.4217L4.21387 25.7805L11.7652 18.2285L12.7716 19.0108L13.4312 19.8945Z" fill="#92FADE"/>
<path d="M11.7655 18.2284L4.21413 25.7803L2.57227 24.1385C2.64953 24.0286 2.73706 23.9254 2.83243 23.83L10.1001 16.563L11.044 17.2031L11.7655 18.2284Z" fill="#00FFBB"/>
<path d="M3.30082 24.8672V24.8679C3.22476 24.9741 3.15776 25.087 3.09981 25.2047L2.17385 27.0717L1.70055 26.8923L1.45312 26.351L2.37124 24.4755C2.42919 24.3578 2.49619 24.2449 2.57225 24.1387L3.09619 24.2872L3.30082 24.8672Z" fill="#F2BB88"/>
<path d="M10.8287 17.2916L3.561 24.5592C3.46563 24.6546 3.37871 24.7572 3.30084 24.8671L2.57227 24.1385C2.64953 24.0286 2.73706 23.9254 2.83243 23.83L10.1001 16.563L10.5655 16.7778L10.8287 17.2916Z" fill="#0E8C6B"/>
<path d="M2.17406 27.0718L0.741659 29.9601C0.690592 29.9757 0.65196 29.9939 0.549706 29.9951C0.40725 29.9951 0.266606 29.9396 0.160971 29.834C-0.0050258 29.668 -0.0472796 29.4145 0.0559403 29.2038L1.45333 26.3511L2.17406 27.0718Z" fill="#8E868E"/>
<path d="M12.2279 18.6907L4.67598 26.2421L4.35605 25.9222L4.03613 25.6022L11.5875 18.0503L11.9482 18.2286L12.2279 18.6907Z" fill="#0E8C6B"/>
<path d="M27.7578 13.0647C30.7735 10.049 30.7475 5.14349 27.68 2.16031C26.7905 1.29531 25.711 0.779456 24.5945 0.435148C21.962 -0.376608 19.0673 0.305006 16.9988 2.37393C15.2649 4.10833 14.583 6.44858 14.8632 8.70681C15.0612 10.3033 14.4598 11.9571 13.3223 13.0946L15.0002 15.1032L16.9403 16.6638C18.0695 15.5345 19.6836 15.0067 21.2648 15.2307C23.5663 15.5568 25.9876 14.8349 27.7578 13.0647Z" fill="#00FFBB"/>
<path d="M14.6186 16.615C14.4758 16.615 14.3352 16.5476 14.2472 16.4216C14.104 16.2167 14.1539 15.9344 14.3589 15.7912L22.2142 10.2998L20.8495 9.61748C20.6465 9.51601 20.4787 9.34826 20.3771 9.14514L19.6937 7.77817L14.1087 15.6246C13.9637 15.8283 13.6811 15.8759 13.4773 15.7309C13.2736 15.5859 13.2261 15.3032 13.371 15.0995L19.1016 7.04875C19.2563 6.83108 19.5085 6.71308 19.7745 6.73378C20.0411 6.75436 20.2717 6.90943 20.3913 7.14865L21.187 8.74011C21.2015 8.76908 21.2255 8.79305 21.2545 8.80753L22.8459 9.60329C23.0851 9.72287 23.2402 9.95346 23.2608 10.2201C23.2814 10.4867 23.1635 10.7384 22.9455 10.8932L14.8777 16.5332C14.7986 16.5885 14.7082 16.615 14.6186 16.615Z" fill="#0E8C6B"/>
<path d="M13.5302 19.9326L10.0618 16.4642C9.77889 16.1813 9.77889 15.7227 10.0618 15.4398L12.3641 13.1374C12.647 12.8546 13.1056 12.8546 13.3885 13.1374L13.9735 13.6621L16.9173 16.6059C17.2002 16.8887 17.2002 17.3474 16.9173 17.6303L14.768 19.7796L14.5546 19.9326C14.2717 20.2155 13.8131 20.2155 13.5302 19.9326Z" fill="#F8F7F7"/>
<path d="M27.7385 2.21922C27.7192 2.19869 27.6999 2.17998 27.68 2.16066C26.8097 1.31402 25.7838 0.717578 24.6941 0.369829C24.6942 0.369769 24.6943 0.369769 24.6944 0.369708C24.5899 0.367837 24.019 0.058298 22.4476 0.00608438C21.7565 -0.00369435 20.9463 0.0863666 20.1608 0.319909C18.9749 0.669106 17.8589 1.30829 16.9294 2.23793C15.1529 4.015 14.4322 6.44761 14.7678 8.75708C14.996 10.3277 14.4714 11.914 13.3493 13.0368L13.3164 13.0665L13.5099 13.4785L13.974 13.6621L14.5794 12.9873C15.4873 11.7432 15.8881 10.1702 15.6641 8.6267C15.3539 6.49469 16.0487 4.39891 17.5698 2.87777C20.2437 0.157715 25.1827 0.379004 27.7385 2.21922Z" fill="#0E8C6B"/>
<path d="M11.4834 16.1539L13.9746 13.6632L13.3885 13.0771C13.1054 12.794 12.6466 12.794 12.3641 13.0771L10.0009 15.4397C9.71844 15.7228 9.71844 16.1815 10.0009 16.464L13.5297 19.9928C13.8128 20.2759 14.2716 20.2759 14.5541 19.9928L14.7678 19.7797L11.4834 16.4954C11.3891 16.4011 11.3891 16.2482 11.4834 16.1539Z" fill="#E8E8E8"/>
<path d="M15.681 19.2089C15.5651 19.2089 15.4493 19.1647 15.3609 19.0763L10.9187 14.6341C10.7419 14.4573 10.7419 14.1707 10.9187 13.9939C11.0955 13.8171 11.3822 13.8171 11.5589 13.9939L16.0011 18.4361C16.1779 18.6129 16.1779 18.8995 16.0011 19.0763C15.9127 19.1647 15.7969 19.2089 15.681 19.2089Z" fill="#E8E8E8"/>
<path d="M12.6007 15.0368L11.9602 15.6772L10.9178 14.6348C10.8991 14.6154 10.8822 14.5955 10.8671 14.5738C10.7427 14.3975 10.7602 14.1519 10.9178 13.9943C11.0753 13.8368 11.321 13.8193 11.4972 13.9442C11.519 13.9587 11.5389 13.9756 11.5582 13.9943L12.6007 15.0368Z" fill="#D8D8D8"/>
</g>
<defs>
<clipPath id="clip0_17_39">
<rect width="30" height="30" fill="white"/>
</clipPath>
</defs>
</svg>
