<svg width="9" height="26" viewBox="0 0 9 26" fill="none" xmlns="http://www.w3.org/2000/svg">
<path d="M4.46843 6.02642C5.80962 6.02642 6.90073 4.85785 6.90073 3.42138C6.90073 1.98498 5.80968 0.816406 4.46843 0.816406C3.12731 0.816406 2.03613 1.98498 2.03613 3.42138C2.03613 4.85785 3.12731 6.02642 4.46843 6.02642Z" fill="#F5BD2D"/>
<path d="M6.90092 20.283V9.84374C6.90092 8.40734 5.80987 7.23877 4.46861 7.23877H2.96942C1.62829 7.23877 0.537109 8.40734 0.537109 9.84374C0.537109 10.9263 1.15688 11.8567 2.03631 12.2494V22.6887C2.03631 24.1252 3.12749 25.2937 4.46861 25.2937H5.96781C7.30906 25.2937 8.40024 24.1252 8.40024 22.6887C8.40018 21.6061 7.78041 20.6758 6.90092 20.283Z" fill="#F5BD2D"/>
<path d="M6.90105 3.42138C6.90105 1.98498 5.81 0.816406 4.46875 0.816406V6.02636C5.80994 6.02642 6.90105 4.85785 6.90105 3.42138Z" fill="#F5BD2D"/>
<path d="M6.90105 20.283V9.84374C6.90105 8.40734 5.81 7.23877 4.46875 7.23877V25.2937H5.96794C7.30919 25.2937 8.40037 24.1251 8.40037 22.6886C8.40031 21.6061 7.78054 20.6758 6.90105 20.283Z" fill="#F5BD2D"/>
</svg>
