<svg width="98" height="254" viewBox="0 0 98 254" fill="none" xmlns="http://www.w3.org/2000/svg">
<path d="M8.47965 14.2344C15.5065 5.71795 33.2742 -7.37604 48.1309 8.37933C62.9876 24.1347 42.9444 53.6228 31.0658 66.3974C25.2101 69.9459 12.9969 75.9784 10.9892 71.7202C8.47964 66.3974 6.9739 55.2196 27.5524 45.6387C40.7695 39.961 69.3117 33.9286 77.7439 55.2196C81.5919 64.4457 82.2611 85.8787 54.1539 97.8017L19.0198 113.238M19.0198 113.238C5.63546 113.774 -13.6046 107.392 16.5103 77.5752C26.0467 72.9621 49.1348 63.6296 65.196 63.2038C74.3978 65.1554 92.0987 74.8074 89.2879 97.8017C89.6226 102.415 83.3654 113.876 55.6597 122.819C49.3021 124.238 35.0812 127.183 29.0582 127.609L7.47587 130.803L19.0198 113.238ZM19.0198 113.238C27.8023 110.754 48.53 106.531 61.1807 109.512C76.9942 113.238 83.265 110.044 95.8128 130.803C97.9878 141.448 96.4151 163.272 72.7248 165.401C49.0344 167.53 33.7427 163.449 29.0582 161.143V141.448M29.0582 141.448C46.2906 143.045 83.265 141.874 93.3033 124.415C98.1551 111.996 98.5232 86.6239 61.1807 84.4948C52.1463 84.8496 32.8727 85.9852 28.0544 87.6884L29.0582 125.48C46.6252 127.077 83.5661 134.635 90.7937 152.094C94.6417 162.207 95.9132 183.498 70.2152 187.756C60.6788 188.111 39.0965 186.798 29.0582 178.708M29.0582 141.448V178.708M29.0582 141.448C39.933 144.11 63.8911 151.455 72.7248 159.546C83.4323 168.417 99.1255 190.418 76.2382 207.45C69.044 210.112 49.9377 212.241 31.0658 199.466M29.0582 178.708L31.0658 199.466M29.0582 178.708C41.1041 187.224 65.698 207.876 67.7056 222.354C68.5422 231.225 66.3003 249.713 50.6405 252.694C46.6252 253.404 36.6873 253.333 29.0582 247.371L31.0658 199.466" stroke="#84829A"/>
</svg>
