<svg width="575" height="373" viewBox="0 0 575 373" fill="none" xmlns="http://www.w3.org/2000/svg">
<path d="M574.96 23.9275C574.96 15.8604 574.96 11.8269 573.382 8.74566C571.993 6.03535 569.778 3.83179 567.054 2.45082C563.956 0.880859 559.901 0.880859 551.791 0.880859H14.2081C6.09839 0.880859 2.04346 0.880859 -1.05408 2.45082C-3.77869 3.83179 -5.9939 6.03535 -7.3822 8.74566C-8.96045 11.8269 -8.96045 15.8604 -8.96045 23.9275V374.668C-8.96045 382.736 -8.96045 386.769 -7.3822 389.85C-5.9939 392.561 -3.77869 394.764 -1.05408 396.145C2.04346 397.715 6.09839 397.715 14.2081 397.715H551.791C559.901 397.715 563.956 397.715 567.054 396.145C569.778 394.764 571.993 392.561 573.382 389.85C574.96 386.769 574.96 382.736 574.96 374.668V23.9275Z" fill="#1C1E1E"/>
</svg>
